<?xml version="1.0" encoding="utf-8"?>
<!-- Generator: Adobe Illustrator 22.1.0, SVG Export Plug-In . SVG Version: 6.00 Build 0)  -->
<svg version="1.1" id="Layer_1" xmlns="http://www.w3.org/2000/svg" xmlns:xlink="http://www.w3.org/1999/xlink" x="0px" y="0px"
	 viewBox="0 0 107 155" style="enable-background:new 0 0 107 155;" xml:space="preserve">
<style type="text/css">
	.st0{fill:#D8D3D4;}
	.st1{fill:#FFFFFF;}
	.st2{clip-path:url(#SVGID_2_);fill:#92A7AA;}
	.st3{clip-path:url(#SVGID_4_);fill:#F2EFDC;}
	.st4{clip-path:url(#SVGID_6_);fill:#F2EFDC;}
	.st5{clip-path:url(#SVGID_8_);fill:#7A7A6D;}
	.st6{clip-path:url(#SVGID_10_);fill:#50463D;}
	.st7{clip-path:url(#SVGID_12_);fill:#7A7A6D;}
	.st8{clip-path:url(#SVGID_14_);fill:#50463D;}
	.st9{clip-path:url(#SVGID_16_);fill:#50463D;}
	.st10{clip-path:url(#SVGID_18_);fill:#F2EFDC;}
	.st11{clip-path:url(#SVGID_20_);fill:#DCDAC8;}
	.st12{clip-path:url(#SVGID_22_);fill:#DCDAC8;}
	.st13{clip-path:url(#SVGID_24_);fill:#DCDAC8;}
	.st14{clip-path:url(#SVGID_26_);fill:#DCDAC8;}
	.st15{clip-path:url(#SVGID_28_);fill:#F2EFDC;}
	.st16{clip-path:url(#SVGID_30_);fill:#50463D;}
	.st17{clip-path:url(#SVGID_32_);fill:#7A7A6D;}
	.st18{clip-path:url(#SVGID_34_);fill:#7A7A6D;}
	.st19{clip-path:url(#SVGID_36_);fill:#50463D;}
	.st20{clip-path:url(#SVGID_38_);fill:#7A7A6D;}
	.st21{clip-path:url(#SVGID_40_);fill:#50463D;}
	.st22{fill:#3A5767;}
</style>
<rect x="0.3" y="-0.1" class="st0" width="107.4" height="125.9"/>
<rect x="0.5" y="125.8" class="st1" width="107.4" height="29.3"/>
<g>
	<g>
		<g>
			<defs>
				<rect id="SVGID_1_" x="0.3" y="-0.1" width="107.4" height="125.9"/>
			</defs>
			<clipPath id="SVGID_2_">
				<use xlink:href="#SVGID_1_"  style="overflow:visible;"/>
			</clipPath>
			<path class="st2" d="M53.4,135.1c15.7,0,30.5-2.5,43.6-7l-3.2-27.7c-0.4-3.4-5.9-6.1-12.7-6.6c-18.4-3.3-37.1-3.3-55.5,0
				c-6.8,0.5-12.3,3.2-12.7,6.6L9.8,128C22.9,132.5,37.7,135.1,53.4,135.1"/>
		</g>
	</g>
	<g>
		<g>
			<defs>
				<rect id="SVGID_3_" x="0.3" y="-0.1" width="107.4" height="125.9"/>
			</defs>
			<clipPath id="SVGID_4_">
				<use xlink:href="#SVGID_3_"  style="overflow:visible;"/>
			</clipPath>
			<path class="st3" d="M52.8,90.9c-6.6,0-13.3,0.6-19.9,1.8c0,0.3,0.1,0.6,0,0.8c-8.5,22.4,15.8,23,19.9,28.8
				C52.8,122.3,52.8,90.9,52.8,90.9z"/>
		</g>
	</g>
	<g>
		<g>
			<defs>
				<rect id="SVGID_5_" x="0.3" y="-0.1" width="107.4" height="125.9"/>
			</defs>
			<clipPath id="SVGID_6_">
				<use xlink:href="#SVGID_5_"  style="overflow:visible;"/>
			</clipPath>
			<path class="st4" d="M52.5,90.9c6.6,0,13.3,0.6,19.9,1.8c0,0.3,0,0.6,0.1,0.8c8.5,22.4-15.8,23-19.9,28.8L52.5,90.9L52.5,90.9z"
				/>
		</g>
	</g>
	<g>
		<g>
			<defs>
				<rect id="SVGID_7_" x="0.3" y="-0.1" width="107.4" height="125.9"/>
			</defs>
			<clipPath id="SVGID_8_">
				<use xlink:href="#SVGID_7_"  style="overflow:visible;"/>
			</clipPath>
			<path class="st5" d="M27.5,68.9c3.4,19.1,3.4,15,18.4,17.7c9.6,1.7,17.7-12,17.7-26.9c0-14.8-10.1-31.1-19.4-27.9
				C27.9,37.4,24.9,54.3,27.5,68.9"/>
		</g>
	</g>
	<g>
		<g>
			<defs>
				<rect id="SVGID_9_" x="0.3" y="-0.1" width="107.4" height="125.9"/>
			</defs>
			<clipPath id="SVGID_10_">
				<use xlink:href="#SVGID_9_"  style="overflow:visible;"/>
			</clipPath>
			<path class="st6" d="M63.5,59.3c0-8.6-3.7-18.2-8.6-23.7c-2.3-1.4-4.7-1.7-7-0.4C29,45.9,28.7,57.3,31.3,71.8
				c1.1,6.3,1.9,10.1,3,12.3c2.4,0.7,5.9,0.7,11.5,1.8C55.4,87.6,63.5,74,63.5,59.3"/>
		</g>
	</g>
	<g>
		<g>
			<defs>
				<rect id="SVGID_11_" x="0.3" y="-0.1" width="107.4" height="125.9"/>
			</defs>
			<clipPath id="SVGID_12_">
				<use xlink:href="#SVGID_11_"  style="overflow:visible;"/>
			</clipPath>
			<path class="st7" d="M78.7,68.9c-3.4,19.1-3.4,15-18.4,17.7c-9.6,1.7-17.7-12-17.7-26.9C42.6,44.9,53.5,27,62,31.8
				C81,42.7,81.3,54.3,78.7,68.9"/>
		</g>
	</g>
	<g>
		<g>
			<defs>
				<rect id="SVGID_13_" x="0.3" y="-0.1" width="107.4" height="125.9"/>
			</defs>
			<clipPath id="SVGID_14_">
				<use xlink:href="#SVGID_13_"  style="overflow:visible;"/>
			</clipPath>
			<path class="st8" d="M75.5,72.2c-3.1,15.5-3.1,12.1-16.8,14.4C50,88,42.6,76.8,42.6,64.8s10-26.6,17.7-22.6
				C77.7,51,77.9,60.4,75.5,72.2"/>
		</g>
	</g>
	<g>
		<g>
			<defs>
				<rect id="SVGID_15_" x="0.3" y="-0.1" width="107.4" height="125.9"/>
			</defs>
			<clipPath id="SVGID_16_">
				<use xlink:href="#SVGID_15_"  style="overflow:visible;"/>
			</clipPath>
			<path class="st9" d="M58.4,38c-4-2.3-8.5,0.6-12.1,5.7c-2.2,4.9-3.7,10.7-3.7,16c0,14.6,7.9,28.1,17.3,26.4
				c7-1.3,10.6-1,12.9-2.5c0.6-2.2,1.2-5.2,1.9-9.3C77.2,60,77,48.6,58.4,38"/>
		</g>
	</g>
	<g>
		<g>
			<defs>
				<rect id="SVGID_17_" x="0.3" y="-0.1" width="107.4" height="125.9"/>
			</defs>
			<clipPath id="SVGID_18_">
				<use xlink:href="#SVGID_17_"  style="overflow:visible;"/>
			</clipPath>
			<path class="st10" d="M64.7,84.1c0-0.4,0-0.7,0-1.1c-7.5-3.1-15-3.1-22.5,0c0,0.4,0,0.7,0,1.1c0,11.8,5.1,21.3,11.3,21.3
				C59.6,105.5,64.7,95.9,64.7,84.1"/>
		</g>
	</g>
	<g>
		<g>
			<defs>
				<rect id="SVGID_19_" x="0.3" y="-0.1" width="107.4" height="125.9"/>
			</defs>
			<clipPath id="SVGID_20_">
				<use xlink:href="#SVGID_19_"  style="overflow:visible;"/>
			</clipPath>
			<path class="st11" d="M64.7,84.1c0-0.4,0-0.7,0-1.1c-2.4-1-4.7-1.6-7.1-2c-2.6,0.4-5.1,1.3-7.7,2.7c0,0.5,0,0.9,0,1.4
				c0,7.9,1.3,15.1,3.4,20.2h0.1C59.6,105.5,64.7,95.9,64.7,84.1"/>
		</g>
	</g>
	<g>
		<g>
			<defs>
				<rect id="SVGID_21_" x="0.3" y="-0.1" width="107.4" height="125.9"/>
			</defs>
			<clipPath id="SVGID_22_">
				<use xlink:href="#SVGID_21_"  style="overflow:visible;"/>
			</clipPath>
			<path class="st12" d="M53.4,30.2c-13.3-0.8-25.5,12.4-21.8,32.1c3.6,19,12.4,27.8,21.8,27.9c9.5,0,18.2-8.8,21.8-27.9
				C78.9,42.6,66.6,29.4,53.4,30.2"/>
		</g>
	</g>
	<g>
		<g>
			<defs>
				<rect id="SVGID_23_" x="0.3" y="-0.1" width="107.4" height="125.9"/>
			</defs>
			<clipPath id="SVGID_24_">
				<use xlink:href="#SVGID_23_"  style="overflow:visible;"/>
			</clipPath>
			<path class="st13" d="M35.7,68.4c0.8,4.6,0.3,7.6-0.9,8s-2.9-1.9-4.1-6.3c-1.3-4.4-1.1-8.8,0.6-9.3
				C32.9,60.2,34.9,63.8,35.7,68.4"/>
		</g>
	</g>
	<g>
		<g>
			<defs>
				<rect id="SVGID_25_" x="0.3" y="-0.1" width="107.4" height="125.9"/>
			</defs>
			<clipPath id="SVGID_26_">
				<use xlink:href="#SVGID_25_"  style="overflow:visible;"/>
			</clipPath>
			<path class="st14" d="M71.1,68.4c-0.8,4.6-0.3,7.6,0.9,8c1.2,0.4,2.9-1.9,4.1-6.3c1.3-4.4,1.1-8.8-0.6-9.3
				C73.8,60.2,71.8,63.8,71.1,68.4"/>
		</g>
	</g>
	<g>
		<g>
			<defs>
				<rect id="SVGID_27_" x="0.3" y="-0.1" width="107.4" height="125.9"/>
			</defs>
			<clipPath id="SVGID_28_">
				<use xlink:href="#SVGID_27_"  style="overflow:visible;"/>
			</clipPath>
			<path class="st15" d="M71.8,65.1c-3.2,15.5-11,22.7-19.5,22.7S36,80.6,32.8,65.1c-3.3-16,7.7-26.8,19.5-26.1
				C64.1,38.3,75,49.1,71.8,65.1"/>
		</g>
	</g>
	<g>
		<g>
			<defs>
				<rect id="SVGID_29_" x="0.3" y="-0.1" width="107.4" height="125.9"/>
			</defs>
			<clipPath id="SVGID_30_">
				<use xlink:href="#SVGID_29_"  style="overflow:visible;"/>
			</clipPath>
			<path class="st16" d="M77.3,48.5c-2.8-11.2-12.1-18.1-22.2-18.3c-0.8,2.5-1.2,5.4-1.2,8.3c0,10.8,18.1,9.8,21.8,22.3
				C75.6,60.8,78.5,58.1,77.3,48.5"/>
		</g>
	</g>
	<g>
		<g>
			<defs>
				<rect id="SVGID_31_" x="0.3" y="-0.1" width="107.4" height="125.9"/>
			</defs>
			<clipPath id="SVGID_32_">
				<use xlink:href="#SVGID_31_"  style="overflow:visible;"/>
			</clipPath>
			<path class="st17" d="M53.4,38.3c-11.2-0.6-21.5,9.1-19.8,23.9c4,1.2,8.5,1.8,13.3,1.8c2,0,3.9-0.1,5.7-0.3l0.5-0.8l4.3-7.2
				l-2.3,7.7c0.5-0.1,0.9-0.2,1.4-0.3l1.2-2l5.9-10.4l4.1,8.1c0,0,3.9-2.1,5.4-3.8C71.3,44.4,62.6,37.8,53.4,38.3"/>
		</g>
	</g>
	<g>
		<g>
			<defs>
				<rect id="SVGID_33_" x="0.3" y="-0.1" width="107.4" height="125.9"/>
			</defs>
			<clipPath id="SVGID_34_">
				<use xlink:href="#SVGID_33_"  style="overflow:visible;"/>
			</clipPath>
			<path class="st18" d="M29.4,62.6L29.4,62.6c2.2,0.5,4.5,0.8,6.9,0.8c16.7,0,30.2-10.7,30.2-23.9c0-2.4-0.5-4.6-1.3-6.8
				c-3.6-2-7.7-2.9-11.9-2.7C38.8,29.2,25.4,42.6,29.4,62.6"/>
		</g>
	</g>
	<g>
		<g>
			<defs>
				<rect id="SVGID_35_" x="0.3" y="-0.1" width="107.4" height="125.9"/>
			</defs>
			<clipPath id="SVGID_36_">
				<use xlink:href="#SVGID_35_"  style="overflow:visible;"/>
			</clipPath>
			<path class="st19" d="M66.3,42.5c-0.8,2.9-1.7,5.6-2.8,8.2l4.3,8.1c0,0,4.1-2.1,5.8-3.8C72.7,49.7,70,45.4,66.3,42.5"/>
		</g>
	</g>
	<g>
		<g>
			<defs>
				<rect id="SVGID_37_" x="0.3" y="-0.1" width="107.4" height="125.9"/>
			</defs>
			<clipPath id="SVGID_38_">
				<use xlink:href="#SVGID_37_"  style="overflow:visible;"/>
			</clipPath>
			<path class="st20" d="M68.3,45.6c3.5,2.7,6.5,7.9,7.9,14.3c0.8-1.4,1.9-4.8,1.1-11.5c-1.5-6.1-5-11.5-11.4-15.4
				c0.5,1.4,2.8,4.1,2.9,5.5C69.1,41,68.9,43.4,68.3,45.6"/>
		</g>
	</g>
	<g>
		<g>
			<defs>
				<rect id="SVGID_39_" x="0.3" y="-0.1" width="107.4" height="125.9"/>
			</defs>
			<clipPath id="SVGID_40_">
				<use xlink:href="#SVGID_39_"  style="overflow:visible;"/>
			</clipPath>
			<path class="st21" d="M76,79.4c0.4-1.7,0.7-3.7,1.2-6.1c2.2-12.1,2.3-22-8.4-31.3c-0.3,0.4-0.6,0.9-0.8,1.4
				c10.5,9.2,11,16.6,8.6,30.9C76.2,76.7,75.7,79.9,76,79.4"/>
		</g>
	</g>
</g>
<g>
	<path class="st22" d="M15.2,144.4h-1l3.7-8.5h0.8l3.7,8.5h-1l-0.9-2.2h-4.3L15.2,144.4z M16.4,141.4h3.7l-1.8-4.5L16.4,141.4z"/>
	<path class="st22" d="M28.9,144.4h-0.8v-0.9h0c-0.1,0.2-0.3,0.4-0.5,0.5c-0.2,0.1-0.4,0.2-0.6,0.3c-0.2,0.1-0.4,0.2-0.6,0.2
		c-0.2,0-0.4,0.1-0.6,0.1c-0.4,0-0.8-0.1-1.2-0.2c-0.4-0.1-0.7-0.4-0.9-0.6c-0.3-0.3-0.5-0.6-0.6-0.9c-0.1-0.4-0.2-0.8-0.2-1.2
		c0-0.4,0.1-0.8,0.2-1.2c0.1-0.4,0.4-0.7,0.6-0.9c0.3-0.3,0.6-0.5,0.9-0.6c0.4-0.1,0.8-0.2,1.2-0.2c0.2,0,0.4,0,0.6,0.1
		c0.2,0,0.4,0.1,0.6,0.2s0.4,0.2,0.6,0.3c0.2,0.1,0.3,0.3,0.5,0.5h0v-4.4h0.8V144.4z M23.7,141.6c0,0.3,0,0.6,0.1,0.9
		c0.1,0.3,0.2,0.5,0.4,0.7c0.2,0.2,0.4,0.4,0.7,0.5s0.6,0.2,0.9,0.2c0.3,0,0.6-0.1,0.9-0.2c0.3-0.1,0.5-0.3,0.7-0.5
		c0.2-0.2,0.4-0.4,0.5-0.7c0.1-0.3,0.2-0.6,0.2-0.9c0-0.3-0.1-0.6-0.2-0.9c-0.1-0.3-0.3-0.5-0.5-0.7c-0.2-0.2-0.4-0.4-0.7-0.5
		c-0.3-0.1-0.6-0.2-0.9-0.2c-0.3,0-0.6,0.1-0.9,0.2c-0.3,0.1-0.5,0.3-0.7,0.5c-0.2,0.2-0.3,0.4-0.4,0.7
		C23.8,141,23.7,141.3,23.7,141.6z"/>
	<path class="st22" d="M30.6,140c0-0.2,0-0.4,0-0.6c0-0.2,0-0.4,0-0.6h0.9v0.9h0c0.2-0.3,0.5-0.6,0.8-0.7c0.3-0.2,0.7-0.3,1-0.3
		c0.2,0,0.3,0,0.5,0c0.2,0,0.3,0.1,0.5,0.2c0.2,0.1,0.3,0.2,0.4,0.4c0.1,0.2,0.3,0.3,0.4,0.6c0.2-0.4,0.4-0.6,0.8-0.9
		s0.7-0.3,1.1-0.3c0.7,0,1.3,0.2,1.6,0.6c0.3,0.4,0.5,0.9,0.5,1.6v3.6h-0.8v-3.3c0-0.6-0.1-1-0.3-1.3c-0.2-0.3-0.6-0.5-1.1-0.5
		c-0.3,0-0.5,0.1-0.7,0.2c-0.2,0.1-0.4,0.3-0.5,0.5c-0.1,0.2-0.2,0.4-0.3,0.7c-0.1,0.2-0.1,0.5-0.1,0.8v3h-0.8v-3.3
		c0-0.6-0.1-1-0.3-1.3c-0.2-0.3-0.6-0.5-1.1-0.5c0,0-0.2,0-0.3,0c-0.2,0-0.4,0.1-0.5,0.3c-0.2,0.1-0.4,0.4-0.5,0.6s-0.2,0.7-0.2,1.2
		v2.9h-0.8V140z"/>
	<path class="st22" d="M42,136.6c0,0.2-0.1,0.3-0.2,0.4c-0.1,0.1-0.3,0.2-0.4,0.2c-0.1,0-0.3-0.1-0.4-0.2c-0.1-0.1-0.2-0.2-0.2-0.4
		s0.1-0.3,0.2-0.4c0.1-0.1,0.3-0.2,0.4-0.2c0.1,0,0.3,0.1,0.4,0.2C41.9,136.3,42,136.5,42,136.6z M41.8,144.4H41v-5.6h0.8V144.4z"/>
	<path class="st22" d="M44.5,138.8c0,0.2,0,0.3,0,0.5c0,0.1,0,0.3,0,0.5h0c0.1-0.2,0.2-0.3,0.3-0.4c0.1-0.1,0.3-0.2,0.5-0.3
		s0.3-0.2,0.5-0.2c0.2-0.1,0.4-0.1,0.6-0.1c0.7,0,1.3,0.2,1.6,0.6c0.3,0.4,0.5,0.9,0.5,1.6v3.6h-0.8v-3.1c0-0.6-0.1-1.1-0.3-1.4
		c-0.2-0.3-0.6-0.5-1.2-0.5c0,0-0.2,0-0.3,0c-0.2,0-0.4,0.1-0.6,0.3c-0.2,0.1-0.4,0.4-0.5,0.6c-0.2,0.3-0.2,0.7-0.2,1.2v2.9h-0.8
		V140c0-0.2,0-0.3,0-0.6c0-0.2,0-0.5,0-0.7H44.5z"/>
	<path class="st22" d="M51.5,136.6c0,0.2-0.1,0.3-0.2,0.4c-0.1,0.1-0.3,0.2-0.4,0.2c-0.1,0-0.3-0.1-0.4-0.2
		c-0.1-0.1-0.2-0.2-0.2-0.4s0.1-0.3,0.2-0.4c0.1-0.1,0.3-0.2,0.4-0.2c0.1,0,0.3,0.1,0.4,0.2C51.5,136.3,51.5,136.5,51.5,136.6z
		 M51.3,144.4h-0.8v-5.6h0.8V144.4z"/>
	<path class="st22" d="M56.2,140.1c-0.1-0.2-0.3-0.4-0.5-0.6c-0.2-0.1-0.4-0.2-0.7-0.2c-0.1,0-0.3,0-0.4,0c-0.1,0-0.3,0.1-0.4,0.2
		c-0.1,0.1-0.2,0.2-0.3,0.3c-0.1,0.1-0.1,0.2-0.1,0.4c0,0.3,0.1,0.5,0.3,0.6c0.2,0.1,0.5,0.2,0.8,0.3l0.8,0.2c0.4,0.1,0.7,0.3,1,0.5
		c0.3,0.3,0.4,0.6,0.4,1c0,0.3-0.1,0.6-0.2,0.8s-0.3,0.4-0.5,0.5c-0.2,0.1-0.4,0.2-0.7,0.3c-0.3,0.1-0.5,0.1-0.8,0.1
		c-0.4,0-0.8-0.1-1.2-0.2c-0.4-0.2-0.7-0.4-1-0.8l0.7-0.5c0.2,0.3,0.4,0.5,0.6,0.6c0.2,0.2,0.5,0.2,0.9,0.2c0.2,0,0.3,0,0.5-0.1
		s0.3-0.1,0.4-0.2s0.2-0.2,0.3-0.3s0.1-0.3,0.1-0.4c0-0.3-0.1-0.5-0.3-0.6c-0.2-0.1-0.5-0.2-0.8-0.3l-0.8-0.2
		c-0.1,0-0.2-0.1-0.4-0.1c-0.2-0.1-0.3-0.1-0.5-0.3s-0.3-0.3-0.4-0.4c-0.1-0.2-0.2-0.4-0.2-0.7c0-0.3,0.1-0.5,0.2-0.8
		c0.1-0.2,0.3-0.4,0.5-0.5c0.2-0.1,0.4-0.2,0.7-0.3c0.2-0.1,0.5-0.1,0.8-0.1c0.4,0,0.8,0.1,1.1,0.2c0.3,0.2,0.6,0.4,0.8,0.8
		L56.2,140.1z"/>
	<path class="st22" d="M61.3,139.5h-1.6v3.3c0,0.2,0,0.4,0.1,0.5s0.1,0.2,0.2,0.3c0.1,0.1,0.2,0.1,0.3,0.1c0.1,0,0.2,0,0.3,0
		c0.1,0,0.3,0,0.4-0.1c0.1,0,0.3-0.1,0.4-0.2l0,0.7c-0.3,0.1-0.7,0.2-1.1,0.2c-0.2,0-0.3,0-0.5-0.1c-0.2,0-0.3-0.1-0.5-0.2
		c-0.1-0.1-0.2-0.3-0.3-0.5c-0.1-0.2-0.1-0.4-0.1-0.8v-3.5h-1.2v-0.7h1.2v-1.6h0.8v1.6h1.6V139.5z"/>
	<path class="st22" d="M62.4,140.5c0-0.2,0-0.5,0-0.8c0-0.3,0-0.6,0-1h0.8v1h0c0.1-0.2,0.1-0.3,0.2-0.4c0.1-0.1,0.2-0.3,0.4-0.4
		c0.1-0.1,0.3-0.2,0.5-0.3c0.2-0.1,0.4-0.1,0.7-0.1c0.2,0,0.4,0,0.6,0.1l-0.2,0.8c-0.1,0-0.3-0.1-0.5-0.1c-0.3,0-0.6,0.1-0.8,0.2
		s-0.4,0.3-0.5,0.4c-0.1,0.2-0.2,0.4-0.3,0.6c-0.1,0.2-0.1,0.4-0.1,0.6v3.2h-0.8V140.5z"/>
	<path class="st22" d="M69.9,141v-0.1c0-1-0.5-1.5-1.4-1.5c-0.7,0-1.2,0.2-1.7,0.7l-0.5-0.6c0.5-0.5,1.3-0.8,2.4-0.8
		c0.3,0,0.5,0,0.8,0.1s0.5,0.2,0.7,0.4c0.2,0.2,0.3,0.4,0.4,0.6s0.2,0.5,0.2,0.9v2.5c0,0.2,0,0.4,0,0.7c0,0.2,0,0.4,0.1,0.6h-0.8
		c0-0.1,0-0.3-0.1-0.4c0-0.2,0-0.3,0-0.5h0c-0.2,0.4-0.5,0.6-0.8,0.8c-0.3,0.2-0.7,0.2-1.2,0.2c-0.2,0-0.5,0-0.7-0.1
		c-0.2-0.1-0.4-0.2-0.6-0.3c-0.2-0.1-0.3-0.3-0.4-0.5c-0.1-0.2-0.2-0.4-0.2-0.7c0-0.5,0.1-0.8,0.4-1.1c0.2-0.3,0.5-0.5,0.9-0.6
		c0.4-0.1,0.7-0.2,1.1-0.2c0.4,0,0.8,0,1.1,0H69.9z M69.5,141.6c-0.2,0-0.4,0-0.8,0c-0.3,0-0.6,0.1-0.9,0.1
		c-0.3,0.1-0.5,0.2-0.7,0.4c-0.2,0.2-0.3,0.4-0.3,0.7c0,0.2,0,0.3,0.1,0.5s0.2,0.2,0.3,0.3s0.3,0.1,0.4,0.2s0.3,0.1,0.5,0.1
		c0.3,0,0.5,0,0.8-0.1c0.2-0.1,0.4-0.2,0.5-0.4c0.1-0.2,0.2-0.4,0.3-0.6c0.1-0.2,0.1-0.5,0.1-0.7v-0.4H69.5z"/>
	<path class="st22" d="M76.7,140.1c-0.1-0.2-0.3-0.4-0.6-0.5c-0.2-0.1-0.5-0.2-0.8-0.2c-0.3,0-0.6,0-0.9,0.2s-0.5,0.3-0.7,0.5
		s-0.3,0.4-0.4,0.7c-0.1,0.3-0.1,0.6-0.1,0.9c0,0.3,0,0.6,0.1,0.9s0.2,0.5,0.4,0.7c0.2,0.2,0.4,0.4,0.7,0.5c0.3,0.1,0.6,0.2,0.9,0.2
		c0.3,0,0.6-0.1,0.8-0.2s0.4-0.3,0.6-0.5l0.6,0.5c-0.3,0.3-0.6,0.6-0.9,0.7c-0.4,0.2-0.7,0.2-1.1,0.2c-0.5,0-0.9-0.1-1.2-0.2
		c-0.4-0.1-0.7-0.4-0.9-0.6c-0.3-0.3-0.5-0.6-0.6-0.9c-0.1-0.4-0.2-0.8-0.2-1.2c0-0.4,0.1-0.8,0.2-1.2c0.1-0.4,0.3-0.7,0.6-0.9
		c0.3-0.3,0.6-0.5,0.9-0.6c0.4-0.1,0.8-0.2,1.2-0.2c0.4,0,0.8,0.1,1.1,0.2c0.4,0.2,0.7,0.4,0.9,0.7L76.7,140.1z"/>
	<path class="st22" d="M79.5,136.6c0,0.2-0.1,0.3-0.2,0.4c-0.1,0.1-0.3,0.2-0.4,0.2c-0.1,0-0.3-0.1-0.4-0.2
		c-0.1-0.1-0.2-0.2-0.2-0.4s0.1-0.3,0.2-0.4c0.1-0.1,0.3-0.2,0.4-0.2c0.1,0,0.3,0.1,0.4,0.2C79.4,136.3,79.5,136.5,79.5,136.6z
		 M79.3,144.4h-0.8v-5.6h0.8V144.4z"/>
	<path class="st22" d="M86.9,141.6c0,0.4-0.1,0.8-0.2,1.2c-0.1,0.4-0.4,0.7-0.6,0.9c-0.3,0.3-0.6,0.5-0.9,0.6
		c-0.4,0.1-0.8,0.2-1.2,0.2c-0.4,0-0.8-0.1-1.2-0.2c-0.4-0.1-0.7-0.4-0.9-0.6c-0.3-0.3-0.5-0.6-0.6-0.9c-0.1-0.4-0.2-0.8-0.2-1.2
		c0-0.4,0.1-0.8,0.2-1.2c0.1-0.4,0.4-0.7,0.6-0.9s0.6-0.5,0.9-0.6c0.4-0.1,0.8-0.2,1.2-0.2c0.4,0,0.8,0.1,1.2,0.2
		c0.4,0.1,0.7,0.4,0.9,0.6c0.3,0.3,0.5,0.6,0.6,0.9C86.8,140.8,86.9,141.2,86.9,141.6z M86,141.6c0-0.3,0-0.6-0.1-0.9
		c-0.1-0.3-0.2-0.5-0.4-0.7c-0.2-0.2-0.4-0.4-0.7-0.5c-0.3-0.1-0.6-0.2-0.9-0.2s-0.6,0.1-0.9,0.2c-0.3,0.1-0.5,0.3-0.7,0.5
		c-0.2,0.2-0.3,0.4-0.4,0.7c-0.1,0.3-0.1,0.6-0.1,0.9c0,0.3,0,0.6,0.1,0.9c0.1,0.3,0.2,0.5,0.4,0.7c0.2,0.2,0.4,0.4,0.7,0.5
		s0.6,0.2,0.9,0.2s0.6-0.1,0.9-0.2c0.3-0.1,0.5-0.3,0.7-0.5c0.2-0.2,0.3-0.4,0.4-0.7C86,142.2,86,141.9,86,141.6z M83.9,137.6h-0.7
		l1.2-1.7h1.1L83.9,137.6z"/>
	<path class="st22" d="M89.1,138.8c0,0.2,0,0.3,0,0.5c0,0.1,0,0.3,0,0.5h0c0.1-0.2,0.2-0.3,0.3-0.4c0.1-0.1,0.3-0.2,0.5-0.3
		s0.3-0.2,0.5-0.2c0.2-0.1,0.4-0.1,0.6-0.1c0.7,0,1.3,0.2,1.6,0.6c0.3,0.4,0.5,0.9,0.5,1.6v3.6h-0.8v-3.1c0-0.6-0.1-1.1-0.3-1.4
		c-0.2-0.3-0.6-0.5-1.2-0.5c0,0-0.2,0-0.3,0c-0.2,0-0.4,0.1-0.6,0.3c-0.2,0.1-0.4,0.4-0.5,0.6c-0.2,0.3-0.2,0.7-0.2,1.2v2.9h-0.8
		V140c0-0.2,0-0.3,0-0.6c0-0.2,0-0.5,0-0.7H89.1z"/>
</g>
</svg>
