<?xml version="1.0" encoding="utf-8"?>
<!-- Generator: Adobe Illustrator 22.1.0, SVG Export Plug-In . SVG Version: 6.00 Build 0)  -->
<svg version="1.1" id="Layer_1" xmlns="http://www.w3.org/2000/svg" xmlns:xlink="http://www.w3.org/1999/xlink" x="0px" y="0px"
	 viewBox="0 0 107 155" style="enable-background:new 0 0 107 155;" xml:space="preserve">
<style type="text/css">
	.st0{fill:#D8D3D4;}
	.st1{fill:#FFFFFF;}
	.st2{clip-path:url(#SVGID_2_);fill:#92A7AA;}
	.st3{clip-path:url(#SVGID_2_);fill:#F2EFDC;}
	.st4{clip-path:url(#SVGID_2_);fill:#7A7A6D;}
	.st5{clip-path:url(#SVGID_2_);fill:#50463D;}
	.st6{clip-path:url(#SVGID_2_);fill:#DCDAC8;}
	.st7{fill:#3A5767;}
	.st8{font-family:'AvenirNext-Regular';}
	.st9{font-size:12px;}
	.st10{letter-spacing:-1;}
</style>
<rect x="0.3" y="-0.1" class="st0" width="107.4" height="125.9"/>
<rect x="0.3" y="125.8" class="st1" width="107.4" height="29.3"/>
<g>
	<defs>
		<rect id="SVGID_1_" x="0.3" y="-0.1" width="107.4" height="125.9"/>
	</defs>
	<clipPath id="SVGID_2_">
		<use xlink:href="#SVGID_1_"  style="overflow:visible;"/>
	</clipPath>
	<path class="st2" d="M53.4,135.1c15.7,0,30.5-2.5,43.6-7l-3.2-27.7c-0.4-3.4-5.9-6.1-12.7-6.6c-18.4-3.3-37.1-3.3-55.5,0
		c-6.8,0.5-12.3,3.2-12.7,6.6L9.8,128C22.9,132.5,37.7,135.1,53.4,135.1"/>
	<path class="st3" d="M52.8,90.9c-6.6,0-13.3,0.6-19.9,1.8c0,0.3,0.1,0.6,0,0.8c-8.5,22.4,15.8,23,19.9,28.8V90.9z"/>
	<path class="st3" d="M52.5,90.9c6.6,0,13.3,0.6,19.9,1.8c0,0.3,0,0.6,0.1,0.8c8.5,22.4-15.8,23-19.9,28.8V90.9z"/>
	<path class="st4" d="M27.5,68.9c3.4,19.1,3.4,15,18.4,17.7c9.6,1.7,17.7-12,17.7-26.9c0-14.8-10.1-31.1-19.4-27.9
		C27.9,37.4,24.9,54.3,27.5,68.9"/>
	<path class="st5" d="M63.5,59.3c0-8.6-3.7-18.2-8.6-23.7c-2.3-1.4-4.7-1.7-7-0.4C29,45.9,28.7,57.3,31.3,71.8
		c1.1,6.3,1.9,10.1,3,12.3c2.4,0.7,5.9,0.7,11.5,1.8C55.4,87.6,63.5,74,63.5,59.3"/>
	<path class="st4" d="M78.7,68.9c-3.4,19.1-3.4,15-18.4,17.7c-9.6,1.7-17.7-12-17.7-26.9c0-14.8,10.9-32.7,19.4-27.9
		C81,42.7,81.3,54.3,78.7,68.9"/>
	<path class="st5" d="M75.5,72.2c-3.1,15.5-3.1,12.1-16.8,14.4C50,88,42.6,76.8,42.6,64.8c0-12,10-26.6,17.7-22.6
		C77.7,51,77.9,60.4,75.5,72.2"/>
	<path class="st5" d="M58.4,38c-4-2.3-8.5,0.6-12.1,5.7c-2.2,4.9-3.7,10.7-3.7,16c0,14.6,7.9,28.1,17.3,26.4c7-1.3,10.6-1,12.9-2.5
		c0.6-2.2,1.2-5.2,1.9-9.3C77.2,60,77,48.6,58.4,38"/>
	<path class="st3" d="M64.7,84.1c0-0.4,0-0.7,0-1.1c-7.5-3.1-15-3.1-22.5,0c0,0.4,0,0.7,0,1.1c0,11.8,5.1,21.3,11.3,21.3
		C59.6,105.5,64.7,95.9,64.7,84.1"/>
	<path class="st6" d="M64.7,84.1c0-0.4,0-0.7,0-1.1c-2.4-1-4.7-1.6-7.1-2c-2.6,0.4-5.1,1.3-7.7,2.7c0,0.5,0,0.9,0,1.4
		c0,7.9,1.3,15.1,3.4,20.2c0,0,0.1,0,0.1,0C59.6,105.5,64.7,95.9,64.7,84.1"/>
	<path class="st6" d="M53.4,30.2c-13.3-0.8-25.5,12.4-21.8,32.1c3.6,19,12.4,27.8,21.8,27.9c9.5,0,18.2-8.8,21.8-27.9
		C78.9,42.6,66.6,29.4,53.4,30.2"/>
	<path class="st6" d="M35.7,68.4c0.8,4.6,0.3,7.6-0.9,8c-1.2,0.4-2.9-1.9-4.1-6.3c-1.3-4.4-1.1-8.8,0.6-9.3
		C32.9,60.2,34.9,63.8,35.7,68.4"/>
	<path class="st6" d="M71.1,68.4c-0.8,4.6-0.3,7.6,0.9,8c1.2,0.4,2.9-1.9,4.1-6.3c1.3-4.4,1.1-8.8-0.6-9.3
		C73.8,60.2,71.8,63.8,71.1,68.4"/>
	<path class="st3" d="M71.8,65.1c-3.2,15.5-11,22.7-19.5,22.7c-8.5,0-16.3-7.2-19.5-22.7C29.5,49.1,40.5,38.3,52.3,39
		C64.1,38.3,75,49.1,71.8,65.1"/>
	<path class="st5" d="M77.3,48.5c-2.8-11.2-12.1-18.1-22.2-18.3c-0.8,2.5-1.2,5.4-1.2,8.3c0,10.8,18.1,9.8,21.8,22.3
		C75.6,60.8,78.5,58.1,77.3,48.5"/>
	<path class="st4" d="M53.4,38.3c-11.2-0.6-21.5,9.1-19.8,23.9c4,1.2,8.5,1.8,13.3,1.8c2,0,3.9-0.1,5.7-0.3l0.5-0.8l4.3-7.2
		l-2.3,7.7c0.5-0.1,0.9-0.2,1.4-0.3l1.2-2l5.9-10.4l4.1,8.1c0,0,3.9-2.1,5.4-3.8C71.3,44.4,62.6,37.8,53.4,38.3"/>
	<path class="st4" d="M29.4,62.6c0,0,0,0.1,0,0.1c2.2,0.4,4.5,0.7,6.9,0.7c16.7,0,30.2-10.7,30.2-23.9c0-2.4-0.5-4.6-1.3-6.8
		c-3.6-2-7.7-2.9-11.9-2.7C38.8,29.2,25.4,42.6,29.4,62.6"/>
	<path class="st5" d="M66.3,42.5c-0.8,2.9-1.7,5.6-2.8,8.2l4.3,8.1c0,0,4.1-2.1,5.8-3.8C72.7,49.7,70,45.4,66.3,42.5"/>
	<path class="st4" d="M68.3,45.6c3.5,2.7,6.5,7.9,7.9,14.3c0.8-1.4,1.9-4.8,1.1-11.5c-1.5-6.1-5-11.5-11.4-15.4
		c0.5,1.4,2.8,4.1,2.9,5.5C69.1,41,68.9,43.4,68.3,45.6"/>
	<path class="st5" d="M76,79.4c0.4-1.7,0.7-3.7,1.2-6.1c2.2-12.1,2.3-22-8.4-31.3c-0.3,0.4-0.6,0.9-0.8,1.4
		c10.5,9.2,11,16.6,8.6,30.9C76.2,76.7,75.7,79.9,76,79.4"/>
</g>
<text transform="matrix(1 0 0 1 19.4756 144.0274)"><tspan x="0" y="0" class="st7 st8 st9">A</tspan><tspan x="7.5" y="0" class="st7 st8 st9">d</tspan><tspan x="14.3" y="0" class="st7 st8 st9">m</tspan><tspan x="24" y="0" class="st7 st8 st9">i</tspan><tspan x="26.1" y="0" class="st7 st8 st9">n</tspan><tspan x="32.1" y="0" class="st7 st8 st9">sit</tspan><tspan x="41.6" y="0" class="st7 st8 st9 st10">r</tspan><tspan x="44.9" y="0" class="st7 st8 st9">a</tspan><tspan x="50.4" y="0" class="st7 st8 st9">c</tspan><tspan x="55.5" y="0" class="st7 st8 st9">i</tspan><tspan x="57.6" y="0" class="st7 st8 st9">รณ</tspan><tspan x="64.1" y="0" class="st7 st8 st9">n</tspan></text>
</svg>
