<?xml version="1.0" encoding="utf-8"?>
<!-- Generator: Adobe Illustrator 22.1.0, SVG Export Plug-In . SVG Version: 6.00 Build 0)  -->
<svg version="1.1" id="Layer_1" xmlns="http://www.w3.org/2000/svg" xmlns:xlink="http://www.w3.org/1999/xlink" x="0px" y="0px"
	 viewBox="0 0 107 155" style="enable-background:new 0 0 107 155;" xml:space="preserve">
<style type="text/css">
	.st0{fill:#5B7E96;}
	.st1{fill:#FFFFFF;}
	.st2{clip-path:url(#SVGID_2_);fill:#2A2E34;}
	.st3{clip-path:url(#SVGID_4_);fill:#DCDAC8;}
	.st4{clip-path:url(#SVGID_6_);fill:#BFBDAD;}
	.st5{clip-path:url(#SVGID_8_);fill:#DCDAC8;}
	.st6{clip-path:url(#SVGID_10_);fill:#DCDAC8;}
	.st7{clip-path:url(#SVGID_12_);fill:#F2EFDC;}
	.st8{clip-path:url(#SVGID_14_);fill:#DCDAC8;}
	.st9{clip-path:url(#SVGID_16_);fill:#2E5972;}
	.st10{clip-path:url(#SVGID_18_);fill:#0E303F;}
	.st11{clip-path:url(#SVGID_20_);fill:#F2EFDC;}
	.st12{fill:#3A5767;}
</style>
<rect x="-0.1" y="-0.1" class="st0" width="107.4" height="125.9"/>
<rect x="-0.1" y="125.8" class="st1" width="107.4" height="29.3"/>
<g>
	<g>
		<g>
			<defs>
				<rect id="SVGID_1_" x="-0.1" y="-0.1" width="107.4" height="125.9"/>
			</defs>
			<clipPath id="SVGID_2_">
				<use xlink:href="#SVGID_1_"  style="overflow:visible;"/>
			</clipPath>
			<path class="st2" d="M52.6,136c17.4,0,33.7-2.8,48.2-7.8l-3.5-30.6c-0.4-3.8-6.5-6.8-14.1-7.3c-20.4-3.7-41-3.7-61.4,0
				c-7.6,0.5-13.6,3.5-14.1,7.3l-3.5,30.6C18.9,133.2,35.2,136,52.6,136"/>
		</g>
	</g>
	<g>
		<g>
			<defs>
				<rect id="SVGID_3_" x="-0.1" y="-0.1" width="107.4" height="125.9"/>
			</defs>
			<clipPath id="SVGID_4_">
				<use xlink:href="#SVGID_3_"  style="overflow:visible;"/>
			</clipPath>
			<path class="st3" d="M65.6,94.6c0,6.8-5.6,12.4-12.4,12.4s-12.4-5.5-12.4-12.4V81.9c0-6.8,5.5-12.4,12.4-12.4
				c6.8,0,12.4,5.5,12.4,12.4V94.6z"/>
		</g>
	</g>
	<g>
		<g>
			<defs>
				<rect id="SVGID_5_" x="-0.1" y="-0.1" width="107.4" height="125.9"/>
			</defs>
			<clipPath id="SVGID_6_">
				<use xlink:href="#SVGID_5_"  style="overflow:visible;"/>
			</clipPath>
			<path class="st4" d="M61.6,102.4c0.2,0.2,0.4,0.4,0.7,0.6c2-2.2,3.3-5.1,3.3-8.4V81.9c0-6.8-5.5-12.4-12.4-12.4
				c-6.7,0-12.2,5.3-12.4,12L61.6,102.4z"/>
		</g>
	</g>
	<g>
		<g>
			<defs>
				<rect id="SVGID_7_" x="-0.1" y="-0.1" width="107.4" height="125.9"/>
			</defs>
			<clipPath id="SVGID_8_">
				<use xlink:href="#SVGID_7_"  style="overflow:visible;"/>
			</clipPath>
			<path class="st5" d="M35,63.5c0.9,5.1,0.3,8.4-1,8.8s-3.2-2.1-4.6-7s-1.2-9.7,0.7-10.3C31.9,54.4,34.2,58.4,35,63.5"/>
		</g>
	</g>
	<g>
		<g>
			<defs>
				<rect id="SVGID_9_" x="-0.1" y="-0.1" width="107.4" height="125.9"/>
			</defs>
			<clipPath id="SVGID_10_">
				<use xlink:href="#SVGID_9_"  style="overflow:visible;"/>
			</clipPath>
			<path class="st6" d="M69.8,64.2c-0.4,5.1,0.4,8.4,1.8,8.7c1.3,0.3,3-2.4,3.9-7.4c1-5,0.3-9.8-1.6-10.2
				C72.1,54.9,70.2,59.1,69.8,64.2"/>
		</g>
	</g>
	<g>
		<g>
			<defs>
				<rect id="SVGID_11_" x="-0.1" y="-0.1" width="107.4" height="125.9"/>
			</defs>
			<clipPath id="SVGID_12_">
				<use xlink:href="#SVGID_11_"  style="overflow:visible;"/>
			</clipPath>
			<path class="st7" d="M52.6,30.5C40,29.6,28.4,44.2,31.9,65.9c1.1,6.5,2.6,12,4.5,16.4c1.7,2.4,3.7,2.8,6.9-4.8
				c0.9-1.7,5.1-3.2,8.9-3.2h0.1h0.5H53c3.9,0,8,1.5,8.9,3.2c3.2,7.5,5.2,7.2,6.9,4.8c1.9-4.4,3.4-9.8,4.5-16.4
				C76.8,44.2,65.2,29.6,52.6,30.5"/>
		</g>
	</g>
	<g>
		<g>
			<defs>
				<rect id="SVGID_13_" x="-0.1" y="-0.1" width="107.4" height="125.9"/>
			</defs>
			<clipPath id="SVGID_14_">
				<use xlink:href="#SVGID_13_"  style="overflow:visible;"/>
			</clipPath>
			<path class="st8" d="M53.1,30.5v43.7c3.9,0,7.9,1.5,8.8,3.2c3.2,7.5,5.2,7.2,6.9,4.8c1.9-4.4,3.4-9.8,4.5-16.4
				C76.7,44.5,65.5,30,53.1,30.5"/>
		</g>
	</g>
	<g>
		<g>
			<defs>
				<rect id="SVGID_15_" x="-0.1" y="-0.1" width="107.4" height="125.9"/>
			</defs>
			<clipPath id="SVGID_16_">
				<use xlink:href="#SVGID_15_"  style="overflow:visible;"/>
			</clipPath>
			<path class="st9" d="M73.5,65c-0.1,1-0.3,2-0.5,2.9c-1.1,4.5-2.6,8.2-4.4,11.3c-1.6,1.7-3.7,1.9-6.8-3.3c-0.9-1.2-5-2.2-8.8-2.2
				h-0.1h-0.5h-0.1c-3.8,0-7.9,1-8.8,2.2c-3.1,5.2-5.2,5-6.8,3.3c-1.9-3-3.4-6.8-4.4-11.3c-0.2-1-0.4-2-0.5-2.9
				c-1,2.8-1.2,6.1-0.3,9.6c3.5,12.6,3.3,18.8,21.2,18.5c19-0.3,17.7-5.9,21.2-18.5C74.7,71.1,74.5,67.9,73.5,65"/>
		</g>
	</g>
	<g>
		<g>
			<defs>
				<rect id="SVGID_17_" x="-0.1" y="-0.1" width="107.4" height="125.9"/>
			</defs>
			<clipPath id="SVGID_18_">
				<use xlink:href="#SVGID_17_"  style="overflow:visible;"/>
			</clipPath>
			<path class="st10" d="M73,67.9c-1.1,4.5-2.6,8.2-4.4,11.3c-1.6,1.7-3.7,1.9-6.8-3.3c-0.9-1.1-4.4-2.1-7.9-2.2v19.4
				c17.7-0.5,16.5-6.1,19.9-18.5c1-3.6,0.8-6.8-0.3-9.6C73.4,66,73.2,67,73,67.9"/>
		</g>
	</g>
	<g>
		<g>
			<defs>
				<rect id="SVGID_19_" x="-0.1" y="-0.1" width="107.4" height="125.9"/>
			</defs>
			<clipPath id="SVGID_20_">
				<use xlink:href="#SVGID_19_"  style="overflow:visible;"/>
			</clipPath>
			<path class="st11" d="M57.2,78.4L57.2,78.4L57.2,78.4L57.2,78.4L57.2,78.4l-9.1-0.1l0,0c0,0-1.7,3.9-1.3,4.8s1.2,1,2.3-0.7
				c0.4-0.6,0.7-1.1,1.1-1.5c0.3,0.1,0.6,0.1,0.9,0.1h3.3c0.3,0,0.6,0,0.9-0.1c0.3,0.4,0.7,0.9,1.1,1.5c1.1,1.7,1.9,1.6,2.3,0.7
				C58.8,82.3,57.4,78.9,57.2,78.4"/>
		</g>
	</g>
</g>
<g>
	<path class="st12" d="M23.7,144.4h-1l3.7-8.5h0.8l3.7,8.5h-1l-0.9-2.2h-4.3L23.7,144.4z M24.9,141.4h3.7l-1.8-4.5L24.9,141.4z"/>
	<path class="st12" d="M31.8,140.5c0-0.2,0-0.5,0-0.8c0-0.3,0-0.6,0-1h0.8v1h0c0.1-0.2,0.1-0.3,0.2-0.4s0.2-0.3,0.4-0.4
		s0.3-0.2,0.5-0.3c0.2-0.1,0.4-0.1,0.7-0.1c0.2,0,0.4,0,0.6,0.1l-0.2,0.8c-0.1,0-0.3-0.1-0.5-0.1c-0.3,0-0.6,0.1-0.8,0.2
		c-0.2,0.1-0.4,0.3-0.5,0.4c-0.1,0.2-0.3,0.4-0.3,0.6s-0.1,0.4-0.1,0.6v3.2h-0.8V140.5z"/>
	<path class="st12" d="M41.1,147.9h-0.8v-4.4h0c-0.1,0.2-0.3,0.4-0.5,0.5c-0.2,0.1-0.4,0.2-0.6,0.3c-0.2,0.1-0.4,0.2-0.6,0.2
		c-0.2,0-0.4,0.1-0.6,0.1c-0.4,0-0.8-0.1-1.2-0.2c-0.4-0.1-0.7-0.4-0.9-0.6c-0.3-0.3-0.5-0.6-0.6-0.9c-0.1-0.4-0.2-0.8-0.2-1.2
		c0-0.4,0.1-0.8,0.2-1.2c0.1-0.4,0.4-0.7,0.6-0.9c0.3-0.3,0.6-0.5,0.9-0.6c0.4-0.1,0.8-0.2,1.2-0.2c0.2,0,0.4,0,0.6,0.1
		c0.2,0,0.4,0.1,0.6,0.2s0.4,0.2,0.6,0.3c0.2,0.1,0.3,0.3,0.5,0.5h0v-0.9h0.8V147.9z M36,141.6c0,0.3,0,0.6,0.1,0.9
		c0.1,0.3,0.2,0.5,0.4,0.7c0.2,0.2,0.4,0.4,0.7,0.5s0.6,0.2,0.9,0.2c0.3,0,0.6-0.1,0.9-0.2c0.3-0.1,0.5-0.3,0.7-0.5
		c0.2-0.2,0.4-0.4,0.5-0.7c0.1-0.3,0.2-0.6,0.2-0.9c0-0.3-0.1-0.6-0.2-0.9c-0.1-0.3-0.3-0.5-0.5-0.7c-0.2-0.2-0.4-0.4-0.7-0.5
		c-0.3-0.1-0.6-0.2-0.9-0.2c-0.3,0-0.6,0.1-0.9,0.2c-0.3,0.1-0.5,0.3-0.7,0.5c-0.2,0.2-0.3,0.4-0.4,0.7C36.1,141,36,141.3,36,141.6z
		"/>
	<path class="st12" d="M46.9,144.4c0-0.2,0-0.3,0-0.5c0-0.1,0-0.3,0-0.5h0c-0.1,0.2-0.2,0.3-0.3,0.4c-0.1,0.1-0.3,0.2-0.5,0.3
		c-0.2,0.1-0.3,0.2-0.5,0.2c-0.2,0.1-0.4,0.1-0.6,0.1c-0.7,0-1.3-0.2-1.6-0.6s-0.5-0.9-0.5-1.6v-3.6h0.8v3.1c0,0.3,0,0.6,0.1,0.8
		c0,0.2,0.1,0.4,0.2,0.6c0.1,0.2,0.3,0.3,0.5,0.4s0.4,0.1,0.7,0.1c0,0,0.2,0,0.3,0c0.2,0,0.4-0.1,0.6-0.3c0.2-0.1,0.4-0.4,0.5-0.6
		c0.2-0.3,0.2-0.7,0.2-1.2v-2.9h0.8v4.4c0,0.2,0,0.3,0,0.6c0,0.2,0,0.5,0,0.7H46.9z"/>
	<path class="st12" d="M50.7,136.6c0,0.2-0.1,0.3-0.2,0.4c-0.1,0.1-0.3,0.2-0.4,0.2c-0.1,0-0.3-0.1-0.4-0.2
		c-0.1-0.1-0.2-0.2-0.2-0.4s0.1-0.3,0.2-0.4c0.1-0.1,0.3-0.2,0.4-0.2c0.1,0,0.3,0.1,0.4,0.2C50.6,136.3,50.7,136.5,50.7,136.6z
		 M50.5,144.4h-0.8v-5.6h0.8V144.4z"/>
	<path class="st12" d="M55.3,139.5h-1.6v3.3c0,0.2,0,0.4,0.1,0.5s0.1,0.2,0.2,0.3c0.1,0.1,0.2,0.1,0.3,0.1c0.1,0,0.2,0,0.3,0
		c0.1,0,0.3,0,0.4-0.1c0.1,0,0.3-0.1,0.4-0.2l0,0.7c-0.3,0.1-0.7,0.2-1.1,0.2c-0.2,0-0.3,0-0.5-0.1c-0.2,0-0.3-0.1-0.5-0.2
		c-0.1-0.1-0.2-0.3-0.3-0.5c-0.1-0.2-0.1-0.4-0.1-0.8v-3.5h-1.2v-0.7h1.2v-1.6h0.8v1.6h1.6V139.5z"/>
	<path class="st12" d="M57,141.8c0,0.3,0.1,0.5,0.2,0.8s0.3,0.5,0.4,0.6c0.2,0.2,0.4,0.3,0.6,0.4c0.2,0.1,0.5,0.2,0.8,0.2
		c0.4,0,0.8-0.1,1.1-0.3c0.3-0.2,0.5-0.4,0.7-0.7l0.6,0.5c-0.3,0.4-0.7,0.7-1.1,0.9c-0.4,0.2-0.8,0.3-1.3,0.3
		c-0.4,0-0.8-0.1-1.2-0.2c-0.4-0.1-0.7-0.4-0.9-0.6c-0.3-0.3-0.5-0.6-0.6-0.9c-0.1-0.4-0.2-0.8-0.2-1.2c0-0.4,0.1-0.8,0.2-1.2
		c0.1-0.4,0.3-0.7,0.6-0.9s0.6-0.5,0.9-0.6c0.3-0.1,0.7-0.2,1.1-0.2c0.4,0,0.8,0.1,1.1,0.2c0.3,0.2,0.6,0.4,0.8,0.6
		c0.2,0.3,0.4,0.5,0.5,0.9s0.2,0.7,0.2,1.1v0.4H57z M60.8,141.2c0-0.5-0.2-1-0.5-1.3s-0.8-0.5-1.3-0.5c-0.3,0-0.5,0-0.7,0.2
		c-0.2,0.1-0.5,0.2-0.6,0.4c-0.2,0.2-0.3,0.4-0.4,0.6c-0.1,0.2-0.2,0.4-0.2,0.7H60.8z"/>
	<path class="st12" d="M67.2,140.1c-0.1-0.2-0.3-0.4-0.6-0.5c-0.2-0.1-0.5-0.2-0.8-0.2c-0.3,0-0.6,0-0.9,0.2s-0.5,0.3-0.7,0.5
		s-0.3,0.4-0.4,0.7c-0.1,0.3-0.1,0.6-0.1,0.9c0,0.3,0,0.6,0.1,0.9s0.2,0.5,0.4,0.7c0.2,0.2,0.4,0.4,0.7,0.5c0.3,0.1,0.6,0.2,0.9,0.2
		c0.3,0,0.6-0.1,0.8-0.2s0.4-0.3,0.6-0.5l0.6,0.5c-0.3,0.3-0.6,0.6-0.9,0.7c-0.4,0.2-0.7,0.2-1.1,0.2c-0.5,0-0.9-0.1-1.2-0.2
		c-0.4-0.1-0.7-0.4-0.9-0.6c-0.3-0.3-0.5-0.6-0.6-0.9c-0.1-0.4-0.2-0.8-0.2-1.2c0-0.4,0.1-0.8,0.2-1.2c0.1-0.4,0.3-0.7,0.6-0.9
		c0.3-0.3,0.6-0.5,0.9-0.6c0.4-0.1,0.8-0.2,1.2-0.2c0.4,0,0.8,0.1,1.1,0.2c0.4,0.2,0.7,0.4,0.9,0.7L67.2,140.1z"/>
	<path class="st12" d="M71.8,139.5h-1.6v3.3c0,0.2,0,0.4,0.1,0.5s0.1,0.2,0.2,0.3c0.1,0.1,0.2,0.1,0.3,0.1c0.1,0,0.2,0,0.3,0
		c0.1,0,0.3,0,0.4-0.1c0.1,0,0.3-0.1,0.4-0.2l0,0.7c-0.3,0.1-0.7,0.2-1.1,0.2c-0.2,0-0.3,0-0.5-0.1c-0.2,0-0.3-0.1-0.5-0.2
		c-0.1-0.1-0.2-0.3-0.3-0.5c-0.1-0.2-0.1-0.4-0.1-0.8v-3.5h-1.2v-0.7h1.2v-1.6h0.8v1.6h1.6V139.5z"/>
	<path class="st12" d="M76.9,144.4c0-0.2,0-0.3,0-0.5c0-0.1,0-0.3,0-0.5h0c-0.1,0.2-0.2,0.3-0.3,0.4c-0.1,0.1-0.3,0.2-0.5,0.3
		c-0.2,0.1-0.3,0.2-0.5,0.2c-0.2,0.1-0.4,0.1-0.6,0.1c-0.7,0-1.3-0.2-1.6-0.6s-0.5-0.9-0.5-1.6v-3.6h0.8v3.1c0,0.3,0,0.6,0.1,0.8
		c0,0.2,0.1,0.4,0.2,0.6c0.1,0.2,0.3,0.3,0.5,0.4c0.2,0.1,0.4,0.1,0.7,0.1c0,0,0.2,0,0.3,0c0.2,0,0.4-0.1,0.6-0.3
		c0.2-0.1,0.4-0.4,0.5-0.6s0.2-0.7,0.2-1.2v-2.9h0.8v4.4c0,0.2,0,0.3,0,0.6c0,0.2,0,0.5,0,0.7H76.9z"/>
	<path class="st12" d="M79.6,140.5c0-0.2,0-0.5,0-0.8c0-0.3,0-0.6,0-1h0.8v1h0c0.1-0.2,0.1-0.3,0.2-0.4c0.1-0.1,0.2-0.3,0.4-0.4
		c0.1-0.1,0.3-0.2,0.5-0.3c0.2-0.1,0.4-0.1,0.7-0.1c0.2,0,0.4,0,0.6,0.1l-0.2,0.8c-0.1,0-0.3-0.1-0.5-0.1c-0.3,0-0.6,0.1-0.8,0.2
		s-0.4,0.3-0.5,0.4c-0.1,0.2-0.2,0.4-0.3,0.6c-0.1,0.2-0.1,0.4-0.1,0.6v3.2h-0.8V140.5z"/>
	<path class="st12" d="M87.1,141v-0.1c0-1-0.5-1.5-1.4-1.5c-0.7,0-1.2,0.2-1.7,0.7l-0.5-0.6c0.5-0.5,1.3-0.8,2.4-0.8
		c0.3,0,0.5,0,0.8,0.1s0.5,0.2,0.7,0.4c0.2,0.2,0.3,0.4,0.4,0.6s0.2,0.5,0.2,0.9v2.5c0,0.2,0,0.4,0,0.7c0,0.2,0,0.4,0.1,0.6h-0.8
		c0-0.1,0-0.3-0.1-0.4c0-0.2,0-0.3,0-0.5h0c-0.2,0.4-0.5,0.6-0.8,0.8c-0.3,0.2-0.7,0.2-1.2,0.2c-0.2,0-0.5,0-0.7-0.1
		c-0.2-0.1-0.4-0.2-0.6-0.3c-0.2-0.1-0.3-0.3-0.4-0.5c-0.1-0.2-0.2-0.4-0.2-0.7c0-0.5,0.1-0.8,0.4-1.1c0.2-0.3,0.5-0.5,0.9-0.6
		c0.4-0.1,0.7-0.2,1.1-0.2c0.4,0,0.8,0,1.1,0H87.1z M86.7,141.6c-0.2,0-0.4,0-0.8,0c-0.3,0-0.6,0.1-0.9,0.1
		c-0.3,0.1-0.5,0.2-0.7,0.4c-0.2,0.2-0.3,0.4-0.3,0.7c0,0.2,0,0.3,0.1,0.5s0.2,0.2,0.3,0.3s0.3,0.1,0.4,0.2s0.3,0.1,0.5,0.1
		c0.3,0,0.5,0,0.8-0.1c0.2-0.1,0.4-0.2,0.5-0.4c0.1-0.2,0.2-0.4,0.3-0.6c0.1-0.2,0.1-0.5,0.1-0.7v-0.4H86.7z"/>
</g>
</svg>
