<?xml version="1.0" encoding="utf-8"?>
<!-- Generator: Adobe Illustrator 22.1.0, SVG Export Plug-In . SVG Version: 6.00 Build 0)  -->
<svg version="1.1" id="Layer_1" xmlns="http://www.w3.org/2000/svg" xmlns:xlink="http://www.w3.org/1999/xlink" x="0px" y="0px"
	 viewBox="0 0 107 155" style="enable-background:new 0 0 107 155;" xml:space="preserve">
<style type="text/css">
	.st0{fill:#5B7E96;}
	.st1{fill:#FFFFFF;}
	.st2{clip-path:url(#SVGID_2_);fill:#2A2E34;}
	.st3{clip-path:url(#SVGID_2_);fill:#DCDAC8;}
	.st4{clip-path:url(#SVGID_2_);fill:#BFBDAD;}
	.st5{clip-path:url(#SVGID_2_);fill:#F2EFDC;}
	.st6{clip-path:url(#SVGID_2_);fill:#2E5972;}
	.st7{clip-path:url(#SVGID_2_);fill:#0E303F;}
	.st8{fill:#3A5767;}
	.st9{font-family:'AvenirNext-Regular';}
	.st10{font-size:12px;}
	.st11{letter-spacing:-1;}
</style>
<rect x="-0.1" y="-0.1" class="st0" width="107.4" height="125.9"/>
<rect x="-0.1" y="125.8" class="st1" width="107.4" height="29.3"/>
<g>
	<defs>
		<rect id="SVGID_1_" x="-0.1" y="-0.1" width="107.4" height="125.9"/>
	</defs>
	<clipPath id="SVGID_2_">
		<use xlink:href="#SVGID_1_"  style="overflow:visible;"/>
	</clipPath>
	<path class="st2" d="M52.6,136c17.4,0,33.7-2.8,48.2-7.8l-3.5-30.6c-0.4-3.8-6.5-6.8-14.1-7.3c-20.4-3.7-41-3.7-61.4,0
		c-7.6,0.5-13.6,3.5-14.1,7.3l-3.5,30.6C18.9,133.2,35.2,136,52.6,136"/>
	<path class="st3" d="M65.6,94.6c0,6.8-5.6,12.4-12.4,12.4c-6.8,0-12.4-5.5-12.4-12.4V81.9c0-6.8,5.5-12.4,12.4-12.4
		c6.8,0,12.4,5.5,12.4,12.4V94.6z"/>
	<path class="st4" d="M61.6,102.4c0.2,0.2,0.4,0.4,0.7,0.6c2-2.2,3.3-5.1,3.3-8.4V81.9c0-6.8-5.5-12.4-12.4-12.4
		c-6.7,0-12.2,5.3-12.4,12L61.6,102.4z"/>
	<path class="st3" d="M35,63.5c0.9,5.1,0.3,8.4-1,8.8c-1.3,0.4-3.2-2.1-4.6-7c-1.4-4.9-1.2-9.7,0.7-10.3
		C31.9,54.4,34.2,58.4,35,63.5"/>
	<path class="st3" d="M69.8,64.2c-0.4,5.1,0.4,8.4,1.8,8.7c1.3,0.3,3-2.4,3.9-7.4c1-5,0.3-9.8-1.6-10.2
		C72.1,54.9,70.2,59.1,69.8,64.2"/>
	<path class="st5" d="M52.6,30.5C40,29.6,28.4,44.2,31.9,65.9c1.1,6.5,2.6,12,4.5,16.4c1.7,2.4,3.7,2.8,6.9-4.8
		c0.9-1.7,5.1-3.2,8.9-3.2h0.1h0.5H53c3.9,0,8,1.5,8.9,3.2c3.2,7.5,5.2,7.2,6.9,4.8c1.9-4.4,3.4-9.8,4.5-16.4
		C76.8,44.2,65.2,29.6,52.6,30.5"/>
	<path class="st3" d="M53.1,30.5v43.7c3.9,0,7.9,1.5,8.8,3.2c3.2,7.5,5.2,7.2,6.9,4.8c1.9-4.4,3.4-9.8,4.5-16.4
		C76.7,44.5,65.5,30,53.1,30.5"/>
	<path class="st6" d="M73.5,65C73.4,66,73.2,67,73,67.9c-1.1,4.5-2.6,8.2-4.4,11.3c-1.6,1.7-3.7,1.9-6.8-3.3c-0.9-1.2-5-2.2-8.8-2.2
		h-0.1h-0.5h-0.1c-3.8,0-7.9,1-8.8,2.2c-3.1,5.2-5.2,5-6.8,3.3c-1.9-3-3.4-6.8-4.4-11.3c-0.2-1-0.4-2-0.5-2.9
		c-1,2.8-1.2,6.1-0.3,9.6c3.5,12.6,3.3,18.8,21.2,18.5c19-0.3,17.7-5.9,21.2-18.5C74.7,71.1,74.5,67.9,73.5,65"/>
	<path class="st7" d="M73,67.9c-1.1,4.5-2.6,8.2-4.4,11.3c-1.6,1.7-3.7,1.9-6.8-3.3c-0.9-1.1-4.4-2.1-7.9-2.2v19.4
		c17.7-0.5,16.5-6.1,19.9-18.5c1-3.6,0.8-6.8-0.3-9.6C73.4,66,73.2,67,73,67.9"/>
	<path class="st5" d="M57.2,78.4C57.2,78.4,57.2,78.4,57.2,78.4L57.2,78.4L57.2,78.4L57.2,78.4l-9.1-0.1l0,0c0,0-1.7,3.9-1.3,4.8
		c0.4,0.9,1.2,1,2.3-0.7c0.4-0.6,0.7-1.1,1.1-1.5c0.3,0.1,0.6,0.1,0.9,0.1h3.3c0.3,0,0.6,0,0.9-0.1c0.3,0.4,0.7,0.9,1.1,1.5
		c1.1,1.7,1.9,1.6,2.3,0.7C58.8,82.3,57.4,78.9,57.2,78.4"/>
</g>
<text transform="matrix(1 0 0 1 25.0801 144.0274)"><tspan x="0" y="0" class="st8 st9 st10">A</tspan><tspan x="7.5" y="0" class="st8 st9 st10 st11">r</tspan><tspan x="10.7" y="0" class="st8 st9 st10">q</tspan><tspan x="17.4" y="0" class="st8 st9 st10">uite</tspan><tspan x="34.5" y="0" class="st8 st9 st10">c</tspan><tspan x="39.6" y="0" class="st8 st9 st10">tu</tspan><tspan x="48.6" y="0" class="st8 st9 st10 st11">r</tspan><tspan x="51.9" y="0" class="st8 st9 st10">a</tspan><tspan x="57.4" y="0" class="st8 st9 st10"> </tspan></text>
</svg>
