<?xml version="1.0" encoding="utf-8"?>
<!-- Generator: Adobe Illustrator 22.1.0, SVG Export Plug-In . SVG Version: 6.00 Build 0)  -->
<svg version="1.1" id="Layer_1" xmlns="http://www.w3.org/2000/svg" xmlns:xlink="http://www.w3.org/1999/xlink" x="0px" y="0px"
	 viewBox="0 0 1080 813" style="enable-background:new 0 0 1080 813;" xml:space="preserve">
<style type="text/css">
	.st0{fill:#415364;}
</style>
<path class="st0" d="M831.9,310.8c-3.8,3.1-9.3,2.6-12.5-1.1l-30.9-37c-3.2-3.8-2.6-9.4,1.1-12.5c3.8-3.1,9.3-2.6,12.5,1.1l30.9,37
	C836.2,302.1,835.7,307.7,831.9,310.8"/>
<path class="st0" d="M785.4,306.7c-3.1-3.8-2.6-9.4,1.1-12.5l37-30.9c3.7-3.2,9.3-2.7,12.5,1.1c3.1,3.8,2.6,9.4-1.1,12.5l-37,30.9
	C794.2,311,788.6,310.5,785.4,306.7"/>
<path class="st0" d="M924.9,287.2c-2.4,2-6,1.7-8.1-0.7l-20-24c-2.1-2.5-1.8-6.1,0.7-8.1c2.4-2,6.1-1.7,8.1,0.7l20.1,24
	C927.7,281.6,927.3,285.2,924.9,287.2"/>
<path class="st0" d="M894.7,284.6c-2.1-2.5-1.8-6.1,0.7-8.1l24-20.1c2.4-2,6.1-1.7,8.1,0.7c2,2.4,1.7,6.1-0.7,8.1l-24,20.1
	C900.4,287.3,896.8,287,894.7,284.6"/>
<path class="st0" d="M755.6,116.3c-3.2,0.3-6-2-6.3-5.2L746.5,80c-0.3-3.2,2-6,5.2-6.3c3.2-0.3,6,2,6.3,5.2l2.9,31.1
	C761.1,113.2,758.8,116,755.6,116.3"/>
<path class="st0" d="M732.3,97c-0.3-3.2,2.1-6,5.2-6.3l31.1-2.9c3.2-0.3,6,2.1,6.3,5.2c0.3,3.2-2,6-5.2,6.3l-31.1,2.8
	C735.4,102.5,732.6,100.1,732.3,97"/>
<path class="st0" d="M892.4,139.7c-3.2-0.1-5.6-2.8-5.5-6l1.3-31.2c0.2-3.2,2.8-5.7,6-5.5c3.2,0.1,5.6,2.8,5.5,6l-1.3,31.3
	C898.2,137.3,895.5,139.8,892.4,139.7"/>
<path class="st0" d="M871.9,117.4c0.2-3.2,2.8-5.7,6-5.5l31.2,1.3c3.2,0.1,5.6,2.8,5.5,6c-0.1,3.2-2.8,5.7-6,5.5l-31.2-1.3
	C874.2,123.3,871.8,120.6,871.9,117.4"/>
<path class="st0" d="M960.9,234.2c-3.9,0.4-7.4-2.4-7.8-6.3l-4.3-38.2c-0.4-3.9,2.4-7.4,6.3-7.8c3.9-0.4,7.4,2.4,7.8,6.3l4.3,38.3
	C967.6,230.3,964.8,233.8,960.9,234.2"/>
<path class="st0" d="M931.8,211c-0.5-3.9,2.3-7.4,6.2-7.8l38.3-4.3c3.9-0.4,7.4,2.4,7.8,6.3c0.5,3.9-2.3,7.4-6.2,7.8l-38.3,4.3
	C935.7,217.7,932.3,214.9,931.8,211"/>
<path class="st0" d="M850.6,472.9c-3,2.5-7.5,2.1-10-0.9l-24.7-29.5c-2.5-3-2.1-7.5,0.9-10c3-2.5,7.5-2.1,10,0.9l24.7,29.5
	C854,466,853.5,470.4,850.6,472.9"/>
<path class="st0" d="M813.5,469.7c-2.5-3-2.1-7.5,0.9-10l29.5-24.7c3-2.5,7.4-2.1,10,0.9c2.5,3,2.1,7.5-0.9,10l-29.5,24.7
	C820.4,473,816,472.7,813.5,469.7"/>
<path class="st0" d="M1024.8,337.8c-2.4,2-6.1,1.7-8.1-0.7l-20-23.9c-2.1-2.4-1.8-6,0.7-8.1c2.4-2,6-1.7,8.1,0.7l20,23.9
	C1027.6,332.1,1027.2,335.7,1024.8,337.8"/>
<path class="st0" d="M994.7,335.1c-2-2.5-1.7-6.1,0.7-8.1l23.9-20c2.4-2,6.1-1.7,8.1,0.7c2,2.4,1.7,6.1-0.7,8.1l-23.9,20
	C1000.4,337.9,996.8,337.5,994.7,335.1"/>
<path class="st0" d="M687.6,50.9c0,3.2-2.5,5.8-5.7,5.8l-31.2,0.4c-3.2,0.1-5.8-2.5-5.8-5.6c0-3.2,2.5-5.8,5.7-5.8l31.2-0.4
	C684.9,45.2,687.5,47.7,687.6,50.9"/>
<path class="st0" d="M666.5,72.5c-3.2,0-5.8-2.5-5.8-5.7l-0.4-31.2c-0.1-3.2,2.5-5.8,5.6-5.8c3.2,0,5.8,2.5,5.9,5.7l0.4,31.2
	C672.2,69.9,669.7,72.4,666.5,72.5"/>
<path class="st0" d="M879.4,201.3c-0.8,3.1-4,4.8-7.1,4l-30-8.4c-3.1-0.8-4.8-4-4-7.1c0.8-3.1,4-4.8,7.1-4l30,8.4
	C878.5,195.1,880.3,198.3,879.4,201.3"/>
<path class="st0" d="M853.1,216.1c-3-0.9-4.8-4-4-7.1l8.5-30c0.8-3.1,4-4.8,7.1-4c3,0.9,4.8,4,4,7.1l-8.4,30
	C859.3,215.2,856.2,217,853.1,216.1"/>
<path class="st0" d="M867,533.5c-2.4,2-6,1.7-8.1-0.7l-20.1-23.9c-2-2.4-1.7-6,0.7-8.1c2.4-2,6.1-1.7,8.1,0.7l20,23.9
	C869.8,527.9,869.5,531.5,867,533.5"/>
<path class="st0" d="M837,530.9c-2-2.4-1.8-6.1,0.7-8.1l23.9-20c2.4-2.1,6-1.7,8.1,0.7c2,2.4,1.7,6.1-0.7,8.1l-24,20
	C842.7,533.7,839,533.3,837,530.9"/>
<path class="st0" d="M924.8,446.3c-2.4,2-6.1,1.7-8.1-0.7l-20-23.9c-2.1-2.4-1.8-6.1,0.7-8.1c2.4-2,6-1.7,8.1,0.7l20,23.9
	C927.6,440.6,927.2,444.3,924.8,446.3"/>
<path class="st0" d="M894.7,443.6c-2.1-2.4-1.8-6.1,0.7-8.1l23.9-20c2.4-2,6-1.7,8.1,0.7c2,2.4,1.7,6.1-0.7,8.1l-23.9,20
	C900.4,446.4,896.8,446.1,894.7,443.6"/>
<path class="st0" d="M793.9,156.2c4.8,2,6.9,7.5,4.9,12.3l-20,46.6c-2,4.7-7.5,6.9-12.2,4.9c-4.8-2-6.9-7.5-4.9-12.3l20-46.6
	C783.7,156.4,789.2,154.2,793.9,156.2"/>
<path class="st0" d="M812.1,201.8c-2.1,4.7-7.6,6.9-12.3,4.9l-46.6-20c-4.7-2-6.9-7.5-4.8-12.3c2-4.7,7.5-6.9,12.2-4.9l46.6,20
	C811.9,191.6,814.1,197,812.1,201.8"/>
<path class="st0" d="M838.6,404.6c-4.7,2.1-10.2,0-12.2-4.8l-20.5-46.4c-2.1-4.7,0.1-10.2,4.8-12.3c4.7-2.1,10.2,0,12.3,4.8
	l20.5,46.4C845.5,397,843.4,402.5,838.6,404.6"/>
<path class="st0" d="M792.9,386.9c-2.1-4.7,0-10.3,4.8-12.3l46.4-20.5c4.7-2.1,10.2,0,12.3,4.8c2.1,4.7,0,10.2-4.8,12.3l-46.4,20.5
	C800.5,393.7,795,391.6,792.9,386.9"/>
<path class="st0" d="M935.4,333.9c1.9,2.5,1.5,6.1-1,8.1l-24.6,19.2c-2.6,1.9-6.2,1.5-8.1-1c-2-2.5-1.5-6.1,1-8.1l24.7-19.1
	C929.8,330.9,933.5,331.4,935.4,333.9"/>
<path class="st0" d="M931.6,363.8c-2.5,2-6.1,1.5-8.1-1l-19.1-24.6c-2-2.5-1.5-6.1,1-8.1c2.5-1.9,6.1-1.5,8.1,1l19.1,24.7
	C934.6,358.3,934.2,361.9,931.6,363.8"/>
<path class="st0" d="M762.2,267.8c-1.4-4.6-4.8-8.1-10.1-10.7c-5.1-2.1-10.4-4-16-5.9c-1-4.7-1.9-9.3-2.9-13.8
	c-2.6-9.7-17.2-16.4-20.4-11.2c-0.8,1.3-0.6,2.8-0.4,3.7c1.1,5,2.1,10.2,3.2,15.4c-6.1-1.5-12.4-2.9-18.9-4.2
	c-1.7-0.2-4.1-0.4-6.1,0.6c-6.9,3.4-3.3,17.2,10.4,20c6.4,0.8,12.6,1.6,18.6,2.6c1,4.7,2,9.5,3.1,14.4c0.2,0.9,0.4,1.7,0.5,2.6
	c1.9,7.2,7.9,9.8,11.1,10.3c4.2,0.6,9.7-1.6,8.6-8.3c-0.2-0.8-0.3-1.5-0.5-2.3c-1-4.3-1.9-8.6-2.7-12.8c5.4,1.2,10.7,2.6,15.6,4
	C762,273.6,762.4,270.4,762.2,267.8"/>
<path class="st0" d="M749.1,432.8c-2.4,4.6-1.9,8-1.7,9.1c1.2,5.2,2.3,10.2,3.3,15.2c-4.9,4-10.1,7.9-15.5,11.8
	c-1.8,1.5-6.6,5.5-7.7,12.3c-0.9,5.7,2.3,12.9,11.7,6.4c5.4-4.4,10.4-8.8,15.2-13.3c1,4.8,2,9.5,3,14.1c1.6,5.5,6.5,2.3,8.9-0.2
	c3.2-3.4,7.6-11.2,6.7-17.1c-0.9-4.1-1.8-8.3-2.7-12.6c4.2-4.6,8.2-9.2,11.8-13.8c3.7-5.2,5.3-9.9,4.8-14.4
	c-0.7-2.1-2.3-4.4-7.7,0.8c-3.7,4.1-7.8,8.1-12.1,12.2c-1-4.5-2-9-3-13.6C762,422.2,753.1,425.3,749.1,432.8"/>
<path class="st0" d="M577.9,195.2c-5.6,4.3-2.1,16.9,13.7,20c7.8,1,15.5,2.1,23,3.3c1.3,6.1,2.6,12.3,3.9,18.7
	c2.2,8.1,9.7,11.7,13.8,12.5c5.4,1.1,12.6-0.8,11.4-8.7c-1.3-6-2.5-11.8-3.6-17.4c7,1.6,13.9,3.4,20.6,5.4c7,1.5,10-0.1,9.6-5.1
	c-1.8-5.6-6.2-9.7-13.4-12.8c-6.8-2.4-13.7-4.6-20.9-6.7c-1.1-5.3-2.2-10.5-3.2-15.4c-3.2-11.3-22.4-17.7-25.7-11
	c-0.6,1.2-0.5,2.2-0.3,3.3c1.1,5.3,2.3,10.9,3.5,16.6c-7.6-1.7-15.3-3.1-23.2-4.4C584.2,193.3,580.8,193,577.9,195.2"/>
<path class="st0" d="M644.1,461.4c7-3,13.7-6.1,20.3-9.2c1.4,6.6,2.8,13.1,4.2,19.5c2.2,7.8,8.7,7,12.3,5.2
	c4.7-2.3,10.8-9.2,9.5-17.5c-1.3-6-2.6-12-3.9-18.1c6-3.2,11.9-6.3,17.4-9.5c5.7-3.9,8.1-8.9,7.4-15.2c-1.8-5.6-5.7-7.3-11.8-5.1
	c-5.7,2.7-11.6,5.4-17.8,8c-1.3-6.3-2.7-12.6-4.1-19.1c-2.9-10.9-15.9-10.5-21.1-1.7c-2.5,4.3-1.9,8-1.6,9.6
	c1.5,6.9,2.9,13.7,4.4,20.5c-6.6,2.6-13.5,5.3-20.6,7.9c-2.8,1.4-5.6,2.7-8.1,7C626,452.3,629.9,466,644.1,461.4"/>
<path class="st0" d="M714,627.4c4.8-5.6,9.8-13.8,9.5-17.2c-0.6-2.4-1.2-5.1-1.8-7.9c5.3-6.7,10.3-13.6,15.1-20.6
	c4.8-7.5,7.1-13.2,7-17c-1.2-2.2-4.1,0-9.2,6.9c-4.8,6.8-9.9,13.4-15.2,19.8c-0.7-3.3-1.5-6.8-2.3-10.5c-1.9-5.8-13,3.4-17.9,13.2
	c-2.3,4.7-2,7-1.9,8c0.9,4,1.7,7.8,2.5,11.3c-5.9,6.1-12.1,12-18.4,17.8c-8.5,8.2-9.8,13.2-10,14.9c-0.2,2.4,1.6,7,12.7-2.7
	c6.4-5.9,12.4-12.1,18.3-18.4c0.7,3,1.3,5.9,1.9,8.5C705.3,636.4,711.1,630.8,714,627.4"/>
<path class="st0" d="M495,134.7c-3.3,0-7.1,0.1-10.3,2.4c-7.1,5-2.4,16.2,14.6,17.9c8.8,0.3,17.5,0.8,26,1.6
	c1.2,5.9,2.5,12,3.8,18.3c2.2,7.9,10.8,11.3,15.6,12c6.4,1,14.9-1.3,13.7-9.2c-1.3-6.1-2.5-11.9-3.6-17.5c8.3,1.3,16.4,2.8,24.4,4.5
	c8.5,1.3,12.3-0.6,12-5.8c-2-5.6-7.1-9.6-15.7-12.3c-8.1-2-16.3-3.8-24.6-5.3c-1-5.2-2.1-10.2-3.1-14.9
	c-3.1-10.6-25.2-14.9-29.3-8.2c-0.7,1.2-0.6,2.2-0.5,3.2c1,5,2.1,10.1,3.2,15.5C512.6,135.9,503.9,135.2,495,134.7"/>
<path class="st0" d="M639,385.1c-2.4-7.6-7.4-10.8-15.3-9.8c-7.3,1.6-14.7,3.3-22.4,5c-1.7-7.8-3.3-15.6-5-23.5
	c-3.8-14.3-20.8-15.3-26.4-4.7c-2.2,4.1-1.6,7.9-1.3,9.7c1.8,8.2,3.5,16.4,5.2,24.6c-8,1.8-16.2,3.6-24.5,5.4
	c-3.2,1.1-6.6,2.2-9.4,6.6c-5.5,8.6-1.5,25.1,15.7,22.5c8.3-2.1,16.4-4.2,24.3-6.2c1.7,8,3.4,16,5.2,23.9
	c2.6,9.7,10.7,10.7,15.1,9.7c5.9-1.3,13.5-7.8,11.8-18c-1.7-7.6-3.3-15.2-4.9-22.9c7.6-2.1,15-4.1,22.2-6.2
	C636.7,398.3,639.9,393,639,385.1"/>
<path class="st0" d="M591.3,651.6c-1.7,5.6,2.1,12.5,15.6,6.2c7.8-4.2,15.4-8.7,22.9-13.3c1,4.9,2.1,9.6,3.1,14
	c1.7,5.3,9.3,2.1,13-0.3c5.5-3.5,12.7-11.1,12-17.2c-0.9-4.3-1.9-8.7-3-13.4c6.9-5,13.7-10.3,20.1-15.7c6.8-6.2,9.8-11.9,9.4-17.4
	c-1.8-4.4-5.9-4.1-13,0.9c-6.5,5.2-13.3,10.1-20.3,14.9c-1.1-5.1-2.3-10.5-3.5-16c-2.8-9.6-18.3-3.4-23.9,7.3
	c-2.2,4.2-1.7,6.9-1.6,8.2c1.3,5.8,2.5,11.3,3.7,16.7c-7.5,4.4-15.1,8.7-23,12.7C600.2,640.8,593.4,644.9,591.3,651.6"/>
<path class="st0" d="M387,98.8c-4.4,4.7-0.8,12.5,16.2,11.5c9.3-1.1,18.5-1.8,27.8-2.3c1,5,2.1,10.3,3.2,15.7
	c2,6.9,11.3,8.9,16.4,9.1c7,0.2,16.3-2.8,15.5-9.9c-1.2-5.4-2.2-10.5-3.2-15.4c9,0.2,18,0.6,26.8,1.4c9.4,0.3,13.8-1.8,13.8-6.4
	c-1.9-4.9-7.5-7.9-17-9.3c-8.9-0.9-17.9-1.4-26.9-1.7c-0.9-4.3-1.7-8.4-2.5-12.2c-2.8-8.9-28.3-8.4-31.7-2.1c-0.4,0.8-0.4,1.5-0.3,2
	c0.8,3.9,1.7,8,2.6,12.4c-9.2,0.4-18.5,1.1-27.8,2.1C397,94.1,390.5,95.1,387,98.8"/>
<path class="st0" d="M456.8,365.1c9.1-1.8,18.2-3.6,27.1-5.3c1.9,8.9,3.8,17.7,5.7,26.6c2.9,11,12.2,12.9,17.1,12.4
	c6.8-0.8,15.4-7.1,13.5-18.7c-1.8-8.6-3.7-17.4-5.5-26.1c8.6-1.6,17.2-3.1,25.6-4.5c8.8-2.5,12.5-7.9,11.5-17.1
	c-2.8-8.9-8.6-13-17.8-12.7c-8.5,1.2-17,2.4-25.8,3.8c-1.5-7.1-3-14.3-4.6-21.4c-0.3-1.6-0.6-3.2-1-4.8
	c-4.1-15.4-23.1-17.1-29.5-5.8c-2.5,4.3-1.8,8.4-1.5,10.3c0.4,1.6,0.7,3.3,1.1,4.9c1.5,7.3,3.1,14.5,4.6,21.8
	c-8.9,1.6-18,3.2-27.2,4.9c-3.6,1.1-7.2,2.1-10.4,6.8C433.8,349.2,438.2,366.9,456.8,365.1"/>
<path class="st0" d="M532.8,587.5c1.6,7.2,3.1,14.3,4.6,21.2c-8.6,2.9-17.5,5.7-26.4,8.3c-2.6,1-8.9,3.3-11.9,9
	c-3.9,7.3,0.5,18.3,17.1,14.7c8.9-2.7,17.7-5.5,26.4-8.5c1.4,6.5,2.8,12.7,4.1,18.8c2.2,7.4,10.9,6.8,15.7,5.2
	c6.5-2.1,15.1-8.8,13.8-17c-1.3-5.9-2.7-12.1-4.1-18.4c8.2-3.5,16.4-7.1,24.2-10.9c8.2-4.7,11.9-10.5,11.3-17.7
	c-2.3-6.4-7.6-7.9-16.1-4.8c-8,3.6-16.1,7-24.4,10.3c-1.5-6.8-3-13.7-4.5-20.8c-3.6-12.6-21.7-9.9-28.1,1.2
	C532.1,582.5,532.6,585.9,532.8,587.5"/>
<path class="st0" d="M622.5,726.2c-7.7,4.9-15.5,9.4-23.6,13.7c-0.3-0.9-0.6-2.1-0.9-3.7c-2.4-4.1-28.5,10.6-29,13.5
	c0,0.1,0,0.2,0,0.3c0.4,1.6,0.7,2.9,1,3.8c-8.5,3.6-17.2,7-26.1,10c-13.5,4.7-14.2,5.5-14.9,6.4c3.3-0.5,9.7-2.5,15.5-4.5
	c8.9-3,17.5-6.4,26.1-10c0,0,0,0,0,0c1.3-0.6,2.7-1.3,4.1-1.9c5.1-2.3,10.1-4.6,15.1-7.1c3.5-1.7,6.8-3.3,9.8-4.9c0,0,0,0-0.1,0
	c8.1-4.3,15.9-8.9,23.6-13.8c10.7-6.9,11.9-8.3,13-9.3C635.1,718.7,630.8,721.1,622.5,726.2"/>
<path class="st0" d="M290,90.1c-2.2,3.4,0.2,7.6,15.7,3c8.8-3,17.8-5.7,27-8.1c0.7,3.6,1.5,7.4,2.3,11.6c1.6,5,10.9,4.9,16.1,3.9
	c7.2-1.2,17-5.5,16.5-11.1c-0.8-4.1-1.6-8-2.3-11.6c9.4-1.7,18.8-3,28.1-4c9.8-1.4,14.8-3.8,15.1-7.3c-1.7-3.4-7.4-4.7-17.3-4
	c-9.4,1-18.7,2.3-28.1,3.9c-0.6-2.9-1.1-5.5-1.5-7.9c-2.4-5.7-30.2,2-32.5,6.3c-0.1,0.2-0.2,0.6-0.1,0.9c0.4,2.3,0.9,4.9,1.5,7.8
	c-9.2,2.4-18.2,5.2-27.1,8.2C300.8,82.8,292.8,85.9,290,90.1"/>
<path class="st0" d="M451.1,271.5c-2.9-8.9-9.1-12.8-19.1-12.1c-9.2,1.5-18.5,3.2-27.8,5.1c-1.8-8.4-3.5-16.5-5.2-24.5
	c-3.9-14.2-23.8-13.9-30.8-2.6c-2.6,4.3-2.1,7.9-1.8,9.7c1.6,8,3.4,16.1,5.1,24.5c-9.3,2.2-18.3,4.4-27.3,6.9
	c-3.4,1.3-7.1,2.6-10.1,7.3c-5.8,8.7-1.6,25.3,16.4,22.5c9-2.3,18.1-4.5,27.3-6.7c1.6,7.5,3.2,15.1,4.9,22.8
	c0.2,1.4,0.6,2.7,0.8,4.1c3,11.2,12.7,13.2,18,12.6c7.2-0.8,16.6-7.5,14.7-19.6c-0.3-1.3-0.6-2.7-0.9-4.1
	c-1.6-7.7-3.2-15.3-4.8-22.8c9.3-1.9,18.6-3.6,27.8-5.2C447.9,286.6,452.1,280.8,451.1,271.5"/>
<path class="st0" d="M513.6,563.5c-2.7-8-8.8-11-18.6-9.3c-9,2.4-18.2,4.6-27.5,6.8c-1.7-7.9-3.4-16-5.2-24.1
	c-4-14.6-24-14.4-31-2.9c-2.6,4.3-2,8.1-1.7,9.8c1.7,8.2,3.5,16.2,5.2,24.1c-9.3,1.8-18.6,3.4-27.7,4.9c-3.6,0.9-7.3,1.8-10.4,5.7
	c-6.1,7.5-2.4,22.4,16.3,21.2c9.2-1.4,18.4-2.9,27.8-4.7c1.6,7.6,3.3,15,4.8,22.3c2.5,9,12.1,10.3,17.4,9.6
	c7.2-0.9,16.8-6.6,15.3-16.5c-1.6-7.3-3.2-14.7-4.9-22.3c9.3-2.1,18.4-4.5,27.5-6.9C510.2,577.8,514.4,572,513.6,563.5"/>
<path class="st0" d="M554.2,747.5c-1.6-2.4-6.8-2.2-16.5,0.7c-8.9,2.9-18,5.5-27.2,7.9c-0.7-2.9-1.4-6.1-2.2-9.6
	c-2.8-7.6-29.1-1.7-32.4,4.8c-0.4,0.8-0.4,1.4-0.3,2c0.8,3.5,1.5,6.7,2.2,9.6c-9.4,1.5-18.7,2.7-28,3.6c-2.8,0.3-11.4,1.3-14.3,4
	c-2.4,2.2,0,5.7,16.3,4.8c9.4-0.8,18.7-2,28.1-3.5c0.5,2.1,0.9,3.9,1.3,5.3c1.1,1.7,10.1,0.4,15.3-0.6c7.1-1.4,17.3-4.2,17.5-6.2
	c-0.4-1.4-0.8-3.2-1.3-5.3c9.3-2.3,18.3-5,27.3-7.9C549.1,753.6,553.9,750.5,554.2,747.5"/>
<path class="st0" d="M348.8,221.1c-2.6-7.6-8.7-10.4-18.5-8.4c-9,2.6-17.7,5.4-26.4,8.3c-1.5-7.1-2.9-13.9-4.3-20.6
	c-3.3-11.6-21.1-8-27.6,2.8c-2.4,4.1-2,7.1-1.8,8.5c1.4,6.5,2.7,13.2,4.2,20.1c-8.2,3.3-16.3,6.8-24.2,10.4
	c-2.3,1.3-7.7,4.3-10.2,10.5c-3.1,7.5,0.5,18.8,15.3,13.9c8-3.4,16.1-6.6,24.3-9.7c1.6,7.4,3.2,14.9,4.8,22.7
	c2.6,9.6,11.4,10.4,16.1,9.3c6.6-1.5,15.3-8.4,13.6-19.2c-1.7-7.9-3.3-15.7-4.9-23.2c8.6-2.8,17.4-5.5,26.4-8
	C345.2,235,349.5,229.3,348.8,221.1"/>
<path class="st0" d="M328.8,487.7c1.8,8.4,3.6,16.7,5.4,24.9c-8.7,1.3-17.2,2.4-25.7,3.5c-2.3,0.5-5.2,1.1-7.7,3.4
	c-8.7,7.7-4,24.3,13.6,24.3c8.5-0.8,17.1-1.8,25.8-2.8c1.7,8,3.4,15.9,5.1,23.6c2.6,9.7,11.8,12.1,16.8,12c7-0.1,16-5.1,14.3-15.7
	c-1.7-7.9-3.4-16-5.2-24.2c9-1.3,18-2.8,27.2-4.4c9.6-2.6,13.9-8.3,12.9-17.5c-2.9-8.8-9.2-12.7-19.3-11.8
	c-9.1,1.7-18.2,3.3-27.1,4.8c-1.8-8.4-3.6-16.9-5.5-25.4c-4.1-15.2-22.9-16-29.2-4.6C327.9,482.1,328.5,485.9,328.8,487.7"/>
<path class="st0" d="M460.6,740.6c-2-4.4-7.9-6.2-18.1-5.6c-9.2,1-18.5,1.6-27.7,1.9c-1-4.5-2-9.1-3.1-14.1
	c-3.3-10.6-27-10.9-31.3-3.1c-0.7,1.3-0.6,2.3-0.5,3.3c1.1,4.8,2.1,9.4,3,13.8c-9-0.4-18-1-26.8-2c-2.6-0.1-8.8-0.5-12.1,1.6
	c-4.1,2.7-1.3,9.5,15.1,12.2c8.9,1,17.9,1.8,26.9,2.3c0.8,3.7,1.6,7.2,2.4,10.4c1.5,4,10.4,5.5,15.5,5.8c7.1,0.4,16.8-0.9,16.5-5.3
	c-0.8-3.2-1.6-6.8-2.4-10.6c9.2-0.2,18.5-0.8,27.7-1.7C455.8,748.2,460.6,745.2,460.6,740.6"/>
<path class="st0" d="M253.3,194c-2.2-5.8-7.4-6.9-15.9-3c-7.7,4.1-15.3,8.4-22.7,12.9c-1.1-5.4-2.2-10.5-3.2-15.4
	c-2.5-8.4-17.5-0.7-23.1,9.8c-2.1,3.9-1.8,6.1-1.7,7.2c1,4.7,2,9.6,3,14.7c-6.8,4.8-13.5,9.8-19.9,15c-2.1,1.9-7.6,6.8-9.1,13.6
	c-1.1,5.2,1.4,11.9,12.8,4.4c6.5-4.9,13.2-9.6,20.1-14.2c1.2,5.6,2.4,11.4,3.6,17.4c2,7.3,9.4,6,13.4,4.1
	c5.7-2.6,13.1-10.2,11.9-18.8c-1.3-6.3-2.6-12.3-3.8-18.2c7.4-4.2,15-8.3,22.7-12.2C250,206.4,253.8,200.7,253.3,194"/>
<path class="st0" d="M250.6,507c2.5,9.4,10.7,11.9,15.1,11.9c6.2,0,14.3-4.7,12.6-15.2c-1.7-7.9-3.4-15.8-5.1-23.8
	c-9.4,1.5-18.5,3-27.5,4.4C247.4,492,249,499.5,250.6,507"/>
<path class="st0" d="M211.3,465.5c-7.3,7.6-3.2,22.7,12,22.1c7.3-1,14.8-2.1,22.4-3.3c8.9-1.4,18.1-2.8,27.5-4.4
	c8-1.3,16.1-2.7,24.5-4.1c8.8-2.5,12.6-8.1,11.6-17.3c-2.8-8.8-8.6-12.7-17.8-11.7c-8.2,1.7-16.4,3.4-24.3,5
	c-1.7-8.1-3.5-16.2-5.2-24.4c-3.6-13.6-19.2-14.3-25.2-4.1c-2.8,4.7-2.1,8.9-1.8,10.7c1.7,7.8,3.3,15.6,5,23.4
	c-7.6,1.5-14.9,3-22.2,4.5C215.9,462.5,213.4,463.3,211.3,465.5"/>
<path class="st0" d="M362.3,703.5c-2.2-5.8-8-9.2-17.6-10.4c-8.7-0.6-17.4-1.4-25.9-2.5c-1.2-5.4-2.4-10.9-3.7-16.7
	c-3.5-12.1-25.3-15.7-29-7.6c-0.6,1.4-0.4,2.4-0.3,3.6c1.2,5.5,2.4,10.8,3.5,15.9c-8.2-1.6-16.4-3.5-24.3-5.6
	c-3-0.6-6.4-1.3-9.3-0.3c-6.2,2.2-2.2,11.3,12.9,16.6c8,2.4,16.2,4.5,24.5,6.3c1,4.6,2,9.1,2.9,13.3c1.7,5.5,10.5,9.1,14.8,10.3
	c6.6,1.8,15.6,1.6,14.9-4.2c-1-4.4-2-9-3.1-13.9c8.6,1.3,17.3,2.3,26.1,3.1C358.2,711.8,362.6,709.1,362.3,703.5"/>
<path class="st0" d="M331.6,774.5l0.6,0.2l-18-5.1C319.7,771.3,325.5,773,331.6,774.5"/>
<path class="st0" d="M122.9,228.9c0.6,2.9,1.2,6,1.9,9.3c-5.3,6.4-10.3,13.1-14.9,19.8c-8,12.2-7,17-7,17.2c0.3,1.4,1.9,3.6,9.3-5.8
	c4.8-6.4,9.9-12.8,15.2-18.9c0.8,3.7,1.6,7.6,2.4,11.7c1.4,4.7,7,1.2,10.2-1.6c4.2-3.7,10.5-12.1,9.6-18.5
	c-0.9-4.4-1.8-8.6-2.6-12.6c5.9-5.8,12-11.5,18.3-17c6.9-6.5,10-11.8,9.9-16.8c-1.6-3.8-5.8-2.8-12.7,2.9
	c-6.3,5.8-12.4,11.7-18.2,17.8c-0.7-3.5-1.4-6.8-2-9.9c-1.6-4.8-12.4,6-17.3,15.7C122.7,226.5,122.8,228.2,122.9,228.9"/>
<path class="st0" d="M139.2,426.4c-5.5,7.7-2.2,20,9.6,17.3c5.7-2,11.7-3.9,17.9-5.9c1.4,6.6,2.8,13.2,4.2,19.8
	c2.7,10.2,12.1,9.4,12.5,9.4c5.2-0.5,11.9-5.5,10.3-14.9c-1.5-7.1-3-14.2-4.5-21.3c6.7-2,13.6-4.1,20.7-6.1
	c7.5-3.1,10.7-8.7,9.7-17.1c-2.5-8-7.5-11.1-15.3-9.2c-7,2.5-13.8,5-20.3,7.5c-1.2-5.8-2.5-11.7-3.7-17.5c-0.3-1.3-0.5-2.6-0.8-3.9
	c-3-11.2-14.6-9.9-19.9-0.5c-2.9,5.1-2.2,9.4-2,10.8c0.2,1.2,0.5,2.4,0.8,3.7c1.2,5.4,2.3,10.8,3.5,16.2c-6.1,2.5-12,5-17.6,7.5
	C142.6,423.1,140.8,424.1,139.2,426.4"/>
<path class="st0" d="M271.1,647c-2.2-6.3-7.4-10.4-16.1-12.5c-7.8-1.4-15.5-2.9-23-4.6c-1.2-5.5-2.4-11.2-3.7-17
	c-3.1-11.2-20.9-16.6-24.8-9.8c-0.9,1.6-0.6,3.2-0.5,4.2c1.2,5.4,2.3,10.7,3.5,15.8c-7.1-2.1-14-4.5-20.7-7
	c-2.5-0.8-5.3-1.7-7.7-0.8c-5,1.8-1.3,10.9,11.2,17.1c6.8,2.9,13.8,5.7,20.9,8.2c1.1,4.8,2.1,9.5,3.1,14c1.7,6,9.4,10.6,13.2,12.3
	c5.9,2.5,13.7,3.2,12.8-3.2c-1.1-4.9-2.2-9.9-3.3-15.1c7.6,2.1,15.3,4,23.2,5.6C267.7,655.5,271.6,653.1,271.1,647"/>
<path class="st0" d="M258,746c-0.2-0.7-0.4-1.8-0.8-3c-1.4-3-25.4-16.1-27.2-14.8c0,0.1,0,0.1,0,0.2c0.3,1.2,0.5,2.1,0.7,2.8
	c-7.6-4.6-15-9.4-22.3-14.4c-11.1-7.8-11.2-7.8-12-8c3.5,2.9,9.7,7.4,12.4,9.3c7.3,5.1,14.7,10,22.4,14.6c0,0,0,0,0,0
	c0.3,0.2,0.6,0.3,0.9,0.5c6.2,3.7,12.5,7.1,18.8,10.4c2.6,1.4,5.2,2.8,7.6,4c0,0,0,0,0,0c8,3.9,16.1,7.6,24.4,11
	c11.7,4.7,13.4,5,14.4,5.1c-1-0.8-5.5-2.8-14.8-6.6C274.1,753.5,266,749.9,258,746"/>
<path class="st0" d="M90.4,255.6c-2-0.5-13,23.4-12.7,27.8c0.3,1.3,0.5,2.7,0.9,4.4c-3.4,7.9-6.4,15.9-9.2,24
	c-3.6,11-4.1,15.2-4,16.8c0.2,0,0.4,0,0.5-0.1c1.1-1.7,2-3.8,4.6-11.1c2.8-7.9,5.9-15.7,9.3-23.3c0.4,2,0.9,4.1,1.3,6.4
	c0.9,2.7,5.6-5.5,6.6-7.2c2.5-4.5,7.1-14.2,6.7-18.3c-0.5-2.6-1-5-1.4-7.2c4.1-7.4,8.4-14.6,13-21.7c5.1-8.2,7.4-13.3,7.5-16.5
	c-0.1-0.2-0.2-0.4-0.3-0.6c-2.2,0-5.6,4.7-8.6,9.4c-4.6,7.3-8.9,14.8-12.9,22.4c-0.4-1.8-0.6-3.4-0.9-4.9
	C90.5,255.7,90.5,255.7,90.4,255.6"/>
<path class="st0" d="M107.4,426.6c0.2,0.7,0.3,1.5,0.5,2.2c2,7.6,8.8,5,9.1,4.8c3.6-1.4,8.7-6.7,7.4-14.7c-0.2-0.8-0.3-1.7-0.5-2.5
	c-1-4.8-2-9.5-3-14.1c4.9-3.3,10.1-6.7,15.5-9.9c5.8-4.2,8.2-9.6,7.4-16.5c-2-6.1-5.8-7.3-11.7-3.8c-5.3,3.8-10.4,7.7-15.1,11.6
	c-1.1-5.2-2.2-10.2-3.2-15.2c-1.9-6.8-8.3-3.7-12.5,3.4c-1.4,2.4-3.6,7.2-2.9,12c0.9,4.4,1.9,8.9,2.9,13.5
	c-4.2,3.9-8.1,7.9-11.7,11.9c-1.2,1.4-4.2,5.2-4.7,10.5c-0.4,3.6,1,9.4,7.8,4.2c3.7-3.4,7.8-6.7,12.1-10
	C105.6,418.1,106.5,422.3,107.4,426.6"/>
<path class="st0" d="M188.4,584.4c-2-6-6.4-9.9-13.5-12c-6.4-1.4-12.6-2.9-18.6-4.6c-1.1-4.9-2.2-9.9-3.3-15
	c-2.7-10-16.3-14.3-19.3-8.3c-0.6,1.3-0.4,2.7-0.3,3.5c1,4.5,1.9,9,2.9,13.4c-5.4-2-10.6-4.1-15.6-6.4c-1.9-0.7-3.9-1.5-5.6-0.9
	c-3.5,1.1-0.8,8.5,8.5,14.3c5.1,2.8,10.4,5.5,15.9,8c0.9,4.2,1.8,8.3,2.7,12.3c1.5,5.4,7.6,10.1,10.6,11.8
	c5.5,3.1,10.9,3.2,10.1-2.1c-1-4.5-2-9.1-3-13.8c6.1,2.2,12.4,4.2,18.9,6.1C185.8,592.2,189,590.2,188.4,584.4"/>
<path class="st0" d="M205.3,710.2c5.2,3.5,8.4,5.4,11.3,6.1c0.3-0.2,0.5-0.4,0.8-0.5c-1.3-2.4-5.4-5.9-13.5-11.6
	c-7.2-4.8-14.1-9.9-20.9-15.3c-0.4-1.8-0.9-3.8-1.4-6c-1.8-5.3-21.4-20.7-22.7-19.4c-0.1,0.1-0.1,0.3-0.1,0.5
	c0.5,1.9,0.9,3.7,1.2,5.3c-6.3-5.9-12.4-12-18.2-18.3c-8.3-8.9-8.8-9-9.5-9.1c0.5,1,2.4,4.4,10.5,13.5c5.9,6.5,12,12.8,18.4,18.8
	c0.3,1.2,0.5,2.2,0.7,3c0.6,1.3,5.9,6.5,10.5,10.7c4.7,4.3,10.7,9.2,12.5,10c0.1,0,0.1-0.1,0.2-0.1c-0.2-0.8-0.5-1.9-0.8-3.3
	C191.1,700,198.1,705.2,205.3,710.2"/>
<path class="st0" d="M65.2,412c-2,5.5-3.7,11-5.1,16.5c-0.1,0.5-2.6,11.3-1,13.2c0.7-0.6,1.3-2,2.6-5.9c1.5-4.9,3.4-9.8,5.5-14.7
	c0.6,2.7,1.2,5.4,1.7,8.3c1,3.8,4.3-0.5,5-1.3c2.1-2.8,5-8.9,4.2-13.9c-0.7-3.5-1.4-6.8-2.1-10.1c2.9-4.9,6-9.7,9.5-14.5
	c3.8-5.8,5.4-10.7,4.9-15.4c-1.3-3.7-3.8-2.9-7.5,2.5c-3.3,5.4-6.4,10.8-9.1,16.2c-0.7-3.1-1.3-6.1-1.8-9c-0.8-2.6-2.5,0-3.2,1.2
	c-2.8,4.8-5.4,15.4-4.8,19.5C64.2,407,64.7,409.5,65.2,412"/>
<path class="st0" d="M79.3,518.7c3,2.1,6.3,4,9.9,5.9c0.6,2.9,1.3,5.8,1.9,8.6c1,3.9,5.2,7.7,7.2,9.1c4.4,3,7.6,2.5,6.9-1.1
	c-0.8-3.5-1.5-7-2.3-10.5c4.2,1.6,8.8,3.1,13.5,4.5c5.2,1,7.4-0.7,6.9-5.4c-1.6-4.8-4.9-7.8-10.1-9.1c-4.6-0.8-9-1.6-13.1-2.6
	c-0.8-3.7-1.6-7.4-2.4-11.1c-1.9-7.1-10.3-8.4-12.4-4.6c-0.6,1.1-0.5,2.2-0.4,2.9c0.6,3.1,1.3,6.1,2,9.1c-3.5-1.2-6.6-2.5-9.5-3.8
	c-1-0.4-2.2-0.9-3.1-0.6C72.3,510.4,74.4,515,79.3,518.7"/>
<path class="st0" d="M149.3,649.8c0-0.2,0-0.4,0.1-0.6c-1.2-2.9-4.5-7-11.1-13.7c-5.7-5.7-11.2-11.5-16.4-17.6
	c-0.4-1.9-0.9-4-1.4-6.1c-1.5-4.8-14.9-20.7-16.8-21.3c0,0-0.1,0.1-0.2,0.2c0,0,0,0.2,0,0.2c0.4,1.8,0.8,3.4,1.1,5
	c-4.6-6.5-8.9-13.2-13-20.1c-5.3-9.1-5.3-9.1-6.4-10.4c0.1,0.4,1.5,4.2,7.3,14.5c4.2,7.2,8.5,14.3,13.3,21.1
	c0.3,1.4,0.6,2.6,0.8,3.8c0.5,1.7,4.3,7.6,8.1,13.1c4.3,6,8.3,10.8,9.4,11.2c0-0.1,0-0.2,0-0.3c-0.3-1.4-0.7-2.9-1-4.6
	c5.3,6.4,10.8,12.6,16.6,18.5C146.6,649.5,147.9,649.6,149.3,649.8"/>
<path class="st0" d="M54.9,461.9c0.2,0.8,0.4,1.5,0.5,2.3c0-0.1,0-0.1,0.4-7.3c0.5-11.9,0.5-11.9,0.4-13.2c-0.3-1.4-0.6-2.8-0.8-4.1
	c0.5-6.4,1.3-12.7,2.5-19.1c1.5-8.2,1.9-12,1.6-14.6c-0.2-0.1-0.3-0.3-0.5-0.4c-1,1.5-1.6,4.3-2.4,9c-1.1,6.8-1.8,13.7-2.2,20.6
	c-0.3-1.2-0.5-2.3-0.7-3.4c0-0.1,0-0.1-0.1-0.1c-0.9,1.4-0.3,21.1,0.4,25.8c0.2,0.6,0.3,1.3,0.4,2c0.4,6.9,1.2,13.9,2.3,20.8
	c0.4,2.2,0.8,4.5,1.4,7.6c-0.6-2.7-0.9-4.7-1.2-6.8C55.9,474.6,55.2,468.2,54.9,461.9"/>
<path class="st0" d="M61.9,494.7c0.2,1,0.5,2,0.7,3c0.3,1.3,1.8,3.3,2.9,4.4c1.8,1.8,3.2,1.8,3.2,0.6c0-0.2-0.1-0.4-0.1-0.6
	c-0.4-1.8-0.8-3.5-1.2-5.3c2,0.5,4.2,0.9,6.9,1.3c2.8,0.1,4.1-1.3,3.8-4.3c-1.4-4.4-4.6-4.2-5.6-4.2c-2.4,0.4-4.5,0.7-6.3,0.9
	c-0.4-1.8-0.7-3.6-1.2-5.5c-0.7-2.5-2.7-2.1-3.8,0c-0.2,0.5-0.8,1.7-0.6,2.9c0.2,1.1,0.5,2.1,0.7,3.1c-1,0.1-1.7,0.1-2.1,0
	c-0.3-0.1-0.3-0.1-0.3-0.2c0.1,0.6,0.3,1.1,0.5,1.4C59.8,493.2,60.7,494,61.9,494.7"/>
<path class="st0" d="M744.8,223.9l-1.6-2.8c0.6,1.1,1.2,2,1.8,3C744.9,224,744.9,223.9,744.8,223.9"/>
<path class="st0" d="M786.6,328.9c0.2,1.1,0.5,2,0.7,3.2C787,330.9,786.8,329.9,786.6,328.9"/>
<polygon class="st0" points="795.1,382.9 795.1,383 795.1,382.9 "/>
<path class="st0" d="M626.1,100.1l-0.4-0.3C625.9,99.9,626,100,626.1,100.1L626.1,100.1z"/>
<path class="st0" d="M769.4,351.1c-1.4-4.3-4.4-6.1-9-5.4c-4.4,1.1-9.1,2.2-14.1,3.4c-1.1-5.1-2.1-10.1-3.2-15.2
	c-2.5-9.6-14-10.9-17.8-4.1c-1.5,2.7-1.1,5.4-0.9,6.6c1.2,5.7,2.4,11.4,3.6,17c-5.5,1.3-11.2,2.6-17.2,4c-2.3,0.8-4.8,1.6-6.9,5
	c-4.1,6.7-0.7,19,11.4,16.3c5.9-1.9,11.5-3.8,16.9-5.7c1.2,5.6,2.4,11.1,3.5,16.6c1.8,6.8,7.4,6.4,10,5.3c3.8-1.5,8.6-6.8,7.5-13.5
	c-1-4.9-2.1-9.8-3.2-14.8c4.8-1.8,9.4-3.5,13.6-5.2C768.1,359,769.9,355.7,769.4,351.1"/>
<path class="st0" d="M783.4,554.2c3.4-5.8,6.8-14.5,6.3-18.5c-0.6-2.8-1.3-5.6-1.9-8.7c3.7-6.8,7.2-13.6,10.3-20.6
	c3.1-7.4,4.6-13,4.2-16.8c-0.6-1.4-1.9-1.8-6.4,6.8c-3.3,6.6-6.8,13-10.6,19.4c-0.8-3.3-1.5-6.8-2.3-10.4c-1.5-5-7.8,1.6-11.3,8.2
	c-1.6,2.8-4,8.2-3.4,12.6c0.8,4,1.7,7.9,2.5,11.6c-4.5,6.2-9.2,12.2-14.2,18.2c-8.6,11.1-7.5,16.9-7.3,17.6c0.2,1.1,1.9,5.9,10.3-4
	c4.9-6.3,9.6-12.7,13.9-19.3c0.7,3.4,1.5,6.6,2.1,9.7C776.8,563.4,780.9,558.4,783.4,554.2"/>
<path class="st0" d="M625.8,109.1c-4,2.1-0.9,9.5,14.2,14.6c8.1,2.4,16.1,5,23.8,7.9c0.9,4,1.8,8.3,2.7,12.7
	c1.6,5.7,9.3,10.2,13.6,12c5.3,2.2,13.6,3.7,12.9-1.8c-0.9-4.1-1.7-8.1-2.4-11.8c7.4,3.4,14.7,7.1,21.8,10.9c7.5,3.8,11,4.2,11,1.4
	c-1.4-3.9-5.9-8.1-13.4-12.8c-7.1-4.2-14.5-8.1-22-11.8c-0.6-3.3-1.3-6.4-1.9-9.3c-2.6-8.2-25.3-17.6-27-13.6
	c-0.1,0.3-0.1,0.7-0.1,1c0.6,3.1,1.3,6.5,2,10c-7.9-3.1-15.9-6-24.1-8.6C634.7,109.1,628.9,107.5,625.8,109.1"/>
<path class="st0" d="M690.4,318.3c-2-6.4-6.3-9.8-13-10.4c-6.2,0-12.7,0.2-19.4,0.4c-1.2-5.4-2.3-10.9-3.5-16.3
	c-0.3-1.2-0.5-2.5-0.8-3.7c-3.2-12.3-18.2-15.9-23.3-8.1c-2,3-1.5,6.2-1.2,7.8c0.3,1.3,0.5,2.6,0.8,3.9c1.3,5.9,2.5,11.7,3.7,17.5
	c-7.1,0.4-14.4,1-21.9,1.6c-2.1,0.4-4.7,0.9-6.9,2.9c-7.2,6.5-4.4,24.1,12.5,23.5c7.4-1,14.6-2,21.6-2.9c1.5,7.2,3.1,14.3,4.6,21.4
	c2.3,8.8,9.5,10.4,13.3,10c5.1-0.6,11.6-5.4,10.2-14.3c-1.4-6.6-2.8-13.2-4.3-19.9c6.6-0.8,13-1.4,19.1-2
	C688.4,328.3,691.1,324.7,690.4,318.3"/>
<path class="st0" d="M653.4,561.6c-1.1,5.1,1.5,14.1,13.9,6.5c6.6-4.7,13-9.6,19.1-14.6c1.2,5.2,2.3,10.3,3.3,15.1
	c1.8,5.9,8.1,2.4,11.1-0.2c4.4-3.8,10.2-12.1,9.2-18.7c-0.9-4.6-2-9.2-3-14.1c5.6-5.2,10.9-10.6,16.1-16c5.2-6.2,7.5-11.8,7-17.3
	c-1.6-4.2-5-3.9-10.6,0.9c-5.2,5-10.7,9.9-16.3,14.8c-1.1-5.2-2.3-10.5-3.4-15.9c-2.4-8.5-13.6-4.3-18.8,4.8
	c-3.1,5.4-2.5,9.3-2.3,10.6c1.3,5.8,2.5,11.5,3.7,17.1c-6.2,4.6-12.7,9.1-19.3,13.6C660.7,549.9,654.8,554.4,653.4,561.6"/>
<path class="st0" d="M512.2,64.3c-2.2,2,0.2,6.8,16,9.2c8.9,1,17.8,2.4,26.5,4c0.7,3.2,1.4,6.8,2.1,10.5c1.5,4.8,10.1,8.1,14.9,9.3
	c6.1,1.5,15.6,2,15.2-2.9c-0.8-3.6-1.4-7-2.1-10.1c8.5,2.3,16.8,4.9,25.1,7.7c8.7,2.8,13,2.9,13.3,0.4c-1.5-3.2-6.4-6.4-15.2-9.9
	c-8.3-3-16.7-5.7-25.2-8.1c-0.5-2.5-1-4.8-1.3-6.9c-1-2.6-8.6-5.6-15.7-7.4c-6.7-1.8-14.1-2.4-14.6-0.5c0,0.1,0,0.3,0,0.4
	c0.4,2.1,0.8,4.5,1.4,7.1c-8.8-1.7-17.6-3.2-26.6-4.3C523.4,62.5,515.1,61.8,512.2,64.3"/>
<path class="st0" d="M540.8,218.8c-1.7,2.8-1.3,5.4-1,7c1.5,7.3,3.1,14.7,4.7,22.3c-8.4,0.3-16.9,0.6-25.5,1.2
	c-3.4,0.5-6.9,1.1-9.8,4.8c-5.9,7.3-1.4,23.3,15.8,23.3c8.6-0.8,17-1.5,25.3-2c1.5,6.8,2.9,13.7,4.4,20.7c0.3,1.2,0.5,2.5,0.8,3.7
	c2.7,10.3,11.2,12.9,15.8,12.9c6.2-0.1,14.1-4.9,12.4-15.4c-0.3-1.2-0.5-2.4-0.8-3.6c-1.4-6.7-2.8-13.4-4.2-19.9
	c7.9-0.3,15.7-0.4,23.4-0.4c7.9-0.8,11.4-4.8,10.6-12.2c-2.4-7.5-7.6-11.6-15.8-12.8c-7.7-0.4-15.6-0.6-23.7-0.7
	c-1.5-7.3-3.1-14.4-4.5-21.4C565.1,213.1,546.1,209.8,540.8,218.8"/>
<path class="st0" d="M584,553.1c8-3.3,15.8-6.7,23.5-10.2c1.5,6.9,3,13.7,4.4,20.3c2.3,8.1,10,7.1,14.2,5.2c5.6-2.5,13-10,11.6-18.7
	c-1.4-6.4-2.8-12.8-4.2-19.5c7.2-3.7,14.2-7.6,21-11.5c7-4.8,10.1-10.6,9.4-17.8c-2.2-6.4-6.8-8-14.3-4.8c-6.9,3.5-13.9,7-21.2,10.5
	c-1.5-6.9-3-13.9-4.6-21.1c-3.3-12-18.4-10.3-24.5,0c-2.9,4.9-2.3,9-2,10.7c1.6,7.4,3.2,14.8,4.8,22c-7.7,3.2-15.6,6.4-23.7,9.4
	c-3,1.5-6.4,3.1-9.2,7.6C563.8,544,567.9,558.1,584,553.1"/>
<path class="st0" d="M667.7,684.5c6.7-5.8,13.2-11.9,19.6-18.1c6.5-6.8,9.8-11.5,10-14.4c-0.1-0.2-0.3-0.3-0.4-0.5
	c-2.1-0.2-5.4,2-11.3,7.6c-6.3,6.2-12.8,12.1-19.6,17.8c-0.6-2.5-1.2-5.3-1.9-8.4c-2.2-5.9-20.7,7.6-24.2,15.8
	c-0.7,1.5-0.6,2.1-0.5,2.9c0.7,3.2,1.4,6.1,2,8.7c-7.3,5.2-14.8,10.2-22.5,14.9c-10.6,6.9-12.3,10.5-12.6,11.5c0,0-1.3,6,14.5-3.2
	c7.7-4.8,15.1-9.8,22.4-15.1c0.5,1.9,0.9,3.6,1.2,4.8c0.9,1.3,8-3.8,11.7-6.7c5.3-4.1,12.7-10.9,12.8-12.9
	C668.5,687.9,668.1,686.4,667.7,684.5"/>
<path class="st0" d="M656.7,704c-2.7,2.1-5.6,4.4-7.9,6.3C650.9,708.6,653.7,706.4,656.7,704"/>
<path class="st0" d="M660.1,701.2l2.2-1.9c-1.9,1.6-3.8,3.1-5.6,4.6C657.9,703,659.1,702.1,660.1,701.2"/>
<path class="st0" d="M666.4,695.9l0.5-0.4l-4.6,3.8C663.8,698.2,665.1,697.1,666.4,695.9"/>
<path class="st0" d="M435.7,44.2c-10,1.1-15.2,2.5-15.9,4.3c1.3,1.6,6.7,2,16.9,1.2c9.3-0.9,18.6-1.4,27.9-1.6
	c0.3,1.9,0.8,4.1,1.2,6.6c1.2,3.1,10.2,4.3,15.4,4.5c6.5,0.3,16.8-0.6,16.7-3.9c-0.5-2.4-0.9-4.6-1.2-6.4c9.1,0.6,18.2,1.5,27.1,2.7
	c9.6,1.2,14.4,1.1,15.1-0.3c-1.3-1.7-6.5-3.3-16-4.8c-9-1.3-18-2.2-27.1-2.8c-0.2-1.2-0.4-2-0.4-2.5c-1.2-1.2-29.1-2.1-32.1-0.9
	c0,0.6,0.1,1.5,0.3,2.7C454.4,42.8,445.1,43.3,435.7,44.2"/>
<path class="st0" d="M444.5,163.7c-1.2,2.4-1,4.4-0.8,5.6c1.4,6.7,2.8,13.5,4.3,20.6c-9.1,0.9-18.3,2-27.6,3.3
	c-3.4,0.8-7.4,1.7-10.7,5.4c-7.1,8-1.5,21.7,16.1,20.5c9.2-1.4,18.4-2.6,27.5-3.6c1.6,7.5,3.2,15.3,4.9,23.3
	c2.7,10,12.4,12.4,17.1,12.3c6.9-0.1,15.8-5.1,14.2-15.6c-1.6-7.8-3.3-15.4-4.8-22.8c8.9-0.6,17.7-1,26.3-1.2c9-1,13.1-5,12.5-12.4
	c-2.5-7.4-8.3-11.3-17.6-12.1c-8.7,0-17.5,0.2-26.5,0.6c-1.4-6.9-2.8-13.6-4.2-20.1C471.7,154.6,449.6,153.9,444.5,163.7"/>
<path class="st0" d="M550.5,521.1c-1.7-7.8-3.4-15.7-5.1-23.7c8.4-2.6,16.8-5.2,24.9-8c8.5-3.7,12.1-9.7,11.1-18.3
	c-2.6-8.1-8.2-11.2-17.1-9.4c-8.2,2.5-16.5,4.9-25,7.3c-1.8-8.2-3.6-16.5-5.4-24.9c-4.1-15-22.7-14.7-28.9-2.8
	c-2.4,4.6-1.8,8.5-1.5,10.4c1.8,8.6,3.6,17,5.5,25.5c-8.9,2.3-17.8,4.5-26.8,6.7c-3.5,1.2-7.2,2.5-10.3,7c-6.7,9.8-0.7,25,16.6,22.3
	c9-2.3,17.9-4.6,26.7-7.1c1.8,8.2,3.5,16.3,5.2,24.2c2.7,9.8,11.7,10.6,16.6,9.5C543.6,538.4,552.2,531.6,550.5,521.1"/>
<path class="st0" d="M519.4,725.1c-2.1,4,0.8,9.9,16.7,5.5c8.9-2.9,17.6-6.1,26.1-9.6c0.9,3.8,1.7,7.3,2.4,10.6
	c1.5,3.8,9.8,1.5,14.5-0.5c6.3-2.7,15.1-8.4,14.6-12.9c-0.7-3.2-1.5-6.6-2.3-10.4c8.2-4.1,16.1-8.4,23.8-13
	c8.1-5.2,11.9-10.1,11.8-14.7c-1.8-3.7-6.5-3.4-14.9,0.9c-7.7,4.4-15.7,8.6-23.9,12.6c-0.9-4.4-2-9-3.1-13.8
	c-3-9.3-23.4-2.1-28.4,7.7c-1.2,2.4-1,4-0.9,4.9c1.1,4.9,2.1,9.6,3.2,14.1c-8.6,3.4-17.3,6.6-26.2,9.4
	C529.8,717.1,522,720.1,519.4,725.1"/>
<path class="st0" d="M343.4,127.5c-1.3,2.2-1.1,4-1,5c1.1,5.4,2.3,11.1,3.5,17c-9.2,2.3-18.3,4.9-27.1,7.7c-2.6,1-8.8,3.4-11.9,8.7
	c-3.8,6.6-0.4,16.7,16.3,12.8c8.9-2.7,17.9-5.2,27.2-7.5c1.3,6.5,2.7,13.2,4.2,20.1c2.4,8.6,11.9,9.6,17.1,8.8
	c7.2-1,16.8-6.6,15.5-16c-1.5-6.9-2.8-13.6-4.2-20.1c9.3-1.8,18.6-3.3,27.9-4.5c9.7-2,14.3-6.2,13.9-12.9c-2.4-6.4-8.3-9.3-18.4-8.6
	c-9.3,1.2-18.6,2.6-28,4.4c-1.2-5.9-2.4-11.6-3.6-17C371.9,114.6,349.1,118,343.4,127.5"/>
<path class="st0" d="M367.9,433.6c-9.3,9.5-4.1,28.3,14.9,26.4c9.1-1.8,18.3-3.7,27.6-5.6c1.9,8.8,3.8,17.5,5.6,26.2
	c2.9,10.7,12.6,12.6,17.9,11.9c7.3-0.8,16.6-7.2,14.8-18.9c-1.8-8.7-3.7-17.4-5.6-26.2c9.3-2,18.5-4,27.6-6.1
	c9.5-3.1,13.6-9.3,12.5-18.9c-3-9.2-9.2-13.1-19.1-12c-9.1,2-18.4,3.9-27.7,6c-1.9-9-3.8-18-5.7-27c-4.4-16.2-24.4-16.4-31.1-3.9
	c-2.5,4.8-1.9,8.9-1.6,10.9c1.9,9,3.8,18,5.8,26.9c-9.3,2-18.5,3.9-27.5,5.8C373.7,429.8,370.6,430.8,367.9,433.6"/>
<path class="st0" d="M501.2,715c-1.1-4.9-2.2-10-3.4-15.4c9.2-2.3,18.4-4.8,27.3-7.6c9.4-3.6,13.8-8.3,13.4-14.6
	c-2.3-5.6-8.1-7.3-17.7-5c-8.9,2.7-18.1,5.2-27.3,7.4c-1.3-5.9-2.6-12-4-18.4c-3.7-12.4-26.6-9.5-31.9,1.2c-1.3,2.5-1,4.5-0.8,5.7
	c1.4,6.3,2.7,12.4,4,18.3c-9.3,1.6-18.6,3-27.9,4.1c-2.8,0.5-9.1,1.6-12.4,5.8c-4.1,5.3,0,14.5,16.7,13.7c9.3-1,18.6-2.3,28-3.9
	c1.2,5.4,2.3,10.5,3.4,15.3c2,6,11.3,6.3,16.5,5.5C492.2,726.2,502,721.6,501.2,715"/>
<path class="st0" d="M501.3,777.7l2.6-0.6c-2.3,0.5-4.4,1-6.3,1.4C498.8,778.2,500.1,778,501.3,777.7"/>
<path class="st0" d="M509.1,776l0.7-0.2l-6,1.4C505.5,776.8,507.3,776.4,509.1,776"/>
<path class="st0" d="M497.5,778.5c-3.3,0.6-6.9,1.3-9.8,1.9C489.1,780.1,492.7,779.5,497.5,778.5"/>
<path class="st0" d="M252.7,120.5c-0.8,1.5-0.7,2.2-0.6,3.1c0.8,3.8,1.6,7.8,2.5,12.2c-8.1,4-16,8.2-23.7,12.7
	c-2.5,1.6-9.2,6-11.3,11.9c-1.6,4.7,0.9,10.6,14.5,3.8c7.7-4.3,15.7-8.4,23.8-12.3c1,4.9,2.1,10,3.2,15.4c1.9,6.5,10.3,5.5,14.9,3.9
	c6.5-2.2,15.2-8.8,14.3-16.3c-1.1-5.5-2.2-10.7-3.3-15.7c8.5-3.4,17.3-6.5,26.1-9.3c9.5-3.6,14-8,14-13.4c-2-4.8-7.7-5.9-17.4-3.3
	c-8.8,2.9-17.6,6.1-26.1,9.6c-0.9-4.4-1.7-8.5-2.5-12.4C278.5,102.4,257,111.8,252.7,120.5"/>
<path class="st0" d="M270.9,379.3c-8.2,9.7-3.4,27.4,13.7,24.9c8.2-2.1,16.6-4.2,25.1-6.3c1.9,8.7,3.7,17.4,5.6,26
	c2.9,10.7,11.9,12.7,16.8,12.1c6.8-0.7,15.6-7.1,13.6-18.9c-1.9-8.8-3.8-17.7-5.7-26.6c8.8-2.1,17.7-4.2,26.8-6.2
	c9.5-3.2,13.7-9.5,12.6-19.4c-3.1-9.5-9.4-13.5-19.3-12.1c-9.1,2.1-17.9,4.4-26.7,6.6c-1.6-7.3-3.1-14.6-4.6-21.8
	c-0.4-1.6-0.7-3.3-1.1-4.9c-3.9-14.7-21.2-14.7-28-3.4c-3.1,5.3-2.4,9.9-2.1,11.9c0.3,1.6,0.7,3.2,1,4.8c1.5,7.1,3,14.2,4.5,21.3
	c-8.5,2.3-16.7,4.7-24.9,7C276,375.4,273.2,376.5,270.9,379.3"/>
<path class="st0" d="M387.4,692.5c7,0.3,16.4-3,15.3-11.1c-1.3-6-2.7-12.3-4.1-18.8c9.1-0.7,18.3-1.7,27.5-2.8
	c9.8-2,14.3-6.6,13.7-14.1c-2.6-7.1-8.7-10.3-18.9-9.7c-9.2,1.3-18.4,2.3-27.4,3.1c-1.5-6.9-3.1-13.9-4.6-21.2
	c-3.8-13.5-24.4-14.7-30.2-4.7c-1.8,3-1.4,5.5-1.1,7.1c1.6,7.1,3,14,4.5,20.7c-8.9,0.3-17.6,0.5-26.3,0.4c-3.2,0.2-6.8,0.4-9.9,3.1
	c-6.5,5.7-1.5,17.5,14.9,19.3c8.7,0.3,17.5,0.3,26.4,0.2c1.4,6.3,2.8,12.5,4,18.4C373.2,690,382.3,692.3,387.4,692.5"/>
<path class="st0" d="M453.6,782.8c-9.3,0.8-18.6,1.2-27.9,1.3c-0.2-0.9-0.6-2.2-0.9-3.8c-1.2-2.2-11.6-3.1-15.2-3.2
	c-11.7-0.4-16.5,1-16.9,2c0,0.1,0,0.2,0,0.3c0.4,1.6,0.7,2.8,1,3.7c-9.1-0.7-18.1-1.7-27.1-3.1c-13.5-2-14.1-1.7-14.9-1.3
	c3.3,1,9.7,2.1,15.4,3.1c9,1.3,18,2.4,27.1,3.1c0,0,0,0.1,0,0.1c1,0,2,0.1,3.1,0.1c6.3,0.4,12.5,0.7,18.8,0.8
	c3.6,0.1,7.1,0.2,10.3,0.2c0,0,0,0-0.1,0c9.3-0.1,18.6-0.5,27.9-1.3c13.4-1.2,14.9-1.8,16.1-2.3C469.2,781.8,463.7,782,453.6,782.8"
	/>
<path class="st0" d="M192.6,172.4c5.5-3.7,12.9-11.3,12.4-16.6c-0.8-3.8-1.4-7.2-2.1-10.5c7.2-5.1,14.6-10,22.2-14.7
	c8.2-5.4,12.2-9.8,12.5-13.6c-1.5-2.8-6.3-1.8-14.6,3c-7.6,4.8-15,9.8-22.2,15c-0.5-2.6-1-5-1.4-7.1c-1.8-4.2-21.1,11.7-23.9,18.1
	c-0.3,0.8-0.3,1.1-0.3,1.5c0.4,2,0.8,4.3,1.4,6.8c-6.7,5.8-13.2,11.7-19.4,17.9c-8.3,8.8-9.6,13.1-9.8,14.2c0,0-0.9,6.7,11.7-4.8
	c6.2-6,12.7-11.9,19.4-17.5c0.6,3.1,1.3,6.4,2,10C181.8,178.4,188.7,175,192.6,172.4"/>
<path class="st0" d="M183.6,344.1c-4.2,8.5-1,21.7,12.8,17c6.8-3.1,13.9-6.2,21.1-9.2c1.4,6.5,2.7,13,4.2,19.7
	c0.3,1.2,0.5,2.4,0.7,3.6c2.6,9.6,10.4,10.7,14.6,9.8c5.9-1.3,13.6-8,11.8-19c-0.3-1.2-0.5-2.5-0.8-3.7c-1.5-7-3-13.9-4.4-20.6
	c7.7-2.9,15.5-5.7,23.6-8.5c8.5-3.9,12.1-10.2,11.2-19.2c-2.7-8.3-8.3-11.2-17.1-8.8c-8,3-15.8,6.2-23.4,9.4
	c-1.6-7.6-3.1-15-4.6-22.2c-3.2-11.8-17.9-8.8-23.9,2.1c-2.7,5-2.1,8.8-1.9,10.4c1.5,6.9,3,14,4.5,21.2c-7.2,3.4-14.2,6.8-20.9,10.3
	C188.5,337.9,185.8,339.7,183.6,344.1"/>
<path class="st0" d="M305,627.7c-1.4-6.6-2.9-13.3-4.4-20.2c8.3,0.1,16.8,0.1,25.4-0.1c9.1-1,13.1-5.4,12.4-13.3
	c-2.7-7.8-8.5-11.8-17.9-12.1c-8.5,0.5-16.9,0.8-25.2,0.9c-1.5-7.2-3.1-14.5-4.7-21.9c-3.7-13.7-22.3-15.9-27.4-6.2
	c-1.5,2.9-1.1,5.4-0.9,7c1.5,7.1,3,14.1,4.5,20.9c-7.9-0.2-15.7-0.6-23.4-1c-2.1,0-4.7,0.1-7,1.4c-7.8,4.4-3.8,18.1,11.9,21.1
	c7.7,0.9,15.5,1.5,23.5,2.1c1.4,6.6,2.8,13,4.2,19.3c2.2,8,10.6,11.4,15.2,12.1C297.9,638.8,306.4,636.4,305,627.7"/>
<path class="st0" d="M336.1,767.5c8.7,2,17.6,3.6,26.5,4.9c9.6,1.2,14.4,0.6,14.8-1.8c-1.6-2.7-7-4.8-16.7-6.4
	c-8.9-1.3-17.7-2.8-26.4-4.7c-0.6-2.6-1.3-5.5-2-8.7c-2.8-8-28.3-12.5-30-8.4c-0.1,0.3-0.1,0.7,0,1c0.7,3,1.3,5.8,1.9,8.3
	c-8.4-2.6-16.8-5.4-25-8.5c-7.6-2.7-11.5-3.5-13.2-2.6c-0.4,2.1,5.3,5.8,15,9.9c8.2,3.2,16.6,6.2,25.1,8.8c0.4,1.8,0.8,3.4,1.1,4.6
	c1,1.7,9.6,4.6,13.9,5.9c7.7,2.2,16.1,3.8,16.3,2.4C336.9,771,336.6,769.4,336.1,767.5"/>
<path class="st0" d="M147.6,347.8c1.9,7.2,8.1,6.3,11.5,4.6c4.8-2.4,10.9-9.7,9.6-18.3c-1.3-6.4-2.6-12.6-3.9-18.6
	c6.2-4.2,12.7-8.4,19.3-12.4c7.1-5.1,10.2-11,9.5-18.2c-2.1-6.3-6.7-7.4-14-3.4c-6.6,4.4-12.9,8.9-19.1,13.5
	c-1.2-5.7-2.4-11.2-3.4-16.5c-2.2-7.8-12.1-2.8-17.5,6.5c-3.5,6.1-3,9.9-2.8,11.1c1.1,5,2.1,10,3.2,15.3c-5.6,4.8-10.9,9.7-16,14.7
	c-1.6,1.8-6,6.6-7,13.2c-0.6,4.5,1.1,11.8,10.7,4.6c5.2-4.5,10.6-9,16.3-13.4C145.2,336.1,146.4,341.9,147.6,347.8"/>
<path class="st0" d="M182.4,498.9c-1.8,3.1-1.3,6-1.1,7.4c1.4,6.4,2.7,12.7,4.1,18.9c7.7,0,15.7-0.2,23.9-0.5
	c-1.5-6.7-2.9-13.5-4.4-20.4C201.7,492.3,187.2,490.5,182.4,498.9"/>
<path class="st0" d="M218.5,567.3c-1.4-6.4-2.7-12.8-4.2-19.4c7.1,0.2,14.5,0.3,22,0.2c8-0.8,11.4-5,10.6-12.7
	c-2.5-7.6-7.7-11.5-15.9-11.8c-7.4,0.4-14.7,0.8-21.7,1.1c-8.3,0.3-16.2,0.5-23.9,0.5c-6.6,0-13,0-19.2-0.2
	c-1.7,0.1-3.8,0.3-5.6,1.5c-6.2,4.3-3,16,9.9,18.6c6.3,0.7,12.8,1.2,19.5,1.7c1.3,6.1,2.6,12.1,3.9,18c2.6,9.4,12.7,11.7,13.1,11.8
	C212.6,577.8,219.8,575.7,218.5,567.3"/>
<path class="st0" d="M288.9,728c-1.8-4.1-6.8-7.6-15.8-10.9c-8.1-2.7-16.1-5.6-23.9-8.8c-0.8-3.6-1.6-7.3-2.5-11.3
	c-2.9-9.1-23.9-17.7-26.4-13.1c-0.3,0.5-0.2,1.2-0.1,1.7c0.8,3.7,1.6,7.2,2.3,10.5c-7.5-3.8-14.7-7.8-21.8-12
	c-6.5-3.7-9.7-4.7-11-3.5c-0.1,2.8,5,8,13.3,13.5c7.1,4.5,14.5,8.8,22,12.8c0.6,2.8,1.2,5.4,1.8,7.9c1.2,3.4,9,8.3,12.9,10.5
	c7,3.8,14.3,6.1,14.1,3.1c-0.6-2.6-1.2-5.4-1.9-8.5c7.9,3.4,15.9,6.6,24,9.5C284.7,731.9,288.9,731.5,288.9,728"/>
<path class="st0" d="M99.6,351.4c3.1-3.5,7.8-11.4,6.8-17.6c-0.9-4.3-1.8-8.5-2.6-12.5c4.4-5.8,9.1-11.5,14-17.1
	c5.4-6.6,7.7-12.2,7.2-17.5c-1.5-4.1-4.9-3.2-10.3,2.8c-4.9,6-9.4,12.1-13.8,18.2c-0.8-3.7-1.5-7.2-2.2-10.6c-1.1-3.8-5.5,0.9-9,7.3
	c-1.9,3.6-5.3,11.4-4.7,15.8c0.6,3,1.3,6.1,1.9,9.4c-3.7,6.4-7.1,12.8-10.1,19.4c-5.1,11.7-4.1,16.3-4.1,16.3
	c0.4,1.5,1.6,2.7,6.3-5.7c3.2-6.1,6.6-12.1,10.4-18c0.8,3.6,1.5,7.3,2.3,11.1C93.4,358.3,99,352.1,99.6,351.4"/>
<path class="st0" d="M101.6,485.9c-4.2,4.2-1.9,12.7,7.1,13.3c4.4-0.1,9.1-0.4,14.1-0.6c1,4.8,2.1,9.7,3.1,14.5c2,7.6,9.7,9,10,9.1
	c4.3,0.7,9.9-1.5,8.7-8.6c-1.2-5.4-2.3-10.8-3.5-16.3c5.5-0.4,11.3-1,17.3-1.6c6.4-1.3,9.1-5.3,8.3-12.1c-2.1-6.6-6.3-9.5-12.8-9
	c-5.9,1.2-11.5,2.3-16.9,3.3c-1.2-5.5-2.4-11.1-3.6-16.7c-2.5-9.3-12.5-9.2-16.4-1.8c-1.7,3.2-1.3,5.8-1.1,7.1c1,5,2.1,10,3.2,14.9
	c-4.9,0.9-9.4,1.8-13.7,2.6C104.2,484.3,102.8,484.7,101.6,485.9"/>
<path class="st0" d="M206.2,665.8c-1.7-4.6-6.1-8.8-13.8-13c-6.9-3.5-13.6-7.2-20-11.1c-0.8-3.7-1.6-7.5-2.5-11.4
	c-2.5-8.8-19.6-18.8-21.4-14.7c-0.2,0.5-0.1,1.1,0,1.5c0.7,3.5,1.5,6.9,2.2,10.2c-6-4.4-11.7-8.9-17.2-13.6c-4.5-3.7-6.4-4.9-8-4.9
	c-0.1,0.1-0.3,0.2-0.4,0.3c0,2.6,4.2,8.2,10.5,14.3c5.6,5.1,11.4,10.1,17.5,14.8c0.7,3,1.3,5.8,1.9,8.5c1.1,3.6,7.1,9.5,10.8,12.6
	c6.2,5.1,11.5,7.2,11.5,4.8c0-0.2,0-0.3-0.1-0.5c-0.6-3-1.4-6.2-2.1-9.5c6.6,4.3,13.3,8.3,20.2,12.2
	C202.8,669.9,206.3,669.8,206.2,665.8"/>
<path class="st0" d="M63.3,344.2c-2.2,1-6.8,23.7-6.3,28.3c0.3,1.4,0.6,2.8,0.9,4.4c-1.6,7.8-2.8,15.6-3.7,23.5
	c-0.6,6.2-1.2,13.7-0.7,15.9c0.3-0.8,0.4-1.4,1.7-11.2c1-7.5,2.3-14.9,4-22.3c0.3,1.8,0.8,3.6,1.1,5.6c0.2,0.4,0.3,1,1.2-0.5
	c0.6-1.2,1.6-3.6,2.6-6.6c0.4-1.3,4.1-12.8,3.5-17.2c-0.5-2.4-0.9-4.7-1.4-6.9c2.4-7.3,5.1-14.5,8-21.6c3.4-8.3,4.8-13.5,4.6-16.9
	c-0.1-0.2-0.2-0.5-0.3-0.7c-1.8-0.3-4.1,4.8-6,9.3c-2.9,7.4-5.5,15-7.8,22.6c-0.4-1.9-0.8-3.7-1.1-5.4
	C63.5,344.5,63.5,344.3,63.3,344.2"/>
<path class="st0" d="M73.6,451.8c0.1,0.6,0.2,1.1,0.4,1.8c0.6,2.6,1.1,5.2,1.6,7.8c-2.7,2.3-5.1,4.5-7.2,6.7
	c-0.7,0.9-1.5,1.9-2.2,3.8c-1.1,3.6-0.2,7.2,4,5c2.3-1.4,4.8-2.9,7.7-4.5c0.7,3.2,1.3,6.3,2,9.5c1.3,4.9,6,4.5,6.2,4.5
	c2.8-0.2,6.3-2.9,5.4-8c-0.8-3.8-1.7-7.7-2.5-11.6c3.5-1.6,7.4-3.4,11.5-5.1c4.4-2.4,6.3-6.2,5.6-11.5c-1.6-4.9-4.5-6.3-9-4.2
	c-4,2.4-7.7,4.8-11,7.1c-0.7-3.2-1.3-6.3-2-9.5c-0.2-0.7-0.3-1.5-0.5-2.2c-1.3-4.9-5.4-3.5-8.1,1C75.2,443.4,72.9,447.7,73.6,451.8"
	/>
<path class="st0" d="M87,554.6c3.7,5.1,7.6,10,11.8,14.8c0.5,2.3,1,4.5,1.5,6.7c0.8,2.8,4.7,8.3,7.9,12.1c5,5.8,8.4,7.8,8.3,5.9
	c0-0.1,0-0.3,0-0.4c-0.6-2.6-1.2-5.4-1.8-8.2c4.8,4.4,9.9,8.6,15.3,12.7c5.8,4,8.5,4.3,8.3,0.7c-1.4-4.2-4.8-8.1-10.8-12.5
	c-5.3-3.6-10.2-7.3-15-11.2c-0.7-3-1.3-6.1-2-9.3c-1.8-6.7-13.8-16.2-15.1-13.6c-0.1,0.3-0.1,0.7,0,1.1c0.6,2.6,1.1,5.1,1.6,7.6
	c-4.1-4.2-8-8.6-11.5-13.2c-3.2-4.1-4.2-5-5-5.6C79.9,543.7,85,551.7,87,554.6"/>
<path class="st0" d="M143.8,659.2c-5.9-6.7-11.6-13.6-17.1-20.7c-0.1-0.4-0.3-0.9-0.4-1.6c-0.7-1.6-17.7-25.2-17.9-25.4
	c0,0.5,0.2,1,0.2,1.3c-4.6-7.2-8.9-14.5-13-22.1l5.8,10.6c2.4,4.1,4.9,8.1,7.4,12.1c4.3,6.8,8.9,13.3,13.6,19.8
	c1.6,2.2,3,4.2,4.5,6.1l0,0c5.5,7.1,11.2,14.1,17.1,20.8c5.2,5.8,8.7,9.6,10.5,11.2C151.3,667,147.4,663.2,143.8,659.2"/>
<path class="st0" d="M94.9,589.3c0.2,0.5,0.5,0.9,0.7,1.4l-1.2-2.1C94.6,588.8,94.7,589.1,94.9,589.3"/>
<path class="st0" d="M91.6,583.3l2.8,5.2c-2.2-4.2-4.3-8.5-6.6-12.8C89.1,578.4,89.9,580,91.6,583.3"/>
<path class="st0" d="M50.5,415.7l0.2,5.6c0-1.5-0.1-3.2-0.1-5.3C50.5,415.8,50.5,415.7,50.5,415.7"/>
<path class="st0" d="M51.1,434c0.3,6.2,0.7,10.3,1,13.9L51,432.6C51,433,51.1,433.5,51.1,434"/>
<path class="st0" d="M50.8,428.6l-0.2-7.3C50.7,424.9,50.8,426.9,50.8,428.6"/>
<path class="st0" d="M50.9,430.8l0.1,1.8c-0.1-1.5-0.2-2.7-0.2-3.9L50.9,430.8z"/>
<path class="st0" d="M52.2,448.2v0.1c0-0.1,0-0.3,0-0.4L52.2,448.2z"/>
<path class="st0" d="M52.9,451.9c0.1,0.4,0.2,0.9,0.2,1.3c0-4-0.4-7.9-0.5-11.8c-0.2-5.7,0.3-11.3-0.4-17c-0.2-0.8-0.3-1.6-0.4-2.3
	c0-8.5,0.5-16.9,1.2-25.3c1.3-14.9,1.3-14.9,1.3-16.5c0,0-0.1,0-0.1,0c-0.8,2.6-1.5,10.8-1.8,13.4c-0.7,8.6-1.1,17.3-1.1,26.1
	c-0.1-0.6-0.2-1.1-0.3-1.6c-0.5,2.2,0.5,23.6,1.5,31.4c0.1,0.3,0.1,0.6,0.2,0.9c0.8,8.8,2,17.6,3.5,26.5c0.5,2.9,1,5.8,1.8,9.7
	c-0.7-3.7-1.2-6.4-1.7-9.2C54.7,469,53.6,460.4,52.9,451.9"/>
<path class="st0" d="M58.1,487.9c0.2,1,0.4,2,0.6,3C58.5,489.8,58.3,488.8,58.1,487.9c0.1,0.4,0.2,0.8,0.2,1.2
	c0.2,0.6,0.3,1.2,0.4,1.8c-0.1-0.5-0.2-1-0.3-1.5c-0.3-1.3-0.4-2.2-0.5-3.2c-0.3-3-0.3-6.1,0.1-9.2c0.2,0.9,0.4,1.8,0.5,2.7
	c0,0.2,0.1,0.3,0.1,0.5c0.1,0.3,0.3,1,1.3-0.8c0.1-0.2,0.2-0.4,0.3-0.6c0.4-0.7,2.1-4.3,1.6-7.3c-0.1-0.3-0.1-0.5-0.2-0.8
	c-0.3-1.6-0.6-3.1-1-4.6c1.2-3.2,2.7-6.4,4.5-9.7c1.4-2.7,3-6.4,2.5-10.5c-0.1-0.2-0.2-0.6-0.3-0.8c-0.4-0.6-1.6-2-4,3.1
	c-1.7,4-3,7.9-4,11.8c-0.4-1.7-0.7-3.4-1.1-5c-0.1-0.3-0.1-0.4-0.2-0.5c-1.3,0.3-2.1,12.7-1.5,16.2c0.2,0.9,0.4,1.9,0.6,2.8
	c-0.2,3.9-0.1,7.7,0.4,11.5c0.2,1.2,0.3,2.4,0.6,4.1c-0.1-0.4-0.2-0.9-0.3-1.3L58.1,487.9c-0.1-0.4-0.2-0.8-0.2-1.1
	C57.9,487.1,58,487.4,58.1,487.9C58.1,487.8,58.1,487.9,58.1,487.9"/>
<path class="st0" d="M68.2,523.9c0.1,0.6,0.3,1.2,0.4,1.8c0.2,0.9,2.1,6.5,4.7,12.8c2.8,6.9,5.2,11.7,5.8,12.6
	c-0.2-1.1-0.4-2.1-0.7-3.2c3.3,6.7,6.9,13.1,10.8,19.5c2.3,3.6,4.3,6.7,6.1,8.2c0.1-0.1,0.2-0.2,0.3-0.4c-0.7-2.3-2.6-5.5-7.6-13.3
	c-3.7-5.9-7.2-11.9-10.4-18c-0.3-1.2-0.5-2.4-0.9-3.7c-0.6-2-9.4-20.6-9.5-20.7c0.1,0.8,0.3,1.5,0.4,2.2c-2.4-6.5-4.6-13.2-6.4-20
	c-0.6-2.5-1.2-5-2-8.5c0.4,2,0.8,3.4,1.2,4.9c1.3,4.5,2.9,8.8,4.9,13c0.2,0.9,0.4,1.7,0.5,2.6c0.3,1.2,2,5.4,4,9.3
	c1.9,4,3.9,7,4.5,7.3c0.1-0.1,0.1-0.3,0.1-0.4c-0.3-1.5-0.7-3-1-4.5c2.7,3.9,5.7,7.8,9,11.4c2.4,2.5,3.8,3.7,5,3.3
	c0.1-0.3,0.2-0.8,0.1-1.2c-0.9-2.8-2.9-5.7-6.8-9.5c-3.2-3-6-6.2-8.6-9.5c-0.3-1.6-0.7-3.2-1.1-4.9c-0.9-3.4-6.5-9.8-7.1-10.1
	c0,0-0.1,0-0.1,0c0,0.1,0,0.2,0,0.2c0.2,1,0.4,1.9,0.6,2.8c-1.9-3.6-3.3-7.2-4.4-11c-0.4-1.3-0.7-2.4-1.1-4.1
	c-0.1-0.6-0.2-1.2-0.4-1.9c1.1,5.3,1.8,8.2,2.7,11.6C63.4,509.8,65.6,516.9,68.2,523.9"/>
<path class="st0" d="M60.5,498.7L60.5,498.7c-0.1-0.3-0.2-0.7-0.3-1.2L60.5,498.7z"/>
<path class="st0" d="M93.3,585.2c3.9,7.1,6.3,11.2,7.4,12.3c-0.3-0.8-0.3-0.8-7.9-14.7c-4.2-7.6-8.1-15.5-11.6-23.5
	c-0.2-0.6-0.3-1.2-0.5-1.9c-0.2-0.7-11-27.7-11.2-28c0.1,0.4,0.2,0.8,0.2,1.1c-2.9-8.4-5.4-16.9-7.6-25.6l0.2,0.9
	c2.3,8.7,4.8,17.3,7.7,25.7c0.1,0.3,0.1,0.4,0.1,0.6c0,0.1,2,6.1,5,14c3.3,8.6,6.1,15,6.6,16c0-0.3-0.1-0.6-0.2-1.1
	C85.1,569.3,89,577.3,93.3,585.2"/>
<path class="st0" d="M62,504.7c0,0.1,0,0.1,0,0.2l-1.5-6.2C61,500.6,61.1,501.1,62,504.7"/>
</svg>
