<?xml version="1.0" encoding="utf-8"?>
<!-- Generator: Adobe Illustrator 22.1.0, SVG Export Plug-In . SVG Version: 6.00 Build 0)  -->
<svg version="1.1" id="Layer_1" xmlns="http://www.w3.org/2000/svg" xmlns:xlink="http://www.w3.org/1999/xlink" x="0px" y="0px"
	 viewBox="0 0 687 241" style="enable-background:new 0 0 687 241;" xml:space="preserve">
<style type="text/css">
	.st0{fill:#3A5667;}
</style>
<g>
	<path class="st0" d="M58.1,54.8c-1.4-1.9-3.2-3.2-5.4-4.1c-2.2-0.9-4.4-1.3-6.5-1.3c-2.7,0-5.2,0.5-7.4,1.5c-2.2,1-4.1,2.3-5.7,4.1
		c-1.6,1.7-2.8,3.7-3.7,6.1c-0.9,2.3-1.3,4.8-1.3,7.5c0,2.9,0.4,5.5,1.3,7.8c0.8,2.4,2,4.4,3.6,6.1c1.6,1.7,3.4,3,5.6,4
		c2.2,0.9,4.6,1.4,7.3,1.4c2.8,0,5.3-0.6,7.5-1.7c2.2-1.1,3.9-2.6,5.3-4.4L66,87c-2.3,2.9-5.2,5.2-8.5,6.8
		c-3.4,1.6-7.3,2.4-11.8,2.4c-4.1,0-7.9-0.7-11.3-2c-3.4-1.4-6.4-3.3-8.8-5.7c-2.5-2.4-4.4-5.4-5.8-8.7c-1.4-3.4-2.1-7.1-2.1-11.2
		c0-4.2,0.7-8,2.2-11.4c1.5-3.4,3.5-6.3,6-8.6c2.5-2.4,5.5-4.2,9-5.5c3.5-1.3,7.2-1.9,11.2-1.9c1.7,0,3.4,0.2,5.3,0.5
		c1.8,0.3,3.6,0.8,5.3,1.5c1.7,0.7,3.3,1.5,4.7,2.5c1.5,1,2.7,2.2,3.8,3.6L58.1,54.8z"/>
	<path class="st0" d="M62.8,77c0-2.8,0.5-5.4,1.5-7.7c1-2.3,2.4-4.3,4.1-5.9c1.7-1.6,3.8-2.9,6.1-3.8s4.9-1.3,7.5-1.3
		c2.7,0,5.2,0.4,7.5,1.3s4.4,2.1,6.1,3.8c1.7,1.6,3.1,3.6,4.1,5.9c1,2.3,1.5,4.8,1.5,7.7s-0.5,5.4-1.5,7.7c-1,2.3-2.4,4.3-4.1,6
		c-1.7,1.7-3.8,2.9-6.1,3.9c-2.4,0.9-4.9,1.4-7.5,1.4c-2.7,0-5.2-0.5-7.5-1.4c-2.4-0.9-4.4-2.2-6.1-3.9c-1.7-1.7-3.1-3.6-4.1-6
		C63.4,82.4,62.8,79.8,62.8,77z M71.9,77c0,1.4,0.2,2.8,0.6,4.1c0.4,1.4,1,2.6,1.9,3.7c0.8,1.1,1.9,2,3.2,2.7c1.3,0.7,2.8,1,4.6,1
		s3.3-0.3,4.6-1c1.3-0.7,2.3-1.6,3.2-2.7c0.8-1.1,1.5-2.3,1.9-3.7c0.4-1.4,0.6-2.8,0.6-4.1c0-1.4-0.2-2.7-0.6-4.1
		c-0.4-1.4-1-2.6-1.9-3.7c-0.8-1.1-1.9-2-3.2-2.6c-1.3-0.7-2.8-1-4.6-1s-3.3,0.3-4.6,1c-1.3,0.7-2.3,1.5-3.2,2.6
		c-0.8,1.1-1.5,2.3-1.9,3.7C72.1,74.2,71.9,75.6,71.9,77z"/>
	<path class="st0" d="M104.6,59.4h8.4v5.7h0.1c0.8-1.8,2.2-3.3,4.1-4.7c1.9-1.4,4.3-2,6.9-2c2.3,0,4.3,0.4,6,1.2
		c1.7,0.8,3,1.9,4.1,3.2c1.1,1.3,1.8,2.9,2.3,4.6c0.5,1.7,0.7,3.5,0.7,5.3v22.2h-8.9V75.2c0-1-0.1-2.1-0.2-3.3
		c-0.1-1.1-0.5-2.2-1-3.1c-0.5-0.9-1.2-1.7-2-2.3c-0.9-0.6-2-0.9-3.4-0.9c-1.4,0-2.7,0.3-3.7,0.9c-1,0.6-1.9,1.3-2.6,2.2
		c-0.7,0.9-1.2,1.9-1.5,3.1c-0.3,1.2-0.5,2.3-0.5,3.5v19.5h-8.9V59.4z"/>
	<path class="st0" d="M161.6,68.8c-0.8-1-1.9-1.9-3.3-2.7c-1.4-0.8-2.9-1.1-4.5-1.1c-1.4,0-2.7,0.3-3.9,0.9s-1.8,1.6-1.8,3
		c0,1.4,0.7,2.4,2,2.9c1.3,0.6,3.2,1.1,5.7,1.7c1.3,0.3,2.7,0.7,4,1.2c1.4,0.5,2.6,1.1,3.7,2c1.1,0.8,2,1.8,2.7,3
		c0.7,1.2,1,2.7,1,4.4c0,2.2-0.4,4-1.2,5.5c-0.8,1.5-1.9,2.7-3.3,3.7c-1.4,0.9-2.9,1.6-4.7,2c-1.8,0.4-3.7,0.6-5.6,0.6
		c-2.8,0-5.5-0.5-8.1-1.5c-2.6-1-4.8-2.5-6.5-4.3l5.8-5.5c1,1.3,2.3,2.3,3.8,3.2c1.6,0.8,3.3,1.3,5.3,1.3c0.6,0,1.3-0.1,2-0.2
		c0.7-0.1,1.3-0.4,1.8-0.7c0.6-0.3,1-0.8,1.4-1.3c0.3-0.5,0.5-1.2,0.5-2c0-1.5-0.7-2.5-2-3.2c-1.4-0.6-3.4-1.3-6.1-1.9
		c-1.3-0.3-2.6-0.7-3.9-1.1c-1.3-0.5-2.4-1.1-3.4-1.8c-1-0.8-1.8-1.7-2.4-2.8c-0.6-1.1-0.9-2.5-0.9-4.2c0-2,0.4-3.7,1.2-5.1
		c0.8-1.4,1.9-2.6,3.2-3.5c1.3-0.9,2.8-1.6,4.5-2c1.7-0.4,3.4-0.7,5.2-0.7c2.6,0,5.1,0.4,7.5,1.3s4.4,2.2,5.8,4.1L161.6,68.8z"/>
	<path class="st0" d="M164.4,66.5v-7.1h6.2V49.1h8.7v10.3h8.9v7.1h-8.9V83c0,1.6,0.3,2.9,0.9,3.9c0.6,1,1.8,1.6,3.8,1.6
		c0.6,0,1.2-0.1,1.9-0.2c0.7-0.1,1.3-0.3,1.8-0.6l0.3,7c-0.8,0.3-1.7,0.5-2.8,0.7c-1.1,0.2-2.1,0.3-3.1,0.3c-2.4,0-4.3-0.3-5.8-1
		c-1.5-0.7-2.7-1.6-3.5-2.7c-0.9-1.2-1.5-2.5-1.8-4c-0.3-1.5-0.5-3.1-0.5-4.8V66.5H164.4z"/>
	<path class="st0" d="M189.1,59.4h8.5v5.9h0.1c1-2.1,2.4-3.7,4.1-5c1.8-1.3,3.8-1.9,6.2-1.9c0.3,0,0.7,0,1.1,0c0.4,0,0.7,0.1,1,0.2
		v8.1c-0.6-0.1-1.1-0.2-1.5-0.3c-0.4,0-0.8-0.1-1.2-0.1c-2,0-3.7,0.4-4.9,1.1c-1.2,0.7-2.2,1.6-2.9,2.7c-0.7,1-1.2,2.1-1.4,3.2
		c-0.2,1.1-0.4,1.9-0.4,2.6v19h-8.9V59.4z"/>
	<path class="st0" d="M243,94.9h-8.4v-5.7h-0.1c-0.8,1.8-2.2,3.3-4.1,4.7c-1.9,1.4-4.3,2-6.9,2c-2.3,0-4.3-0.4-6-1.2
		c-1.7-0.8-3-1.9-4.1-3.2c-1.1-1.3-1.8-2.9-2.3-4.6c-0.5-1.7-0.7-3.5-0.7-5.3V59.4h8.9v19.7c0,1,0.1,2.1,0.2,3.3
		c0.1,1.1,0.5,2.2,1,3.1c0.5,0.9,1.2,1.7,2,2.3c0.9,0.6,2,0.9,3.4,0.9c1.4,0,2.6-0.3,3.7-0.9c1.1-0.6,1.9-1.3,2.6-2.2
		c0.7-0.9,1.2-1.9,1.5-3.1c0.3-1.2,0.5-2.3,0.5-3.5V59.4h8.9V94.9z"/>
	<path class="st0" d="M242.8,59.4h9.8l9.9,25.8h0.1l8.8-25.8h9.2L264,102.5c-0.6,1.6-1.3,3.1-2.1,4.3c-0.7,1.3-1.6,2.3-2.7,3.2
		c-1,0.9-2.3,1.5-3.7,2c-1.4,0.4-3.1,0.7-5.1,0.7c-0.7,0-1.5,0-2.3-0.1c-0.8-0.1-1.5-0.2-2.3-0.4l0.7-7.7c0.6,0.2,1.2,0.3,1.7,0.4
		c0.6,0.1,1.1,0.1,1.6,0.1c0.9,0,1.7-0.1,2.4-0.3c0.6-0.2,1.2-0.6,1.6-1c0.4-0.5,0.8-1,1.2-1.7c0.3-0.7,0.7-1.5,1.1-2.4l1.8-4.5
		L242.8,59.4z"/>
	<path class="st0" d="M314.5,77.6c0,0.4,0,0.8,0,1.2c0,0.4,0,0.8-0.1,1.2h-27c0.1,1.3,0.4,2.5,1,3.5c0.6,1.1,1.3,2,2.3,2.7
		c0.9,0.8,2,1.4,3.2,1.8s2.4,0.7,3.7,0.7c2.2,0,4.1-0.4,5.6-1.2c1.5-0.8,2.8-1.9,3.8-3.4l5.9,4.7c-3.5,4.7-8.6,7.1-15.2,7.1
		c-2.8,0-5.3-0.4-7.6-1.3c-2.3-0.9-4.3-2.1-6-3.7c-1.7-1.6-3-3.5-4-5.8c-1-2.3-1.4-4.9-1.4-7.8c0-2.9,0.5-5.5,1.4-7.8
		c1-2.3,2.3-4.3,4-6c1.7-1.7,3.7-2.9,6-3.8c2.3-0.9,4.8-1.4,7.4-1.4c2.5,0,4.7,0.4,6.8,1.2c2.1,0.8,3.9,2,5.4,3.6
		c1.5,1.6,2.7,3.6,3.6,6C314.1,71.6,314.5,74.4,314.5,77.6z M305.6,73.6c0-1.1-0.2-2.2-0.5-3.3c-0.3-1-0.8-1.9-1.5-2.7
		c-0.7-0.8-1.6-1.4-2.6-1.9c-1.1-0.5-2.3-0.7-3.7-0.7c-2.7,0-4.9,0.8-6.8,2.4c-1.8,1.6-2.9,3.7-3.1,6.2H305.6z"/>
	<path class="st0" d="M317.6,59.4h8.4v5.7h0.1c0.8-1.8,2.2-3.3,4.1-4.7c1.9-1.4,4.3-2,6.9-2c2.3,0,4.3,0.4,6,1.2
		c1.7,0.8,3,1.9,4.1,3.2c1.1,1.3,1.8,2.9,2.3,4.6c0.5,1.7,0.7,3.5,0.7,5.3v22.2h-8.9V75.2c0-1-0.1-2.1-0.2-3.3
		c-0.1-1.1-0.5-2.2-1-3.1c-0.5-0.9-1.2-1.7-2-2.3c-0.9-0.6-2-0.9-3.4-0.9c-1.4,0-2.7,0.3-3.7,0.9c-1,0.6-1.9,1.3-2.6,2.2
		c-0.7,0.9-1.2,1.9-1.5,3.1c-0.3,1.2-0.5,2.3-0.5,3.5v19.5h-8.9V59.4z"/>
	<path class="st0" d="M391.3,94.9h-8.4v-5.3h-0.1c-1.2,2.1-2.9,3.6-5.1,4.7c-2.2,1.1-4.5,1.6-7.1,1.6c-2.7,0-5.1-0.5-7.3-1.5
		c-2.1-1-4-2.4-5.5-4.1c-1.5-1.7-2.7-3.7-3.5-6c-0.8-2.3-1.2-4.7-1.2-7.4c0-2.6,0.4-5.1,1.3-7.3c0.8-2.3,2-4.2,3.6-5.9
		c1.5-1.7,3.4-3,5.5-4c2.1-1,4.4-1.4,7-1.4c1.6,0,3.1,0.2,4.4,0.6c1.3,0.4,2.4,0.8,3.4,1.4c1,0.5,1.8,1.1,2.5,1.8
		c0.7,0.6,1.3,1.3,1.7,1.8h0.2V39h8.9V94.9z M362.1,77c0,1.4,0.2,2.8,0.6,4.1c0.4,1.4,1,2.6,1.9,3.7c0.8,1.1,1.9,2,3.2,2.7
		c1.3,0.7,2.8,1,4.5,1c1.6,0,3.1-0.3,4.4-1c1.3-0.7,2.4-1.5,3.3-2.6c0.9-1.1,1.6-2.3,2.1-3.7c0.5-1.4,0.7-2.7,0.7-4.1
		c0-1.4-0.2-2.8-0.7-4.1c-0.5-1.4-1.2-2.6-2.1-3.7c-0.9-1.1-2-2-3.3-2.7c-1.3-0.7-2.7-1-4.4-1c-1.7,0-3.2,0.3-4.5,1
		c-1.3,0.7-2.3,1.5-3.2,2.6c-0.8,1.1-1.5,2.3-1.9,3.7C362.3,74.2,362.1,75.6,362.1,77z"/>
	<path class="st0" d="M394.5,77c0-2.8,0.5-5.4,1.5-7.7c1-2.3,2.4-4.3,4.1-5.9c1.7-1.6,3.8-2.9,6.1-3.8s4.9-1.3,7.5-1.3
		c2.7,0,5.2,0.4,7.5,1.3s4.4,2.1,6.1,3.8c1.7,1.6,3.1,3.6,4.1,5.9c1,2.3,1.5,4.8,1.5,7.7s-0.5,5.4-1.5,7.7c-1,2.3-2.4,4.3-4.1,6
		c-1.7,1.7-3.8,2.9-6.1,3.9c-2.4,0.9-4.9,1.4-7.5,1.4c-2.7,0-5.2-0.5-7.5-1.4c-2.4-0.9-4.4-2.2-6.1-3.9c-1.7-1.7-3.1-3.6-4.1-6
		C395.1,82.4,394.5,79.8,394.5,77z M403.6,77c0,1.4,0.2,2.8,0.6,4.1c0.4,1.4,1,2.6,1.9,3.7c0.8,1.1,1.9,2,3.2,2.7
		c1.3,0.7,2.8,1,4.6,1s3.3-0.3,4.6-1c1.3-0.7,2.3-1.6,3.2-2.7c0.8-1.1,1.5-2.3,1.9-3.7c0.4-1.4,0.6-2.8,0.6-4.1
		c0-1.4-0.2-2.7-0.6-4.1c-0.4-1.4-1-2.6-1.9-3.7c-0.8-1.1-1.9-2-3.2-2.6c-1.3-0.7-2.8-1-4.6-1s-3.3,0.3-4.6,1
		c-1.3,0.7-2.3,1.5-3.2,2.6c-0.8,1.1-1.5,2.3-1.9,3.7C403.8,74.2,403.6,75.6,403.6,77z"/>
</g>
<g>
	<path class="st0" d="M502.3,69.7c0,3.9-0.6,7.5-1.9,10.8c-1.3,3.3-3.1,6.1-5.4,8.4c-2.3,2.4-5.1,4.2-8.3,5.5c-3.2,1.3-6.8,2-10.6,2
		c-3.8,0-7.4-0.7-10.6-2c-3.2-1.3-6-3.1-8.3-5.5c-2.3-2.4-4.1-5.2-5.4-8.4c-1.3-3.3-1.9-6.9-1.9-10.8s0.6-7.5,1.9-10.7
		c1.3-3.2,3.1-6,5.4-8.3c2.3-2.3,5.1-4.1,8.3-5.4c3.2-1.3,6.7-2,10.6-2c3.8,0,7.4,0.7,10.6,2c3.2,1.3,6,3.1,8.3,5.4
		c2.3,2.3,4.1,5.1,5.4,8.3C501.6,62.2,502.3,65.8,502.3,69.7z M499.9,69.7c0-3.3-0.5-6.5-1.6-9.5c-1.1-3-2.7-5.6-4.7-7.8
		c-2.1-2.2-4.6-4-7.5-5.2c-2.9-1.3-6.3-1.9-10-1.9s-7,0.6-9.9,1.9c-2.9,1.3-5.4,3-7.5,5.2c-2.1,2.2-3.6,4.8-4.7,7.8
		c-1.1,3-1.6,6.1-1.6,9.5c0,3.4,0.5,6.6,1.6,9.6c1.1,3,2.7,5.6,4.7,7.8c2.1,2.2,4.6,4,7.5,5.3c2.9,1.3,6.2,2,9.9,2s7-0.7,10-2
		c2.9-1.3,5.4-3.1,7.5-5.3c2.1-2.2,3.6-4.8,4.7-7.8C499.3,76.3,499.9,73.1,499.9,69.7z"/>
	<path class="st0" d="M514.9,58.4c2.2-5,5.3-8.8,9.3-11.3c4-2.5,8.4-3.8,13.2-3.8c3.7,0,7.1,0.7,10.2,2c3.1,1.3,5.7,3.2,7.9,5.6
		c2.2,2.4,3.9,5.2,5.1,8.4c1.2,3.3,1.8,6.8,1.8,10.7c0,3.8-0.6,7.3-1.8,10.5c-1.2,3.2-3,6-5.2,8.4c-2.2,2.4-4.9,4.2-7.9,5.6
		c-3.1,1.3-6.4,2-10.1,2c-2.4,0-4.7-0.3-7-1s-4.4-1.6-6.4-2.9c-2-1.3-3.7-2.8-5.3-4.7c-1.6-1.9-2.9-4-3.8-6.5h-0.3v13.5h-2.5V12.6
		h2.5v45.9H514.9z M560,69.9c0-3.3-0.5-6.4-1.6-9.4c-1.1-3-2.6-5.6-4.5-7.8c-2-2.2-4.3-4-7.1-5.4c-2.8-1.3-5.9-2-9.4-2
		c-3.3,0-6.4,0.7-9.2,2c-2.8,1.3-5.2,3.1-7.2,5.3c-2,2.2-3.6,4.8-4.8,7.8c-1.2,3-1.7,6.1-1.7,9.5c0,3.3,0.6,6.5,1.7,9.5
		c1.2,3,2.8,5.6,4.8,7.8c2,2.2,4.4,4,7.2,5.3c2.8,1.3,5.8,2,9.2,2c3.5,0,6.6-0.7,9.4-2s5.2-3.1,7.1-5.3c2-2.2,3.5-4.8,4.5-7.8
		C559.5,76.3,560,73.2,560,69.9z"/>
	<path class="st0" d="M582,46.7c3.2-2.3,6.6-3.4,10.3-3.4c0.4,0,0.7,0,1,0c0.3,0,0.6,0,1,0.1v2.1c-0.3-0.1-0.6-0.1-0.8-0.1
		c-0.3,0-0.5,0-0.6,0c-3.2,0-5.9,0.7-8.2,2.1c-2.3,1.4-4.1,3.3-5.6,5.6c-1.5,2.3-2.5,4.8-3.2,7.6c-0.7,2.8-1,5.6-1,8.3v25.9h-2.4
		V57.4c0-0.8,0-1.8-0.1-2.9c0-1.2-0.1-2.3-0.1-3.5c0-1.2-0.1-2.3-0.2-3.4c-0.1-1.1-0.1-2-0.2-2.7h2.4c0.1,0.7,0.1,1.6,0.2,2.7
		c0,1.1,0.1,2.3,0.1,3.5c0,1.3,0.1,2.5,0.1,3.7c0,1.2,0.1,2.3,0.1,3.2h0.2C576.5,52.7,578.8,49,582,46.7z"/>
	<path class="st0" d="M631.8,83.6c0,1.9,0.1,3.9,0.3,6c0.2,2.1,0.4,3.9,0.6,5.3h-2.3c-0.1-0.7-0.3-1.6-0.3-2.7
		c-0.1-1.1-0.2-2.1-0.3-3.3c-0.1-1.1-0.2-2.2-0.2-3.3c0-1.1-0.1-2-0.1-2.7h-0.3c-1.5,4.6-4,8-7.5,10.2c-3.6,2.2-7.4,3.3-11.4,3.3
		c-2,0-4-0.3-6-0.9c-2-0.6-3.8-1.5-5.4-2.6c-1.6-1.2-2.9-2.6-3.9-4.5c-1-1.8-1.5-4-1.5-6.4c0-3.6,0.9-6.4,2.8-8.6
		c1.9-2.2,4.2-3.9,6.9-5.1c2.8-1.2,5.7-2,8.9-2.3c3.2-0.4,6-0.5,8.7-0.5h8.7v-4c0-5.6-1.5-9.7-4.5-12.3c-3-2.6-6.9-3.9-11.7-3.9
		c-3,0-5.8,0.5-8.3,1.6c-2.6,1.1-4.9,2.5-6.9,4.4l-1.3-1.9c2.3-2,5-3.6,7.9-4.6c2.9-1.1,5.8-1.6,8.7-1.6c5.7,0,10.3,1.5,13.6,4.4
		c3.3,2.9,5,7.6,5,13.9V83.6z M629.4,67.6h-7.7c-2.8,0-5.7,0.2-8.7,0.5c-3,0.3-5.8,1-8.4,2c-2.5,1-4.6,2.5-6.3,4.4
		c-1.6,1.9-2.5,4.4-2.5,7.6c0,2.3,0.5,4.3,1.4,5.8c0.9,1.6,2.1,2.8,3.5,3.8c1.4,0.9,3,1.6,4.7,2.1c1.7,0.4,3.3,0.7,4.8,0.7
		c3.7,0,6.8-0.7,9.3-2.1c2.5-1.4,4.4-3.1,5.9-5.3c1.5-2.1,2.5-4.5,3.1-7.1c0.6-2.6,0.9-5.1,0.9-7.6V67.6z"/>
	<path class="st0" d="M673.3,81.8c0,2.3-0.4,4.3-1.3,6c-0.9,1.8-2.1,3.3-3.5,4.5c-1.5,1.2-3.2,2.2-5.2,2.8c-2,0.7-4.1,1-6.3,1
		c-3.7,0-7.1-0.7-10.1-2.1c-3-1.4-5.5-3.5-7.5-6.3l2-1.3c3.6,5.1,8.9,7.6,15.7,7.6c1.6,0,3.2-0.3,4.8-0.8c1.6-0.5,3.1-1.3,4.5-2.3
		c1.3-1,2.4-2.3,3.3-3.8c0.8-1.5,1.3-3.3,1.3-5.2c0-2.3-0.5-4.2-1.6-5.7c-1.1-1.5-2.4-2.6-4-3.5c-1.6-0.9-3.4-1.6-5.3-2.1
		c-1.9-0.5-3.7-1-5.4-1.5c-1.8-0.5-3.5-1.1-5.1-1.7c-1.6-0.6-3-1.4-4.2-2.4c-1.2-1-2.1-2.2-2.8-3.6c-0.7-1.5-1-3.3-1-5.4
		s0.4-4.1,1.3-5.7c0.9-1.6,2-2.9,3.5-4c1.5-1.1,3.1-1.9,5-2.4c1.9-0.5,3.7-0.8,5.6-0.8c6.8,0,11.9,2.4,15.4,7.3l-2.1,1.2
		c-1.7-2.2-3.6-3.8-5.7-4.8c-2.1-1.1-4.6-1.6-7.6-1.6c-1.4,0-2.8,0.2-4.4,0.5c-1.5,0.4-2.9,1-4.2,1.8c-1.3,0.8-2.3,1.9-3.2,3.3
		c-0.8,1.4-1.3,3-1.3,5c0,2.2,0.3,3.9,1,5.2c0.7,1.3,1.7,2.4,2.9,3.2c1.2,0.8,2.7,1.5,4.5,2c1.7,0.5,3.7,1.1,5.8,1.6
		c2,0.5,3.9,1.1,5.7,1.8c1.9,0.7,3.5,1.5,4.9,2.6c1.4,1,2.5,2.3,3.4,3.8C672.8,77.7,673.3,79.6,673.3,81.8z"/>
</g>
<g>
	<path class="st0" d="M51.7,102.5h1.6v55.9h-1.6v-9.2h-0.2c-1.5,3.4-3.6,5.9-6.3,7.6c-2.7,1.7-5.7,2.6-9,2.6c-2.5,0-4.7-0.5-6.8-1.4
		c-2.1-0.9-3.9-2.2-5.4-3.8c-1.5-1.6-2.7-3.5-3.5-5.7c-0.8-2.2-1.3-4.6-1.3-7.1c0-2.6,0.4-5,1.3-7.2c0.8-2.2,2-4.1,3.5-5.8
		c1.5-1.6,3.3-2.9,5.4-3.8c2.1-0.9,4.4-1.4,6.8-1.4c3.3,0,6.3,0.9,9,2.6c2.7,1.7,4.8,4.3,6.3,7.7h0.2V102.5z M20.8,141.5
		c0,2.2,0.4,4.3,1.1,6.4c0.7,2,1.7,3.8,3.1,5.3c1.3,1.5,2.9,2.7,4.8,3.6c1.9,0.9,4,1.3,6.4,1.3c2.3,0,4.4-0.4,6.3-1.3
		c1.9-0.9,3.5-2.1,4.9-3.6c1.4-1.5,2.5-3.3,3.3-5.3c0.8-2,1.2-4.2,1.2-6.4c0-2.3-0.4-4.4-1.2-6.4c-0.8-2-1.9-3.8-3.3-5.3
		c-1.4-1.5-3-2.7-4.9-3.6c-1.9-0.9-4-1.3-6.3-1.3c-2.4,0-4.5,0.5-6.4,1.4c-1.9,0.9-3.5,2.1-4.8,3.7c-1.3,1.5-2.4,3.3-3.1,5.3
		C21.1,137.1,20.8,139.3,20.8,141.5z"/>
	<path class="st0" d="M61.6,141c0,2.1,0.3,4.1,0.9,6.1c0.6,2,1.6,3.8,2.8,5.4c1.3,1.6,2.8,2.9,4.8,3.9c1.9,1,4.2,1.5,6.8,1.5
		c2.7,0,5-0.5,7.1-1.6c2.1-1.1,3.9-2.6,5.4-4.6l1.2,1c-1.7,2.2-3.6,3.8-5.9,5c-2.2,1.1-4.8,1.7-7.8,1.7c-2.5,0-4.8-0.5-6.9-1.4
		s-3.9-2.2-5.4-3.8c-1.5-1.6-2.7-3.6-3.5-5.8c-0.8-2.3-1.2-4.7-1.2-7.4c0-2.6,0.4-4.9,1.3-7.1c0.8-2.2,2-4,3.4-5.6
		c1.5-1.6,3.2-2.8,5.2-3.7c2-0.9,4.1-1.3,6.4-1.3c2.7,0,5,0.5,7,1.4c2,0.9,3.6,2.2,4.9,3.7c1.3,1.5,2.3,3.3,2.9,5.2
		c0.6,1.9,1,3.9,1,6v1.4H61.6z M90.4,139.6c0-2.2-0.4-4.2-1.1-6.1c-0.7-1.8-1.7-3.4-2.9-4.7c-1.2-1.3-2.7-2.3-4.4-3
		c-1.7-0.7-3.6-1.1-5.8-1.1c-2.6,0-4.8,0.5-6.6,1.6c-1.8,1.1-3.3,2.4-4.5,3.9c-1.2,1.6-2,3.2-2.6,4.9c-0.5,1.7-0.8,3.2-0.8,4.5H90.4
		z"/>
	<path class="st0" d="M141.1,149.2h-0.2c-0.6,1.7-1.5,3.1-2.6,4.4c-1.1,1.3-2.3,2.3-3.6,3.2c-1.3,0.9-2.8,1.5-4.3,2
		c-1.6,0.4-3.1,0.7-4.8,0.7c-2.5,0-4.7-0.5-6.8-1.4c-2.1-0.9-3.9-2.2-5.4-3.8c-1.5-1.6-2.7-3.5-3.5-5.7c-0.8-2.2-1.3-4.6-1.3-7.1
		c0-2.6,0.4-5,1.3-7.2c0.8-2.2,2-4.1,3.5-5.8c1.5-1.6,3.3-2.9,5.4-3.8c2.1-0.9,4.4-1.4,6.8-1.4c3.3,0,6.3,0.9,9,2.6
		c2.7,1.7,4.8,4.3,6.3,7.7h0.2v-9.2h1.6v32.1c0,2.7-0.3,5.3-0.9,7.8c-0.6,2.5-1.5,4.6-2.8,6.5c-1.3,1.9-3,3.4-5.2,4.5
		c-2.1,1.1-4.8,1.7-8,1.7c-3.2,0-6.1-0.6-8.6-1.7c-2.5-1.1-4.7-2.7-6.4-4.7l1.1-1.1c1.9,2.1,4,3.7,6.4,4.6c2.4,1,4.9,1.4,7.5,1.4
		c3,0,5.4-0.5,7.4-1.6c2-1.1,3.5-2.5,4.7-4.3c1.1-1.8,1.9-3.8,2.4-6.1c0.5-2.3,0.7-4.7,0.7-7.1V149.2z M110.2,141.5
		c0,2.2,0.4,4.3,1.1,6.4c0.7,2,1.7,3.8,3.1,5.3c1.3,1.5,2.9,2.7,4.8,3.6c1.9,0.9,4,1.3,6.4,1.3c2.3,0,4.4-0.4,6.3-1.3
		c1.9-0.9,3.5-2.1,4.9-3.6c1.4-1.5,2.5-3.3,3.3-5.3c0.8-2,1.2-4.2,1.2-6.4c0-2.3-0.4-4.4-1.2-6.4c-0.8-2-1.9-3.8-3.3-5.3
		c-1.4-1.5-3-2.7-4.9-3.6c-1.9-0.9-4-1.3-6.3-1.3c-2.4,0-4.5,0.5-6.4,1.4c-1.9,0.9-3.5,2.1-4.8,3.7c-1.3,1.5-2.4,3.3-3.1,5.3
		C110.5,137.1,110.2,139.3,110.2,141.5z"/>
	<path class="st0" d="M159,125.7c2.2-1.6,4.5-2.3,7-2.3c0.2,0,0.5,0,0.7,0c0.2,0,0.4,0,0.7,0.1v1.4c-0.2,0-0.4-0.1-0.6-0.1
		c-0.2,0-0.3,0-0.4,0c-2.2,0-4,0.5-5.5,1.4c-1.5,1-2.8,2.2-3.8,3.8c-1,1.6-1.7,3.3-2.2,5.2c-0.5,1.9-0.7,3.8-0.7,5.7v17.6h-1.6V133
		c0-0.5,0-1.2,0-2c0-0.8,0-1.6-0.1-2.4c0-0.8-0.1-1.6-0.1-2.3c0-0.7-0.1-1.4-0.1-1.8h1.6c0,0.5,0.1,1.1,0.1,1.8c0,0.7,0,1.5,0.1,2.4
		c0,0.9,0,1.7,0.1,2.5c0,0.8,0,1.5,0,2.2h0.1C155.3,129.8,156.8,127.2,159,125.7z"/>
	<path class="st0" d="M192.7,150.7c0,1.3,0.1,2.7,0.2,4.1c0.1,1.5,0.3,2.7,0.4,3.6h-1.6c-0.1-0.5-0.2-1.1-0.2-1.8
		c0-0.7-0.1-1.5-0.2-2.2c-0.1-0.8-0.1-1.5-0.1-2.3c0-0.7,0-1.4,0-1.8H191c-1,3.1-2.7,5.4-5.1,6.9c-2.4,1.5-5,2.3-7.8,2.3
		c-1.4,0-2.8-0.2-4.1-0.6c-1.4-0.4-2.6-1-3.7-1.8c-1.1-0.8-2-1.8-2.6-3c-0.7-1.2-1-2.7-1-4.4c0-2.4,0.6-4.4,1.9-5.8
		c1.3-1.5,2.8-2.6,4.7-3.4c1.9-0.8,3.9-1.3,6-1.6c2.1-0.2,4.1-0.4,5.9-0.4h5.9v-2.7c0-3.8-1-6.6-3-8.3c-2-1.8-4.7-2.6-7.9-2.6
		c-2,0-3.9,0.4-5.7,1.1c-1.8,0.7-3.3,1.7-4.7,3l-0.9-1.3c1.6-1.4,3.4-2.4,5.4-3.1c2-0.7,4-1.1,5.9-1.1c3.9,0,7,1,9.2,3
		c2.2,2,3.4,5.1,3.4,9.4V150.7z M191.1,139.9h-5.3c-1.9,0-3.8,0.1-5.9,0.3c-2.1,0.2-4,0.7-5.7,1.4c-1.7,0.7-3.1,1.7-4.3,3
		c-1.1,1.3-1.7,3-1.7,5.2c0,1.6,0.3,2.9,0.9,4c0.6,1.1,1.4,1.9,2.4,2.6c1,0.6,2,1.1,3.2,1.4c1.2,0.3,2.3,0.4,3.3,0.4
		c2.5,0,4.6-0.5,6.3-1.4c1.7-0.9,3-2.1,4-3.6c1-1.5,1.7-3.1,2.1-4.8c0.4-1.8,0.6-3.5,0.6-5.1V139.9z"/>
	<path class="st0" d="M205.8,129.1c0.9-1.2,2-2.3,3.2-3.1c1.2-0.9,2.5-1.5,3.8-2c1.4-0.4,2.8-0.7,4.3-0.7c2.4,0,4.3,0.4,5.9,1.3
		c1.6,0.8,2.8,1.9,3.8,3.3c0.9,1.4,1.6,2.9,2,4.7c0.4,1.7,0.6,3.5,0.6,5.3v20.6h-1.6V138c0-1.4-0.1-2.9-0.4-4.4
		c-0.3-1.6-0.9-3-1.7-4.3c-0.8-1.3-1.9-2.4-3.3-3.2c-1.4-0.9-3.1-1.3-5.3-1.3c-1.9,0-3.6,0.4-5.3,1.1c-1.7,0.8-3.1,1.9-4.3,3.3
		c-1.2,1.4-2.2,3.2-2.9,5.2c-0.7,2-1.1,4.4-1.1,7v17h-1.6V133c0-0.5,0-1.2,0-2c0-0.8,0-1.6-0.1-2.4c0-0.8-0.1-1.6-0.1-2.3
		c0-0.7-0.1-1.4-0.1-1.8h1.6c0,0.5,0.1,1.1,0.1,1.8c0,0.7,0,1.5,0.1,2.4c0,0.9,0,1.7,0.1,2.5c0,0.8,0,1.5,0,2.2h0.1
		C204.1,131.8,204.8,130.4,205.8,129.1z"/>
	<path class="st0" d="M250.2,141c0,2.1,0.3,4.1,0.9,6.1c0.6,2,1.6,3.8,2.8,5.4c1.3,1.6,2.8,2.9,4.8,3.9c1.9,1,4.2,1.5,6.8,1.5
		c2.7,0,5-0.5,7.1-1.6c2.1-1.1,3.9-2.6,5.4-4.6l1.2,1c-1.7,2.2-3.6,3.8-5.9,5c-2.2,1.1-4.8,1.7-7.8,1.7c-2.5,0-4.8-0.5-6.9-1.4
		s-3.9-2.2-5.4-3.8c-1.5-1.6-2.7-3.6-3.5-5.8c-0.8-2.3-1.2-4.7-1.2-7.4c0-2.6,0.4-4.9,1.3-7.1c0.8-2.2,2-4,3.4-5.6
		c1.5-1.6,3.2-2.8,5.2-3.7c2-0.9,4.1-1.3,6.4-1.3c2.7,0,5,0.5,7,1.4c2,0.9,3.6,2.2,4.9,3.7c1.3,1.5,2.3,3.3,2.9,5.2
		c0.6,1.9,1,3.9,1,6v1.4H250.2z M279,139.6c0-2.2-0.4-4.2-1.1-6.1c-0.7-1.8-1.7-3.4-2.9-4.7c-1.2-1.3-2.7-2.3-4.4-3
		c-1.7-0.7-3.6-1.1-5.8-1.1c-2.6,0-4.8,0.5-6.6,1.6c-1.8,1.1-3.3,2.4-4.5,3.9c-1.2,1.6-2,3.2-2.6,4.9c-0.5,1.7-0.8,3.2-0.8,4.5H279z
		"/>
	<path class="st0" d="M291.2,129.1c0.9-1.2,2-2.3,3.2-3.1c1.2-0.9,2.5-1.5,3.8-2c1.4-0.4,2.8-0.7,4.3-0.7c2.4,0,4.3,0.4,5.9,1.3
		c1.6,0.8,2.8,1.9,3.8,3.3c0.9,1.4,1.6,2.9,2,4.7c0.4,1.7,0.6,3.5,0.6,5.3v20.6h-1.6V138c0-1.4-0.1-2.9-0.4-4.4
		c-0.3-1.6-0.9-3-1.7-4.3c-0.8-1.3-1.9-2.4-3.3-3.2c-1.4-0.9-3.1-1.3-5.3-1.3c-1.9,0-3.6,0.4-5.3,1.1c-1.7,0.8-3.1,1.9-4.3,3.3
		c-1.2,1.4-2.2,3.2-2.9,5.2c-0.7,2-1.1,4.4-1.1,7v17h-1.6V133c0-0.5,0-1.2,0-2c0-0.8,0-1.6-0.1-2.4c0-0.8-0.1-1.6-0.1-2.3
		c0-0.7-0.1-1.4-0.1-1.8h1.6c0,0.5,0.1,1.1,0.1,1.8c0,0.7,0,1.5,0.1,2.4c0,0.9,0,1.7,0.1,2.5c0,0.8,0,1.5,0,2.2h0.1
		C289.6,131.8,290.3,130.4,291.2,129.1z"/>
	<path class="st0" d="M333.7,158.4h-2.1l-13.4-34h1.8l12.6,32.4h0.1l12.2-32.4h1.8L333.7,158.4z"/>
	<path class="st0" d="M349.3,141c0,2.1,0.3,4.1,0.9,6.1c0.6,2,1.6,3.8,2.8,5.4c1.3,1.6,2.8,2.9,4.8,3.9c1.9,1,4.2,1.5,6.8,1.5
		c2.7,0,5-0.5,7.1-1.6c2.1-1.1,3.9-2.6,5.4-4.6l1.2,1c-1.7,2.2-3.6,3.8-5.9,5c-2.2,1.1-4.8,1.7-7.8,1.7c-2.5,0-4.8-0.5-6.9-1.4
		s-3.9-2.2-5.4-3.8c-1.5-1.6-2.7-3.6-3.5-5.8c-0.8-2.3-1.2-4.7-1.2-7.4c0-2.6,0.4-4.9,1.3-7.1c0.8-2.2,2-4,3.4-5.6
		c1.5-1.6,3.2-2.8,5.2-3.7c2-0.9,4.1-1.3,6.4-1.3c2.7,0,5,0.5,7,1.4c2,0.9,3.6,2.2,4.9,3.7c1.3,1.5,2.3,3.3,2.9,5.2
		c0.6,1.9,1,3.9,1,6v1.4H349.3z M378.1,139.6c0-2.2-0.4-4.2-1.1-6.1c-0.7-1.8-1.7-3.4-2.9-4.7c-1.2-1.3-2.7-2.3-4.4-3
		c-1.7-0.7-3.6-1.1-5.8-1.1c-2.6,0-4.8,0.5-6.6,1.6c-1.8,1.1-3.3,2.4-4.5,3.9c-1.2,1.6-2,3.2-2.6,4.9c-0.5,1.7-0.8,3.2-0.8,4.5
		H378.1z"/>
	<path class="st0" d="M392.9,125.7c2.2-1.6,4.5-2.3,7-2.3c0.2,0,0.5,0,0.7,0c0.2,0,0.4,0,0.7,0.1v1.4c-0.2,0-0.4-0.1-0.6-0.1
		c-0.2,0-0.3,0-0.4,0c-2.2,0-4,0.5-5.5,1.4c-1.5,1-2.8,2.2-3.8,3.8c-1,1.6-1.7,3.3-2.2,5.2c-0.5,1.9-0.7,3.8-0.7,5.7v17.6h-1.6V133
		c0-0.5,0-1.2,0-2c0-0.8,0-1.6-0.1-2.4c0-0.8-0.1-1.6-0.1-2.3c0-0.7-0.1-1.4-0.1-1.8h1.6c0,0.5,0.1,1.1,0.1,1.8c0,0.7,0,1.5,0.1,2.4
		c0,0.9,0,1.7,0.1,2.5c0,0.8,0,1.5,0,2.2h0.1C389.2,129.8,390.8,127.2,392.9,125.7z"/>
	<path class="st0" d="M432.5,149.2h-0.2c-0.6,1.7-1.5,3.1-2.6,4.4c-1.1,1.3-2.3,2.3-3.6,3.2c-1.3,0.9-2.8,1.5-4.3,2
		c-1.6,0.4-3.1,0.7-4.8,0.7c-2.5,0-4.7-0.5-6.8-1.4c-2.1-0.9-3.9-2.2-5.4-3.8c-1.5-1.6-2.7-3.5-3.5-5.7c-0.8-2.2-1.3-4.6-1.3-7.1
		c0-2.6,0.4-5,1.3-7.2c0.8-2.2,2-4.1,3.5-5.8c1.5-1.6,3.3-2.9,5.4-3.8c2.1-0.9,4.4-1.4,6.8-1.4c3.3,0,6.3,0.9,9,2.6
		c2.7,1.7,4.8,4.3,6.3,7.7h0.2v-9.2h1.6v32.1c0,2.7-0.3,5.3-0.9,7.8c-0.6,2.5-1.5,4.6-2.8,6.5c-1.3,1.9-3,3.4-5.2,4.5
		c-2.1,1.1-4.8,1.7-8,1.7c-3.2,0-6.1-0.6-8.6-1.7c-2.5-1.1-4.7-2.7-6.4-4.7l1.1-1.1c1.9,2.1,4,3.7,6.4,4.6c2.4,1,4.9,1.4,7.5,1.4
		c3,0,5.4-0.5,7.4-1.6c2-1.1,3.5-2.5,4.7-4.3c1.1-1.8,1.9-3.8,2.4-6.1c0.5-2.3,0.7-4.7,0.7-7.1V149.2z M401.6,141.5
		c0,2.2,0.4,4.3,1.1,6.4c0.7,2,1.7,3.8,3.1,5.3c1.3,1.5,2.9,2.7,4.8,3.6c1.9,0.9,4,1.3,6.4,1.3c2.3,0,4.4-0.4,6.3-1.3
		c1.9-0.9,3.5-2.1,4.9-3.6c1.4-1.5,2.5-3.3,3.3-5.3c0.8-2,1.2-4.2,1.2-6.4c0-2.3-0.4-4.4-1.2-6.4c-0.8-2-1.9-3.8-3.3-5.3
		c-1.4-1.5-3-2.7-4.9-3.6c-1.9-0.9-4-1.3-6.3-1.3c-2.4,0-4.5,0.5-6.4,1.4c-1.9,0.9-3.5,2.1-4.8,3.7c-1.3,1.5-2.4,3.3-3.1,5.3
		C401.9,137.1,401.6,139.3,401.6,141.5z"/>
	<path class="st0" d="M467.1,150.7c0,1.3,0.1,2.7,0.2,4.1c0.1,1.5,0.3,2.7,0.4,3.6h-1.6c-0.1-0.5-0.2-1.1-0.2-1.8
		c0-0.7-0.1-1.5-0.2-2.2c-0.1-0.8-0.1-1.5-0.1-2.3c0-0.7,0-1.4,0-1.8h-0.2c-1,3.1-2.7,5.4-5.1,6.9c-2.4,1.5-5,2.3-7.8,2.3
		c-1.4,0-2.8-0.2-4.1-0.6c-1.4-0.4-2.6-1-3.7-1.8c-1.1-0.8-2-1.8-2.6-3c-0.7-1.2-1-2.7-1-4.4c0-2.4,0.6-4.4,1.9-5.8
		c1.3-1.5,2.8-2.6,4.7-3.4c1.9-0.8,3.9-1.3,6-1.6c2.1-0.2,4.1-0.4,5.9-0.4h5.9v-2.7c0-3.8-1-6.6-3-8.3c-2-1.8-4.7-2.6-7.9-2.6
		c-2,0-3.9,0.4-5.7,1.1c-1.8,0.7-3.3,1.7-4.7,3l-0.9-1.3c1.6-1.4,3.4-2.4,5.4-3.1c2-0.7,4-1.1,5.9-1.1c3.9,0,7,1,9.2,3
		c2.2,2,3.4,5.1,3.4,9.4V150.7z M465.5,139.9h-5.3c-1.9,0-3.8,0.1-5.9,0.3c-2.1,0.2-4,0.7-5.7,1.4c-1.7,0.7-3.1,1.7-4.3,3
		c-1.1,1.3-1.7,3-1.7,5.2c0,1.6,0.3,2.9,0.9,4c0.6,1.1,1.4,1.9,2.4,2.6c1,0.6,2,1.1,3.2,1.4c1.2,0.3,2.3,0.4,3.3,0.4
		c2.5,0,4.6-0.5,6.3-1.4c1.7-0.9,3-2.1,4-3.6c1-1.5,1.7-3.1,2.1-4.8c0.4-1.8,0.6-3.5,0.6-5.1V139.9z"/>
	<path class="st0" d="M505.7,102.5h1.6v55.9h-1.6v-9.2h-0.2c-1.5,3.4-3.6,5.9-6.3,7.6c-2.7,1.7-5.7,2.6-9,2.6
		c-2.5,0-4.7-0.5-6.8-1.4c-2.1-0.9-3.9-2.2-5.4-3.8c-1.5-1.6-2.7-3.5-3.5-5.7c-0.8-2.2-1.3-4.6-1.3-7.1c0-2.6,0.4-5,1.3-7.2
		c0.8-2.2,2-4.1,3.5-5.8c1.5-1.6,3.3-2.9,5.4-3.8c2.1-0.9,4.4-1.4,6.8-1.4c3.3,0,6.3,0.9,9,2.6c2.7,1.7,4.8,4.3,6.3,7.7h0.2V102.5z
		 M474.8,141.5c0,2.2,0.4,4.3,1.1,6.4c0.7,2,1.7,3.8,3.1,5.3c1.3,1.5,2.9,2.7,4.8,3.6c1.9,0.9,4,1.3,6.4,1.3c2.3,0,4.4-0.4,6.3-1.3
		c1.9-0.9,3.5-2.1,4.9-3.6c1.4-1.5,2.5-3.3,3.3-5.3c0.8-2,1.2-4.2,1.2-6.4c0-2.3-0.4-4.4-1.2-6.4c-0.8-2-1.9-3.8-3.3-5.3
		c-1.4-1.5-3-2.7-4.9-3.6c-1.9-0.9-4-1.3-6.3-1.3c-2.4,0-4.5,0.5-6.4,1.4c-1.9,0.9-3.5,2.1-4.8,3.7c-1.3,1.5-2.4,3.3-3.1,5.3
		C475.2,137.1,474.8,139.3,474.8,141.5z"/>
	<path class="st0" d="M539.9,153.7c-0.9,1.3-2,2.3-3.1,3.1c-1.2,0.8-2.5,1.5-3.8,1.9c-1.4,0.4-2.8,0.7-4.3,0.7
		c-2.4,0-4.3-0.4-5.9-1.3c-1.6-0.8-2.8-1.9-3.8-3.3c-0.9-1.4-1.6-2.9-2-4.7c-0.4-1.7-0.6-3.5-0.6-5.3v-20.6h1.6v20.4
		c0,1.4,0.1,2.9,0.4,4.5c0.3,1.6,0.9,3,1.7,4.3c0.8,1.3,1.9,2.4,3.3,3.2c1.4,0.9,3.1,1.3,5.3,1.3c1.9,0,3.6-0.4,5.3-1.1
		c1.7-0.8,3.1-1.9,4.3-3.3c1.2-1.4,2.2-3.2,2.9-5.2c0.7-2,1.1-4.4,1.1-7v-17h1.6v25.4c0,0.5,0,1.2,0,2c0,0.8,0,1.6,0.1,2.4
		c0,0.8,0.1,1.6,0.1,2.3c0,0.7,0.1,1.4,0.1,1.8h-1.6c0-0.5-0.1-1.1-0.1-1.8c0-0.7,0-1.5-0.1-2.4c0-0.9,0-1.7-0.1-2.5
		c0-0.8,0-1.5,0-2.2h-0.1C541.6,151,540.9,152.5,539.9,153.7z"/>
	<path class="st0" d="M560.5,125.7c2.2-1.6,4.5-2.3,7-2.3c0.2,0,0.5,0,0.7,0c0.2,0,0.4,0,0.7,0.1v1.4c-0.2,0-0.4-0.1-0.6-0.1
		c-0.2,0-0.3,0-0.4,0c-2.2,0-4,0.5-5.5,1.4c-1.5,1-2.8,2.2-3.8,3.8c-1,1.6-1.7,3.3-2.2,5.2c-0.5,1.9-0.7,3.8-0.7,5.7v17.6H554V133
		c0-0.5,0-1.2,0-2c0-0.8,0-1.6-0.1-2.4c0-0.8-0.1-1.6-0.1-2.3c0-0.7-0.1-1.4-0.1-1.8h1.6c0,0.5,0.1,1.1,0.1,1.8c0,0.7,0,1.5,0.1,2.4
		c0,0.9,0,1.7,0.1,2.5c0,0.8,0,1.5,0,2.2h0.1C556.7,129.8,558.3,127.2,560.5,125.7z"/>
	<path class="st0" d="M594.3,150.7c0,1.3,0.1,2.7,0.2,4.1c0.1,1.5,0.3,2.7,0.4,3.6h-1.6c-0.1-0.5-0.2-1.1-0.2-1.8
		c0-0.7-0.1-1.5-0.2-2.2c-0.1-0.8-0.1-1.5-0.1-2.3c0-0.7,0-1.4,0-1.8h-0.2c-1,3.1-2.7,5.4-5.1,6.9c-2.4,1.5-5,2.3-7.8,2.3
		c-1.4,0-2.8-0.2-4.1-0.6c-1.4-0.4-2.6-1-3.7-1.8c-1.1-0.8-2-1.8-2.6-3c-0.7-1.2-1-2.7-1-4.4c0-2.4,0.6-4.4,1.9-5.8
		c1.3-1.5,2.8-2.6,4.7-3.4c1.9-0.8,3.9-1.3,6-1.6c2.1-0.2,4.1-0.4,5.9-0.4h5.9v-2.7c0-3.8-1-6.6-3-8.3c-2-1.8-4.7-2.6-7.9-2.6
		c-2,0-3.9,0.4-5.7,1.1c-1.8,0.7-3.3,1.7-4.7,3l-0.9-1.3c1.6-1.4,3.4-2.4,5.4-3.1c2-0.7,4-1.1,5.9-1.1c3.9,0,7,1,9.2,3
		c2.2,2,3.4,5.1,3.4,9.4V150.7z M592.7,139.9h-5.3c-1.9,0-3.8,0.1-5.9,0.3c-2.1,0.2-4,0.7-5.7,1.4c-1.7,0.7-3.1,1.7-4.3,3
		c-1.1,1.3-1.7,3-1.7,5.2c0,1.6,0.3,2.9,0.9,4c0.6,1.1,1.4,1.9,2.4,2.6c1,0.6,2,1.1,3.2,1.4c1.2,0.3,2.3,0.4,3.3,0.4
		c2.5,0,4.6-0.5,6.3-1.4c1.7-0.9,3-2.1,4-3.6c1-1.5,1.7-3.1,2.1-4.8c0.4-1.8,0.6-3.5,0.6-5.1V139.9z"/>
	<path class="st0" d="M605.9,155.1c0.4,0,0.8,0.2,1.1,0.5c0.4,0.3,0.6,0.8,0.6,1.4c0,0.5-0.2,1-0.5,1.3c-0.3,0.3-0.7,0.5-1.2,0.5
		c-0.4,0-0.8-0.2-1.2-0.5c-0.3-0.3-0.5-0.8-0.5-1.3c0-0.6,0.2-1.1,0.5-1.4C605.1,155.3,605.5,155.1,605.9,155.1z M606.7,144h-1.6
		v-38h1.6V144z"/>
</g>
<g>
	<path class="st0" d="M19.5,177.1h29.7v7H27.5v11.4H48v6.7H27.5v12.7h22.9v7.1H19.5V177.1z"/>
	<path class="st0" d="M60.7,205.8l-11-14.2h9.1l6.6,9.4l6.8-9.4H81l-10.9,14.2l12.4,16.1h-9.2l-7.9-11.1l-8,11.1h-9L60.7,205.8z"/>
	<path class="st0" d="M89.6,191.6v4.2h0.2c0.4-0.6,0.9-1.2,1.5-1.8c0.6-0.6,1.4-1.2,2.2-1.6c0.9-0.5,1.9-0.9,3-1.2
		c1.1-0.3,2.4-0.5,3.8-0.5c2.2,0,4.1,0.4,5.9,1.2c1.8,0.8,3.4,2,4.7,3.4c1.3,1.4,2.3,3.1,3,5.1c0.7,1.9,1.1,4,1.1,6.3
		c0,2.2-0.3,4.3-1,6.3c-0.7,2-1.7,3.7-3,5.1c-1.3,1.5-2.8,2.6-4.7,3.5c-1.8,0.9-3.9,1.3-6.2,1.3c-2.2,0-4.1-0.4-5.9-1.3
		c-1.8-0.9-3.2-2.1-4.1-3.6h-0.1v19.2h-7.6v-45.6H89.6z M107.3,206.6c0-1.2-0.2-2.4-0.5-3.5c-0.4-1.2-0.9-2.2-1.6-3.1
		c-0.7-0.9-1.6-1.7-2.7-2.2c-1.1-0.6-2.4-0.9-3.9-0.9c-1.4,0-2.6,0.3-3.7,0.9c-1.1,0.6-2,1.4-2.8,2.3c-0.8,0.9-1.4,2-1.8,3.2
		c-0.4,1.2-0.6,2.4-0.6,3.5c0,1.2,0.2,2.4,0.6,3.5c0.4,1.2,1,2.2,1.8,3.1c0.8,0.9,1.7,1.7,2.8,2.2c1.1,0.6,2.3,0.9,3.7,0.9
		c1.5,0,2.8-0.3,3.9-0.9c1.1-0.6,2-1.4,2.7-2.3c0.7-0.9,1.3-2,1.6-3.2C107.1,209,107.3,207.8,107.3,206.6z"/>
	<path class="st0" d="M146.6,207.1c0,0.3,0,0.7,0,1c0,0.3,0,0.7-0.1,1h-23.1c0.1,1.1,0.4,2.1,0.9,3c0.5,0.9,1.1,1.7,1.9,2.3
		c0.8,0.7,1.7,1.2,2.7,1.6c1,0.4,2.1,0.6,3.2,0.6c1.9,0,3.5-0.3,4.8-1c1.3-0.7,2.4-1.7,3.2-2.9l5.1,4.1c-3,4.1-7.3,6.1-13,6.1
		c-2.4,0-4.5-0.4-6.5-1.1c-2-0.7-3.7-1.8-5.2-3.1c-1.5-1.4-2.6-3-3.4-5c-0.8-2-1.2-4.2-1.2-6.7c0-2.4,0.4-4.7,1.2-6.7
		c0.8-2,2-3.7,3.4-5.1c1.4-1.4,3.1-2.5,5.1-3.3c2-0.8,4.1-1.2,6.4-1.2c2.1,0,4.1,0.3,5.9,1c1.8,0.7,3.3,1.7,4.7,3.1
		c1.3,1.4,2.3,3.1,3.1,5.1C146.3,202,146.6,204.4,146.6,207.1z M139,203.7c0-1-0.1-1.9-0.4-2.8c-0.3-0.9-0.7-1.7-1.3-2.3
		c-0.6-0.7-1.3-1.2-2.2-1.6c-0.9-0.4-2-0.6-3.2-0.6c-2.3,0-4.2,0.7-5.8,2.1c-1.6,1.4-2.5,3.1-2.6,5.3H139z"/>
	<path class="st0" d="M149.3,191.6h7.3v5.1h0.1c0.8-1.8,2-3.2,3.5-4.3c1.5-1.1,3.3-1.6,5.3-1.6c0.3,0,0.6,0,0.9,0
		c0.3,0,0.6,0.1,0.9,0.2v7c-0.5-0.1-0.9-0.2-1.3-0.3c-0.4,0-0.7-0.1-1-0.1c-1.7,0-3.1,0.3-4.2,0.9c-1.1,0.6-1.9,1.4-2.5,2.3
		c-0.6,0.9-1,1.8-1.2,2.7c-0.2,0.9-0.3,1.7-0.3,2.2v16.3h-7.6V191.6z"/>
	<path class="st0" d="M162.5,197.6v-6.1h5.3v-8.8h7.5v8.8h7.6v6.1h-7.6v14.1c0,1.4,0.2,2.5,0.7,3.4c0.5,0.9,1.6,1.3,3.3,1.3
		c0.5,0,1.1-0.1,1.6-0.2c0.6-0.1,1.1-0.3,1.6-0.5l0.3,5.9c-0.7,0.3-1.5,0.5-2.4,0.6c-0.9,0.1-1.8,0.2-2.7,0.2c-2,0-3.7-0.3-4.9-0.9
		c-1.3-0.6-2.3-1.4-3-2.3c-0.7-1-1.2-2.1-1.5-3.4c-0.3-1.3-0.4-2.7-0.4-4.1v-14.2H162.5z"/>
	<path class="st0" d="M181.8,206.6c0-2.4,0.4-4.6,1.3-6.6c0.9-2,2-3.6,3.5-5c1.5-1.4,3.2-2.5,5.3-3.2c2-0.8,4.2-1.1,6.5-1.1
		c2.3,0,4.4,0.4,6.5,1.1c2,0.8,3.8,1.8,5.3,3.2c1.5,1.4,2.6,3.1,3.5,5c0.9,2,1.3,4.1,1.3,6.6s-0.4,4.6-1.3,6.6c-0.9,2-2,3.7-3.5,5.1
		c-1.5,1.4-3.2,2.5-5.3,3.3c-2,0.8-4.2,1.2-6.5,1.2c-2.3,0-4.4-0.4-6.5-1.2c-2-0.8-3.8-1.9-5.3-3.3c-1.5-1.4-2.6-3.1-3.5-5.1
		C182.3,211.2,181.8,209,181.8,206.6z M189.5,206.6c0,1.2,0.2,2.4,0.5,3.5c0.4,1.2,0.9,2.2,1.6,3.2c0.7,0.9,1.6,1.7,2.7,2.3
		c1.1,0.6,2.4,0.9,3.9,0.9c1.5,0,2.8-0.3,3.9-0.9c1.1-0.6,2-1.4,2.7-2.3c0.7-0.9,1.3-2,1.6-3.2c0.4-1.2,0.5-2.4,0.5-3.5
		c0-1.2-0.2-2.4-0.5-3.5c-0.4-1.2-0.9-2.2-1.6-3.1c-0.7-0.9-1.6-1.7-2.7-2.2c-1.1-0.6-2.4-0.9-3.9-0.9c-1.5,0-2.8,0.3-3.9,0.9
		c-1.1,0.6-2,1.3-2.7,2.2c-0.7,0.9-1.3,2-1.6,3.1C189.7,204.3,189.5,205.4,189.5,206.6z"/>
	<path class="st0" d="M234.2,199.7c-0.7-0.9-1.6-1.7-2.8-2.3c-1.2-0.7-2.5-1-3.9-1c-1.2,0-2.3,0.3-3.4,0.8s-1.5,1.4-1.5,2.5
		c0,1.2,0.6,2,1.7,2.5c1.1,0.5,2.8,1,4.9,1.5c1.1,0.3,2.3,0.6,3.4,1c1.2,0.4,2.2,1,3.2,1.7c0.9,0.7,1.7,1.6,2.3,2.6
		c0.6,1,0.9,2.3,0.9,3.8c0,1.9-0.3,3.4-1,4.7c-0.7,1.3-1.6,2.3-2.8,3.1c-1.2,0.8-2.5,1.4-4.1,1.7c-1.5,0.4-3.1,0.5-4.8,0.5
		c-2.4,0-4.7-0.4-6.9-1.3c-2.2-0.9-4.1-2.1-5.6-3.7l5-4.7c0.8,1.1,1.9,2,3.3,2.7c1.4,0.7,2.8,1.1,4.5,1.1c0.5,0,1.1-0.1,1.7-0.2
		c0.6-0.1,1.1-0.3,1.6-0.6c0.5-0.3,0.9-0.6,1.2-1.1c0.3-0.5,0.4-1,0.4-1.7c0-1.3-0.6-2.2-1.7-2.7c-1.2-0.5-2.9-1.1-5.2-1.6
		c-1.1-0.3-2.2-0.6-3.3-1c-1.1-0.4-2-0.9-2.9-1.6c-0.8-0.7-1.5-1.5-2-2.4c-0.5-1-0.8-2.2-0.8-3.6c0-1.7,0.3-3.1,1-4.4
		c0.7-1.2,1.6-2.2,2.8-3c1.1-0.8,2.4-1.4,3.9-1.7c1.4-0.4,2.9-0.6,4.4-0.6c2.2,0,4.3,0.4,6.4,1.1c2.1,0.8,3.7,1.9,5,3.5L234.2,199.7
		z"/>
	<path class="st0" d="M281.1,207.1c0,0.3,0,0.7,0,1c0,0.3,0,0.7-0.1,1h-23.1c0.1,1.1,0.4,2.1,0.9,3c0.5,0.9,1.1,1.7,1.9,2.3
		c0.8,0.7,1.7,1.2,2.7,1.6c1,0.4,2.1,0.6,3.2,0.6c1.9,0,3.5-0.3,4.8-1c1.3-0.7,2.4-1.7,3.2-2.9l5.1,4.1c-3,4.1-7.3,6.1-13,6.1
		c-2.4,0-4.5-0.4-6.5-1.1c-2-0.7-3.7-1.8-5.2-3.1c-1.5-1.4-2.6-3-3.4-5c-0.8-2-1.2-4.2-1.2-6.7c0-2.4,0.4-4.7,1.2-6.7
		c0.8-2,2-3.7,3.4-5.1c1.4-1.4,3.1-2.5,5.1-3.3c2-0.8,4.1-1.2,6.4-1.2c2.1,0,4.1,0.3,5.9,1c1.8,0.7,3.3,1.7,4.7,3.1
		c1.3,1.4,2.3,3.1,3.1,5.1C280.7,202,281.1,204.4,281.1,207.1z M273.5,203.7c0-1-0.1-1.9-0.4-2.8c-0.3-0.9-0.7-1.7-1.3-2.3
		c-0.6-0.7-1.3-1.2-2.2-1.6c-0.9-0.4-2-0.6-3.2-0.6c-2.3,0-4.2,0.7-5.8,2.1c-1.6,1.4-2.5,3.1-2.6,5.3H273.5z"/>
	<path class="st0" d="M283.7,191.6h7.2v4.9h0.1c0.7-1.5,1.8-2.9,3.5-4c1.7-1.2,3.6-1.7,5.9-1.7c2,0,3.7,0.3,5.1,1
		c1.4,0.7,2.6,1.6,3.5,2.8c0.9,1.1,1.6,2.4,2,3.9c0.4,1.5,0.6,3,0.6,4.6v19h-7.6v-16.8c0-0.9-0.1-1.8-0.2-2.8
		c-0.1-1-0.4-1.8-0.8-2.6c-0.4-0.8-1-1.4-1.7-1.9c-0.7-0.5-1.7-0.8-2.9-0.8c-1.2,0-2.3,0.2-3.2,0.7c-0.9,0.5-1.6,1.1-2.2,1.9
		c-0.6,0.8-1,1.6-1.3,2.6c-0.3,1-0.4,2-0.4,3v16.7h-7.6V191.6z"/>
	<path class="st0" d="M327.4,177.1h17.5c1.7,0,3.4,0.2,5,0.6c1.6,0.4,3.1,1.1,4.4,2c1.3,0.9,2.3,2.1,3.1,3.5
		c0.8,1.4,1.2,3.2,1.2,5.2c0,2.5-0.7,4.6-2.2,6.3c-1.4,1.6-3.3,2.8-5.6,3.5v0.1c2.8,0.4,5.1,1.5,7,3.3c1.8,1.8,2.7,4.2,2.7,7.3
		c0,2.4-0.5,4.5-1.5,6.2c-1,1.7-2.2,3-3.8,4c-1.6,1-3.4,1.7-5.4,2.2c-2,0.4-4.1,0.7-6.2,0.7h-16.1V177.1z M335.4,195.4h7.1
		c2.7,0,4.7-0.5,6.1-1.6c1.4-1.1,2.1-2.6,2.1-4.5c0-2-0.7-3.5-2.2-4.3c-1.4-0.8-3.7-1.3-6.7-1.3h-6.4V195.4z M335.4,215.2h7.2
		c1,0,2.1-0.1,3.3-0.2c1.2-0.1,2.3-0.5,3.3-0.9c1-0.5,1.8-1.1,2.5-2c0.7-0.9,1-2.1,1-3.5c0-2.4-0.8-4-2.4-4.9
		c-1.6-0.9-4-1.4-7.3-1.4h-7.5V215.2z"/>
	<path class="st0" d="M362.3,181.2c0-1.2,0.5-2.3,1.4-3.2c0.9-0.9,2.1-1.4,3.4-1.4s2.6,0.4,3.5,1.3c0.9,0.9,1.4,2,1.4,3.3
		c0,1.3-0.5,2.4-1.4,3.3c-0.9,0.9-2.1,1.3-3.5,1.3s-2.5-0.5-3.4-1.4C362.8,183.5,362.3,182.5,362.3,181.2z M363.4,191.6h7.6v30.4
		h-7.6V191.6z"/>
	<path class="st0" d="M404.6,207.1c0,0.3,0,0.7,0,1c0,0.3,0,0.7-0.1,1h-23.1c0.1,1.1,0.4,2.1,0.9,3c0.5,0.9,1.1,1.7,1.9,2.3
		c0.8,0.7,1.7,1.2,2.7,1.6c1,0.4,2.1,0.6,3.2,0.6c1.9,0,3.5-0.3,4.8-1c1.3-0.7,2.4-1.7,3.2-2.9l5.1,4.1c-3,4.1-7.3,6.1-13,6.1
		c-2.4,0-4.5-0.4-6.5-1.1c-2-0.7-3.7-1.8-5.2-3.1c-1.5-1.4-2.6-3-3.4-5c-0.8-2-1.2-4.2-1.2-6.7c0-2.4,0.4-4.7,1.2-6.7
		c0.8-2,2-3.7,3.4-5.1c1.4-1.4,3.1-2.5,5.1-3.3c2-0.8,4.1-1.2,6.4-1.2c2.1,0,4.1,0.3,5.9,1c1.8,0.7,3.3,1.7,4.7,3.1
		c1.3,1.4,2.3,3.1,3.1,5.1C404.2,202,404.6,204.4,404.6,207.1z M397,203.7c0-1-0.1-1.9-0.4-2.8c-0.3-0.9-0.7-1.7-1.3-2.3
		c-0.6-0.7-1.3-1.2-2.2-1.6c-0.9-0.4-2-0.6-3.2-0.6c-2.3,0-4.2,0.7-5.8,2.1c-1.6,1.4-2.5,3.1-2.6,5.3H397z"/>
	<path class="st0" d="M407.2,191.6h7.2v4.9h0.1c0.7-1.5,1.8-2.9,3.5-4c1.7-1.2,3.6-1.7,5.9-1.7c2,0,3.7,0.3,5.1,1
		c1.4,0.7,2.6,1.6,3.5,2.8c0.9,1.1,1.6,2.4,2,3.9c0.4,1.5,0.6,3,0.6,4.6v19h-7.6v-16.8c0-0.9-0.1-1.8-0.2-2.8
		c-0.1-1-0.4-1.8-0.8-2.6c-0.4-0.8-1-1.4-1.7-1.9c-0.7-0.5-1.7-0.8-2.9-0.8c-1.2,0-2.3,0.2-3.2,0.7c-0.9,0.5-1.6,1.1-2.2,1.9
		c-0.6,0.8-1,1.6-1.3,2.6c-0.3,1-0.4,2-0.4,3v16.7h-7.6V191.6z"/>
	<path class="st0" d="M468.4,207.1c0,0.3,0,0.7,0,1c0,0.3,0,0.7-0.1,1h-23.1c0.1,1.1,0.4,2.1,0.9,3c0.5,0.9,1.1,1.7,1.9,2.3
		c0.8,0.7,1.7,1.2,2.7,1.6c1,0.4,2.1,0.6,3.2,0.6c1.9,0,3.5-0.3,4.8-1c1.3-0.7,2.4-1.7,3.2-2.9l5.1,4.1c-3,4.1-7.3,6.1-13,6.1
		c-2.4,0-4.5-0.4-6.5-1.1c-2-0.7-3.7-1.8-5.2-3.1c-1.5-1.4-2.6-3-3.4-5c-0.8-2-1.2-4.2-1.2-6.7c0-2.4,0.4-4.7,1.2-6.7
		c0.8-2,2-3.7,3.4-5.1c1.4-1.4,3.1-2.5,5.1-3.3c2-0.8,4.1-1.2,6.4-1.2c2.1,0,4.1,0.3,5.9,1c1.8,0.7,3.3,1.7,4.7,3.1
		c1.3,1.4,2.3,3.1,3.1,5.1C468,202,468.4,204.4,468.4,207.1z M460.8,203.7c0-1-0.1-1.9-0.4-2.8c-0.3-0.9-0.7-1.7-1.3-2.3
		c-0.6-0.7-1.3-1.2-2.2-1.6c-0.9-0.4-2-0.6-3.2-0.6c-2.3,0-4.2,0.7-5.8,2.1c-1.6,1.4-2.5,3.1-2.6,5.3H460.8z"/>
	<path class="st0" d="M487.7,199.7c-0.7-0.9-1.6-1.7-2.8-2.3c-1.2-0.7-2.5-1-3.9-1c-1.2,0-2.3,0.3-3.4,0.8s-1.5,1.4-1.5,2.5
		c0,1.2,0.6,2,1.7,2.5c1.1,0.5,2.8,1,4.9,1.5c1.1,0.3,2.3,0.6,3.4,1c1.2,0.4,2.2,1,3.2,1.7c0.9,0.7,1.7,1.6,2.3,2.6
		c0.6,1,0.9,2.3,0.9,3.8c0,1.9-0.3,3.4-1,4.7c-0.7,1.3-1.6,2.3-2.8,3.1c-1.2,0.8-2.5,1.4-4.1,1.7c-1.5,0.4-3.1,0.5-4.8,0.5
		c-2.4,0-4.7-0.4-6.9-1.3c-2.2-0.9-4.1-2.1-5.6-3.7l5-4.7c0.8,1.1,1.9,2,3.3,2.7c1.4,0.7,2.8,1.1,4.5,1.1c0.5,0,1.1-0.1,1.7-0.2
		c0.6-0.1,1.1-0.3,1.6-0.6c0.5-0.3,0.9-0.6,1.2-1.1c0.3-0.5,0.4-1,0.4-1.7c0-1.3-0.6-2.2-1.7-2.7c-1.2-0.5-2.9-1.1-5.2-1.6
		c-1.1-0.3-2.2-0.6-3.3-1c-1.1-0.4-2-0.9-2.9-1.6c-0.8-0.7-1.5-1.5-2-2.4c-0.5-1-0.8-2.2-0.8-3.6c0-1.7,0.3-3.1,1-4.4
		c0.7-1.2,1.6-2.2,2.8-3c1.1-0.8,2.4-1.4,3.9-1.7c1.4-0.4,2.9-0.6,4.4-0.6c2.2,0,4.3,0.4,6.4,1.1c2.1,0.8,3.7,1.9,5,3.5L487.7,199.7
		z"/>
	<path class="st0" d="M505.9,177.1h15.6c2.1,0,4.2,0.2,6.1,0.7c2,0.4,3.7,1.2,5.3,2.2c1.5,1,2.8,2.3,3.7,4c0.9,1.6,1.4,3.7,1.4,6
		c0,3.2-0.9,5.9-2.8,7.9c-1.8,2-4.3,3.4-7.5,4.1l12,19.9h-9.6l-10.4-19h-5.8v19h-8V177.1z M520.4,196.4c1.1,0,2.3-0.1,3.4-0.3
		c1.1-0.2,2.2-0.5,3.1-0.9c0.9-0.5,1.7-1.1,2.2-2c0.6-0.9,0.9-2,0.9-3.3c0-1.2-0.3-2.2-0.8-3c-0.5-0.8-1.2-1.4-2.1-1.9
		c-0.8-0.5-1.8-0.8-2.9-0.9c-1.1-0.2-2.1-0.3-3.1-0.3h-7.2v12.6H520.4z"/>
	<path class="st0" d="M558.7,218.1h-0.2c-0.8,1.4-2,2.5-3.7,3.3c-1.7,0.9-3.6,1.3-5.8,1.3c-1.2,0-2.5-0.2-3.8-0.5s-2.6-0.8-3.7-1.6
		c-1.1-0.7-2-1.7-2.8-2.9c-0.7-1.2-1.1-2.7-1.1-4.5c0-2.3,0.6-4.1,1.9-5.4c1.3-1.4,2.9-2.4,5-3.1c2-0.7,4.3-1.2,6.7-1.4
		c2.5-0.2,4.9-0.3,7.2-0.3v-0.8c0-1.9-0.7-3.3-2.1-4.2c-1.4-0.9-3-1.4-4.9-1.4c-1.6,0-3.1,0.3-4.6,1c-1.5,0.7-2.7,1.5-3.7,2.5
		l-3.9-4.6c1.7-1.6,3.7-2.8,6-3.6c2.3-0.8,4.5-1.2,6.9-1.2c2.7,0,4.9,0.4,6.7,1.1c1.8,0.8,3.1,1.8,4.1,3c1,1.2,1.7,2.6,2.1,4.1
		c0.4,1.5,0.6,3,0.6,4.6v18.5h-7.1V218.1z M558.6,208.1h-1.7c-1.2,0-2.5,0.1-3.9,0.2c-1.4,0.1-2.6,0.3-3.7,0.7
		c-1.1,0.4-2.1,0.9-2.8,1.5c-0.8,0.7-1.1,1.6-1.1,2.7c0,0.7,0.2,1.3,0.5,1.8c0.3,0.5,0.7,0.9,1.2,1.2c0.5,0.3,1.1,0.5,1.7,0.6
		c0.6,0.1,1.3,0.2,1.9,0.2c2.6,0,4.6-0.7,5.9-2.1c1.4-1.4,2-3.3,2-5.7V208.1z"/>
	<path class="st0" d="M570.1,191.6h7.6v30.4h-7.6V191.6z M576.4,177.1h8.6l-8.9,9.1h-6L576.4,177.1z"/>
	<path class="st0" d="M603,200c-0.6-0.8-1.5-1.6-2.7-2.1c-1.2-0.6-2.4-0.9-3.6-0.9c-1.4,0-2.6,0.3-3.7,0.9c-1.1,0.6-1.9,1.3-2.6,2.2
		c-0.7,0.9-1.2,2-1.6,3.1c-0.3,1.2-0.5,2.3-0.5,3.5c0,1.2,0.2,2.4,0.5,3.5c0.4,1.2,0.9,2.2,1.6,3.1c0.7,0.9,1.6,1.7,2.7,2.2
		c1.1,0.6,2.3,0.9,3.8,0.9c1.2,0,2.4-0.2,3.5-0.7c1.2-0.5,2.1-1.1,2.8-2l4.7,4.8c-1.3,1.4-2.9,2.4-4.8,3.1c-2,0.7-4.1,1.1-6.4,1.1
		c-2.2,0-4.4-0.4-6.4-1.1c-2-0.7-3.8-1.8-5.3-3.2c-1.5-1.4-2.7-3.1-3.5-5.1c-0.9-2-1.3-4.2-1.3-6.8c0-2.4,0.4-4.7,1.3-6.6
		c0.9-2,2-3.7,3.5-5.1c1.5-1.4,3.2-2.5,5.2-3.2c2-0.8,4.1-1.1,6.3-1.1c2.2,0,4.4,0.4,6.5,1.3c2.1,0.8,3.7,2,5,3.5L603,200z"/>
	<path class="st0" d="M637.4,207.1c0,0.3,0,0.7,0,1c0,0.3,0,0.7-0.1,1h-23.1c0.1,1.1,0.4,2.1,0.9,3c0.5,0.9,1.1,1.7,1.9,2.3
		c0.8,0.7,1.7,1.2,2.7,1.6c1,0.4,2.1,0.6,3.2,0.6c1.9,0,3.5-0.3,4.8-1c1.3-0.7,2.4-1.7,3.2-2.9l5.1,4.1c-3,4.1-7.3,6.1-13,6.1
		c-2.4,0-4.5-0.4-6.5-1.1c-2-0.7-3.7-1.8-5.2-3.1c-1.5-1.4-2.6-3-3.4-5c-0.8-2-1.2-4.2-1.2-6.7c0-2.4,0.4-4.7,1.2-6.7
		c0.8-2,2-3.7,3.4-5.1c1.4-1.4,3.1-2.5,5.1-3.3c2-0.8,4.1-1.2,6.4-1.2c2.1,0,4.1,0.3,5.9,1c1.8,0.7,3.3,1.7,4.7,3.1
		c1.3,1.4,2.3,3.1,3.1,5.1C637.1,202,637.4,204.4,637.4,207.1z M629.8,203.7c0-1-0.1-1.9-0.4-2.8c-0.3-0.9-0.7-1.7-1.3-2.3
		c-0.6-0.7-1.3-1.2-2.2-1.6c-0.9-0.4-2-0.6-3.2-0.6c-2.3,0-4.2,0.7-5.8,2.1c-1.6,1.4-2.5,3.1-2.6,5.3H629.8z"/>
	<path class="st0" d="M656.7,199.7c-0.7-0.9-1.6-1.7-2.8-2.3c-1.2-0.7-2.5-1-3.9-1c-1.2,0-2.3,0.3-3.4,0.8s-1.5,1.4-1.5,2.5
		c0,1.2,0.6,2,1.7,2.5c1.1,0.5,2.8,1,4.9,1.5c1.1,0.3,2.3,0.6,3.4,1c1.2,0.4,2.2,1,3.2,1.7c0.9,0.7,1.7,1.6,2.3,2.6
		c0.6,1,0.9,2.3,0.9,3.8c0,1.9-0.3,3.4-1,4.7c-0.7,1.3-1.6,2.3-2.8,3.1c-1.2,0.8-2.5,1.4-4.1,1.7c-1.5,0.4-3.1,0.5-4.8,0.5
		c-2.4,0-4.7-0.4-6.9-1.3c-2.2-0.9-4.1-2.1-5.6-3.7l5-4.7c0.8,1.1,1.9,2,3.3,2.7c1.4,0.7,2.8,1.1,4.5,1.1c0.5,0,1.1-0.1,1.7-0.2
		c0.6-0.1,1.1-0.3,1.6-0.6c0.5-0.3,0.9-0.6,1.2-1.1c0.3-0.5,0.4-1,0.4-1.7c0-1.3-0.6-2.2-1.7-2.7c-1.2-0.5-2.9-1.1-5.2-1.6
		c-1.1-0.3-2.2-0.6-3.3-1c-1.1-0.4-2-0.9-2.9-1.6c-0.8-0.7-1.5-1.5-2-2.4c-0.5-1-0.8-2.2-0.8-3.6c0-1.7,0.3-3.1,1-4.4
		c0.7-1.2,1.6-2.2,2.8-3c1.1-0.8,2.4-1.4,3.9-1.7c1.4-0.4,2.9-0.6,4.4-0.6c2.2,0,4.3,0.4,6.4,1.1c2.1,0.8,3.7,1.9,5,3.5L656.7,199.7
		z"/>
	<path class="st0" d="M662.1,217.5c0-1.4,0.5-2.5,1.5-3.5c1-1,2.2-1.5,3.6-1.5c1.4,0,2.5,0.5,3.5,1.4c1,0.9,1.5,2.1,1.5,3.4
		c0,1.4-0.5,2.5-1.5,3.5c-1,1-2.2,1.5-3.6,1.5c-0.7,0-1.3-0.1-1.9-0.4c-0.6-0.3-1.1-0.6-1.6-1c-0.5-0.4-0.8-0.9-1.1-1.5
		C662.2,218.8,662.1,218.2,662.1,217.5z"/>
</g>
</svg>
