<?xml version="1.0" encoding="utf-8"?>
<!-- Generator: Adobe Illustrator 22.0.1, SVG Export Plug-In . SVG Version: 6.00 Build 0)  -->
<svg version="1.1" id="Layer_1" xmlns="http://www.w3.org/2000/svg" xmlns:xlink="http://www.w3.org/1999/xlink" x="0px" y="0px"
	 viewBox="0 0 598 71" style="enable-background:new 0 0 598 71;" xml:space="preserve">
<style type="text/css">
	.st0{fill:#4C697B;}
	.st1{fill:#5B7E96;}
	.st2{fill:#415364;}
	.st3{enable-background:new    ;}
	.st4{fill:#FFFFFF;}
</style>
<rect x="-1.1" y="0.1" class="st0" width="597.9" height="72.1"/>
<path class="st1" d="M525.2,56.3c3.6,2.6,8.2,5,14,7.2V39.9l10.9-6v33l0,0v-33l9.9,4.3V20l10.9-6v56.4V14l10.9,6v21.6l5.8-3.2l0,0
	l9,11V0.8c-1.1,0-2.2,0-3.3,0c-44.3,0-80.3,16-80.3,35.7c0,7.1,3.8,13.7,11.3,19.3l0,0C524.7,55.9,524.9,56.1,525.2,56.3"/>
<path class="st2" d="M560,47.2v-9l-9.9-4.3v33c1.8,0.4,3.6,0.9,5.6,1.3V49.6L560,47.2z"/>
<path class="st2" d="M587.6,71.7c2.9,0.1,5.9,0.2,9,0.2V43.3l-9-4.9V71.7z"/>
<path class="st2" d="M581.8,41.6V20l-10.9-6v56.4c1.9,0.2,3.8,0.4,5.8,0.6V44.4L581.8,41.6z"/>
<g class="st3">
	<path class="st4" d="M92.3,46.9c-1.3,0.5-2.6,0.8-4,0.8c-1.5,0-2.9-0.3-4.2-0.8c-1.3-0.5-2.3-1.3-3.3-2.2c-0.9-0.9-1.6-2.1-2.1-3.4
		S78,38.5,78,37s0.3-3,0.8-4.3c0.5-1.3,1.2-2.4,2.1-3.4c0.9-0.9,2-1.7,3.3-2.2c1.3-0.5,2.7-0.8,4.2-0.8c1.3,0,2.5,0.2,3.7,0.6
		c1.2,0.4,2.2,1.1,3,2l-0.4,0.5c-0.4-0.4-0.9-0.8-1.4-1.1c-0.5-0.3-1-0.6-1.6-0.8c-0.6-0.2-1.1-0.4-1.7-0.5
		c-0.6-0.1-1.1-0.1-1.7-0.1c-1.4,0-2.8,0.3-4,0.8c-1.2,0.5-2.2,1.2-3.1,2.2c-0.8,0.9-1.5,2-2,3.2c-0.5,1.2-0.7,2.5-0.7,4
		s0.2,2.7,0.7,4c0.5,1.2,1.1,2.3,2,3.2c0.8,0.9,1.9,1.6,3.1,2.2s2.5,0.8,4,0.8c1.3,0,2.5-0.2,3.7-0.7c1.2-0.5,2.2-1.2,3-2.2l0.5,0.4
		C94.7,45.6,93.6,46.4,92.3,46.9z"/>
</g>
<g class="st3">
	<path class="st4" d="M111.8,40.5c0,1-0.2,2-0.5,2.8s-0.8,1.6-1.4,2.2c-0.6,0.6-1.3,1.1-2.2,1.4c-0.8,0.3-1.8,0.5-2.8,0.5
		c-1,0-1.9-0.2-2.8-0.5c-0.8-0.3-1.6-0.8-2.2-1.4c-0.6-0.6-1.1-1.4-1.4-2.2S98,41.5,98,40.5c0-1,0.2-2,0.5-2.8
		c0.3-0.8,0.8-1.6,1.4-2.2c0.6-0.6,1.3-1.1,2.2-1.4c0.8-0.3,1.8-0.5,2.8-0.5c1,0,1.9,0.2,2.8,0.5c0.8,0.3,1.6,0.8,2.2,1.4
		c0.6,0.6,1.1,1.3,1.4,2.2C111.6,38.5,111.8,39.5,111.8,40.5z M111.2,40.5c0-0.9-0.1-1.7-0.4-2.5c-0.3-0.8-0.7-1.5-1.2-2
		s-1.2-1-2-1.4s-1.6-0.5-2.6-0.5c-1,0-1.8,0.2-2.6,0.5c-0.8,0.3-1.4,0.8-2,1.4s-1,1.3-1.2,2c-0.3,0.8-0.4,1.6-0.4,2.5
		c0,0.9,0.1,1.7,0.4,2.5c0.3,0.8,0.7,1.5,1.2,2c0.5,0.6,1.2,1,2,1.4c0.8,0.3,1.6,0.5,2.6,0.5c1,0,1.8-0.2,2.6-0.5
		c0.8-0.3,1.4-0.8,2-1.4c0.5-0.6,1-1.3,1.2-2C111,42.2,111.2,41.4,111.2,40.5z"/>
	<path class="st4" d="M118,35.8c0.4-0.5,0.8-0.9,1.2-1.2c0.5-0.3,1-0.6,1.5-0.8c0.5-0.2,1.1-0.3,1.7-0.3c0.9,0,1.7,0.2,2.3,0.5
		c0.6,0.3,1.1,0.8,1.5,1.3c0.4,0.5,0.6,1.1,0.8,1.8c0.2,0.7,0.2,1.3,0.2,2v7.9h-0.6v-7.9c0-0.5-0.1-1.1-0.2-1.7s-0.3-1.2-0.6-1.7
		s-0.7-0.9-1.3-1.2c-0.5-0.3-1.2-0.5-2-0.5c-0.7,0-1.4,0.1-2,0.4c-0.6,0.3-1.2,0.7-1.7,1.3c-0.5,0.6-0.8,1.2-1.1,2
		c-0.3,0.8-0.4,1.7-0.4,2.7v6.6h-0.6v-9.8c0-0.2,0-0.5,0-0.8s0-0.6,0-0.9c0-0.3,0-0.6,0-0.9c0-0.3,0-0.5-0.1-0.7h0.6
		c0,0.2,0,0.4,0,0.7c0,0.3,0,0.6,0,0.9c0,0.3,0,0.7,0,1c0,0.3,0,0.6,0,0.8h0.1C117.4,36.8,117.7,36.3,118,35.8z"/>
	<path class="st4" d="M137.1,47.4c-0.3,0.1-0.6,0.1-0.9,0.1c-1,0-1.8-0.3-2.2-0.9c-0.4-0.6-0.7-1.3-0.7-2.2v-9.9h-2.9V34h2.8v-3.9
		h0.6V34h3.9v0.5h-3.9v9.9c0,0.9,0.2,1.5,0.7,1.9c0.4,0.4,1,0.6,1.7,0.6c0.5,0,1-0.1,1.5-0.3l0.1,0.5
		C137.6,47.2,137.4,47.3,137.1,47.4z"/>
	<path class="st4" d="M150.5,44.1c0,0.5,0,1,0.1,1.6c0,0.6,0.1,1,0.2,1.4h-0.6c0-0.2-0.1-0.4-0.1-0.7c0-0.3,0-0.6-0.1-0.9
		c0-0.3,0-0.6-0.1-0.9c0-0.3,0-0.5,0-0.7h-0.1c-0.4,1.2-1,2.1-2,2.7c-0.9,0.6-1.9,0.9-3,0.9c-0.5,0-1.1-0.1-1.6-0.2
		c-0.5-0.2-1-0.4-1.4-0.7s-0.8-0.7-1-1.2c-0.3-0.5-0.4-1-0.4-1.7c0-0.9,0.2-1.7,0.7-2.3c0.5-0.6,1.1-1,1.8-1.3
		c0.7-0.3,1.5-0.5,2.3-0.6c0.8-0.1,1.6-0.1,2.3-0.1h2.3v-1.1c0-1.5-0.4-2.5-1.2-3.2c-0.8-0.7-1.8-1-3.1-1c-0.8,0-1.5,0.1-2.2,0.4
		c-0.7,0.3-1.3,0.7-1.8,1.1l-0.3-0.5c0.6-0.5,1.3-0.9,2.1-1.2s1.5-0.4,2.3-0.4c1.5,0,2.7,0.4,3.6,1.2c0.9,0.8,1.3,2,1.3,3.6V44.1z
		 M149.9,39.9h-2c-0.7,0-1.5,0-2.3,0.1c-0.8,0.1-1.5,0.3-2.2,0.5c-0.7,0.3-1.2,0.6-1.6,1.1s-0.6,1.2-0.6,2c0,0.6,0.1,1.1,0.4,1.5
		c0.2,0.4,0.5,0.7,0.9,1s0.8,0.4,1.2,0.5c0.4,0.1,0.9,0.2,1.3,0.2c1,0,1.8-0.2,2.4-0.5c0.6-0.4,1.2-0.8,1.6-1.4s0.7-1.2,0.8-1.9
		c0.2-0.7,0.2-1.3,0.2-2V39.9z"/>
	<path class="st4" d="M165.5,35.7c-0.5-0.5-1.1-0.9-1.7-1.2c-0.7-0.3-1.4-0.4-2.1-0.4c-0.9,0-1.8,0.2-2.5,0.5
		c-0.7,0.4-1.4,0.8-1.9,1.4c-0.5,0.6-0.9,1.3-1.2,2.1c-0.3,0.8-0.4,1.6-0.4,2.5s0.1,1.7,0.4,2.5c0.3,0.8,0.7,1.5,1.2,2
		c0.5,0.6,1.2,1,1.9,1.4c0.7,0.3,1.6,0.5,2.5,0.5c0.7,0,1.4-0.1,2.1-0.4c0.7-0.2,1.3-0.6,1.8-1.1l0.4,0.4c-0.6,0.6-1.2,1-2,1.2
		c-0.8,0.3-1.6,0.4-2.4,0.4c-1,0-1.9-0.2-2.7-0.5c-0.8-0.3-1.5-0.8-2.1-1.4s-1.1-1.3-1.4-2.2c-0.3-0.9-0.5-1.8-0.5-2.8
		s0.2-1.9,0.5-2.8s0.8-1.6,1.4-2.2c0.6-0.6,1.3-1.1,2.1-1.5c0.8-0.4,1.7-0.5,2.7-0.5c0.8,0,1.6,0.2,2.4,0.5c0.8,0.3,1.4,0.7,1.9,1.3
		L165.5,35.7z"/>
	<path class="st4" d="M174.1,47.4c-0.3,0.1-0.6,0.1-0.9,0.1c-1,0-1.8-0.3-2.2-0.9c-0.4-0.6-0.7-1.3-0.7-2.2v-9.9h-2.9V34h2.8v-3.9
		h0.6V34h3.9v0.5h-3.9v9.9c0,0.9,0.2,1.5,0.7,1.9c0.4,0.4,1,0.6,1.7,0.6c0.5,0,1-0.1,1.5-0.3l0.1,0.5
		C174.6,47.2,174.4,47.3,174.1,47.4z"/>
	<path class="st4" d="M191.1,40.5c0,1-0.2,2-0.5,2.8s-0.8,1.6-1.4,2.2c-0.6,0.6-1.3,1.1-2.2,1.4c-0.8,0.3-1.8,0.5-2.8,0.5
		c-1,0-1.9-0.2-2.8-0.5c-0.8-0.3-1.6-0.8-2.2-1.4c-0.6-0.6-1.1-1.4-1.4-2.2s-0.5-1.8-0.5-2.8c0-1,0.2-2,0.5-2.8
		c0.3-0.8,0.8-1.6,1.4-2.2c0.6-0.6,1.3-1.1,2.2-1.4c0.8-0.3,1.8-0.5,2.8-0.5c1,0,1.9,0.2,2.8,0.5c0.8,0.3,1.6,0.8,2.2,1.4
		c0.6,0.6,1.1,1.3,1.4,2.2C190.9,38.5,191.1,39.5,191.1,40.5z M190.5,40.5c0-0.9-0.1-1.7-0.4-2.5c-0.3-0.8-0.7-1.5-1.2-2
		s-1.2-1-2-1.4s-1.6-0.5-2.6-0.5c-1,0-1.8,0.2-2.6,0.5c-0.8,0.3-1.4,0.8-2,1.4s-1,1.3-1.2,2c-0.3,0.8-0.4,1.6-0.4,2.5
		c0,0.9,0.1,1.7,0.4,2.5c0.3,0.8,0.7,1.5,1.2,2c0.5,0.6,1.2,1,2,1.4c0.8,0.3,1.6,0.5,2.6,0.5c1,0,1.8-0.2,2.6-0.5
		c0.8-0.3,1.4-0.8,2-1.4c0.5-0.6,1-1.3,1.2-2C190.3,42.2,190.5,41.4,190.5,40.5z"/>
</g>
</svg>
