<?xml version="1.0" encoding="utf-8"?>
<!-- Generator: Adobe Illustrator 22.1.0, SVG Export Plug-In . SVG Version: 6.00 Build 0)  -->
<svg version="1.1" id="Layer_1" xmlns="http://www.w3.org/2000/svg" xmlns:xlink="http://www.w3.org/1999/xlink" x="0px" y="0px"
	 viewBox="0 0 598 71" style="enable-background:new 0 0 598 71;" xml:space="preserve">
<style type="text/css">
	.st0{fill:#4C697B;}
	.st1{fill:#5B7E96;}
	.st2{fill:#415364;}
	.st3{fill:#FFFFFF;}
	.st4{font-family:'AvenirNext-UltraLight';}
	.st5{font-size:28.5556px;}
</style>
<rect x="-1.1" y="0.1" class="st0" width="597.9" height="72.1"/>
<path class="st1" d="M525.2,56.3c3.6,2.6,8.2,5,14,7.2V39.9l10.9-6v33v0v-33l9.9,4.3V20l10.9-6v56.4V14l10.9,6v21.6l5.8-3.2v0l9,11
	V0.8c-1.1,0-2.2,0-3.3,0c-44.3,0-80.3,16-80.3,35.7c0,7.1,3.8,13.7,11.3,19.3c0,0,0,0,0,0C524.7,55.9,524.9,56.1,525.2,56.3"/>
<path class="st2" d="M560,47.2v-9l-9.9-4.3v33c1.8,0.4,3.6,0.9,5.6,1.3V49.6L560,47.2z"/>
<path class="st2" d="M587.6,71.7c2.9,0.1,5.9,0.2,9,0.2V43.3l-9-4.9V71.7z"/>
<path class="st2" d="M581.8,41.6V20l-10.9-6v56.4c1.9,0.2,3.8,0.4,5.8,0.6V44.4L581.8,41.6z"/>
<text transform="matrix(1 0 0 1 75.9795 47.0978)"><tspan x="0" y="0" class="st3 st4 st5">C</tspan><tspan x="20.3" y="0" class="st3 st4 st5">ontacto</tspan></text>
</svg>
