<?xml version="1.0" encoding="utf-8"?>
<!-- Generator: Adobe Illustrator 22.1.0, SVG Export Plug-In . SVG Version: 6.00 Build 0)  -->
<svg version="1.1" id="Layer_1" xmlns="http://www.w3.org/2000/svg" xmlns:xlink="http://www.w3.org/1999/xlink" x="0px" y="0px"
	 viewBox="0 0 480 133" style="enable-background:new 0 0 480 133;" xml:space="preserve">
<style type="text/css">
	.st0{fill:#5B7E96;}
	.st1{fill:#415364;}
	.st2{fill:#F3BD48;}
</style>
<path class="st0" d="M38.2,73.4c4,2.8,9,5.5,15.4,7.9V55.4l11.9-6.6v36.1V48.9l10.8,4.7V33.8l11.9-6.6v61.7V27.2l11.9,6.5v23.6
	l6.4-3.5v0l9.9,12V12.7c-1.2,0-2.4,0-3.6,0c-48.5,0-87.8,17.5-87.8,39c0,7.8,4.2,15,12.4,21.1c0,0,0,0,0,0
	C37.6,73,37.9,73.2,38.2,73.4"/>
<path class="st1" d="M76.3,63.5v-9.9l-10.8-4.7v36.1c1.9,0.5,4,0.9,6.1,1.4V66.1L76.3,63.5z"/>
<path class="st1" d="M106.4,90.2c3.2,0.1,6.5,0.2,9.9,0.2V59.2l-9.9-5.4V90.2z"/>
<path class="st1" d="M100.1,57.3V33.7l-11.9-6.5v61.7c2,0.2,4.2,0.4,6.3,0.6V60.4L100.1,57.3z"/>
<path class="st2" d="M25,79v36.9h91.4v-10.2c-37.5-0.6-59.6-6.6-72.7-13.4C36.6,88.8,30.1,84.5,25,79"/>
<path class="st1" d="M178,62.5l-6.3,8.1c-3.3-4-8-6.6-12.5-6.6c-8.3,0-14.6,6.7-14.6,15.5c0,8.8,6.4,15.6,14.6,15.6
	c4.3,0,9.1-2.3,12.5-5.9l6.4,7.3c-5.1,5.5-12.5,9-19.5,9c-14.4,0-25.2-11.2-25.2-25.8c0-14.5,11.1-25.5,25.7-25.5
	C166,54.1,173.2,57.3,178,62.5"/>
<path class="st1" d="M231.9,79.7c0,14.5-11.1,25.7-25.9,25.7c-14.7,0-25.9-11.1-25.9-25.7c0-14.7,11.1-25.6,25.9-25.6
	C220.7,54.1,231.9,65,231.9,79.7 M191.3,79.7c0,8.9,6.8,15.8,14.9,15.8c8,0,14.6-6.9,14.6-15.8c0-8.9-6.5-15.6-14.6-15.6
	C198,64,191.3,70.8,191.3,79.7"/>
<path class="st1" d="M322.7,62.5l-6.3,8.1c-3.3-4-8-6.6-12.5-6.6c-8.3,0-14.6,6.7-14.6,15.5c0,8.8,6.4,15.6,14.6,15.6
	c4.3,0,9.1-2.3,12.5-5.9l6.4,7.3c-5.1,5.5-12.5,9-19.5,9c-14.4,0-25.2-11.2-25.2-25.8c0-14.5,11.1-25.5,25.7-25.5
	C310.7,54.1,318,57.3,322.7,62.5"/>
<path class="st1" d="M376.6,79.7c0,14.5-11.1,25.7-25.9,25.7c-14.7,0-25.9-11.1-25.9-25.7c0-14.7,11.1-25.6,25.9-25.6
	C365.4,54.1,376.6,65,376.6,79.7 M336,79.7c0,8.9,6.8,15.8,14.9,15.8c8,0,14.6-6.9,14.6-15.8c0-8.9-6.5-15.6-14.6-15.6
	C342.7,64,336,70.8,336,79.7"/>
<path class="st1" d="M423.7,62.5l-6.3,8.1c-3.3-4-8-6.6-12.5-6.6c-8.3,0-14.6,6.7-14.6,15.5c0,8.8,6.4,15.6,14.6,15.6
	c4.3,0,9.1-2.3,12.5-5.9l6.4,7.3c-5.1,5.5-12.5,9-19.5,9c-14.4,0-25.2-11.2-25.2-25.8c0-14.5,11.1-25.5,25.6-25.5
	C411.6,54.1,418.9,57.3,423.7,62.5"/>
<polygon class="st1" points="441.1,63.9 441.1,74.8 466.9,74.8 466.9,84.3 441.1,84.3 441.1,95.4 467,95.4 467,104.9 430.2,104.9 
	430.2,54.5 466.9,54.5 466.9,63.9 "/>
<polygon class="st1" points="260.2,88.6 277.7,54.5 266.8,54.5 254.7,77.1 242.4,54.5 231.5,54.5 249.3,88.9 249.3,95.9 246.3,95.9 
	246.3,104.8 249.3,104.8 249.3,104.9 260.2,104.9 260.2,104.8 263.2,104.8 263.2,95.9 260.2,95.9 "/>
</svg>
