<?xml version="1.0" encoding="utf-8"?>
<!-- Generator: Adobe Illustrator 22.0.1, SVG Export Plug-In . SVG Version: 6.00 Build 0)  -->
<svg version="1.1" id="Layer_1" xmlns="http://www.w3.org/2000/svg" xmlns:xlink="http://www.w3.org/1999/xlink" x="0px" y="0px"
	 viewBox="0 0 107 155" style="enable-background:new 0 0 107 155;" xml:space="preserve">
<style type="text/css">
	.st0{fill:#DCDAC8;}
	.st1{fill:#FFFFFF;}
	.st2{clip-path:url(#SVGID_2_);fill:#4C697B;}
	.st3{clip-path:url(#SVGID_4_);fill:#415364;}
	.st4{clip-path:url(#SVGID_6_);fill:#DCDAC8;}
	.st5{clip-path:url(#SVGID_8_);fill:#BFBDAD;}
	.st6{clip-path:url(#SVGID_10_);fill:#0E303F;}
	.st7{clip-path:url(#SVGID_12_);fill:#DCDAC8;}
	.st8{clip-path:url(#SVGID_14_);fill:#DCDAC8;}
	.st9{clip-path:url(#SVGID_16_);fill:#F2EFDC;}
	.st10{clip-path:url(#SVGID_18_);fill:#DCDAC8;}
	.st11{clip-path:url(#SVGID_20_);fill:#0E303F;}
	.st12{clip-path:url(#SVGID_22_);fill:#0E303F;}
	.st13{clip-path:url(#SVGID_24_);fill:#0E303F;}
	.st14{clip-path:url(#SVGID_26_);fill:#0E303F;}
	.st15{clip-path:url(#SVGID_28_);fill:#0E303F;}
	.st16{clip-path:url(#SVGID_30_);fill:#0E303F;}
	.st17{clip-path:url(#SVGID_32_);fill:#F2EFDC;}
	.st18{enable-background:new    ;}
	.st19{fill:#3A5767;}
	.st20{font-family:'AvenirNext-Regular';}
	.st21{font-size:12px;}
</style>
<rect y="-0.1" class="st0" width="107.4" height="125.9"/>
<rect y="125.8" class="st1" width="107.4" height="29.3"/>
<g>
	<g>
		<defs>
			<rect id="SVGID_1_" y="-0.1" width="107.4" height="125.9"/>
		</defs>
		<clipPath id="SVGID_2_">
			<use xlink:href="#SVGID_1_"  style="overflow:visible;"/>
		</clipPath>
		<path class="st2" d="M54.3,137.4c21.2,0,41.3-3.1,59-8.5L109,95.5c-0.5-4.1-8-6.9-17.2-7.9c-25.1-2.8-50-2.8-75.1,0
			c-9.2,1-16.7,3.8-17.2,7.9l-4.3,33.4C13,134.3,33,137.4,54.3,137.4"/>
	</g>
	<g>
		<defs>
			<rect id="SVGID_3_" y="-0.1" width="107.4" height="125.9"/>
		</defs>
		<clipPath id="SVGID_4_">
			<use xlink:href="#SVGID_3_"  style="overflow:visible;"/>
		</clipPath>
		<path class="st3" d="M113.3,128.9L109,95.5c-0.5-4.1-8-6.9-17.2-7.9c-13-1.4-26-2.1-38.9-2l-11.7,16.9l46.5,32.3
			C96.6,133.3,105.2,131.3,113.3,128.9"/>
	</g>
	<g>
		<defs>
			<rect id="SVGID_5_" y="-0.1" width="107.4" height="125.9"/>
		</defs>
		<clipPath id="SVGID_6_">
			<use xlink:href="#SVGID_5_"  style="overflow:visible;"/>
		</clipPath>
		<path class="st4" d="M70.6,93.4c-0.6,7.6-8.3,12.9-17.3,12.9s-16.8-5.4-17.3-13c-0.2-3.9-0.5-7.7-0.7-11.6
			c-0.5-7.6,7.5-14.6,18-14.6s18.6,7.1,18,14.6C71,85.7,70.8,89.6,70.6,93.4"/>
	</g>
	<g>
		<defs>
			<rect id="SVGID_7_" y="-0.1" width="107.4" height="125.9"/>
		</defs>
		<clipPath id="SVGID_8_">
			<use xlink:href="#SVGID_7_"  style="overflow:visible;"/>
		</clipPath>
		<path class="st5" d="M59.2,68c-4.4,2.1-7.5,9.5-7.4,18.3c0,5.4,0,10.8,0.1,16.2c0,1.3,0.1,2.6,0.2,3.8c0.4,0,0.8,0,1.2,0
			c9,0,16.8-5.3,17.3-12.9c0.1-2.1,0.3-4.2,0.4-6.3c0.3-4.4-0.2-8.6-1.4-11.9C67.5,72,63.8,69.3,59.2,68"/>
	</g>
	<g>
		<defs>
			<rect id="SVGID_9_" y="-0.1" width="107.4" height="125.9"/>
		</defs>
		<clipPath id="SVGID_10_">
			<use xlink:href="#SVGID_9_"  style="overflow:visible;"/>
		</clipPath>
		<path class="st6" d="M53.4,27.5L53.4,27.5C53.3,27.5,53.3,27.5,53.4,27.5C53.3,27.5,53.3,27.5,53.4,27.5L53.4,27.5
			C34,27.3,29.3,39.9,30.4,62c0.4,8.6,2.5,15.1,4.4,19.9c0.6,1.6,10.2,13,13.1,13c1.3,0,3.6,0.5,5.5,0.4c1.9,0.1,4-0.4,5.4-0.4
			c2.9,0,12.5-11.4,13.1-13c1.9-4.9,4-11.4,4.4-19.9C77.2,40.5,70.9,27,53.4,27.5"/>
	</g>
	<g>
		<defs>
			<rect id="SVGID_11_" y="-0.1" width="107.4" height="125.9"/>
		</defs>
		<clipPath id="SVGID_12_">
			<use xlink:href="#SVGID_11_"  style="overflow:visible;"/>
		</clipPath>
		<path class="st7" d="M36,68c0.1,2.3-1.1,4.3-2.7,4.6c-1.6,0.2-3-1.4-3.1-3.8c-0.2-3.7-0.4-7.4-0.6-11.2c-0.1-2.3,1.1-4.4,2.8-4.6
			c1.7-0.2,3.1,1.5,3.2,3.8C35.7,60.6,35.8,64.3,36,68"/>
	</g>
	<g>
		<defs>
			<rect id="SVGID_13_" y="-0.1" width="107.4" height="125.9"/>
		</defs>
		<clipPath id="SVGID_14_">
			<use xlink:href="#SVGID_13_"  style="overflow:visible;"/>
		</clipPath>
		<path class="st8" d="M75.9,68.8c-0.1,2.3-1.5,4-3.1,3.8S70,70.3,70.1,68c0.1-3.7,0.3-7.5,0.4-11.2c0.1-2.3,1.5-4,3.2-3.8
			s2.9,2.3,2.8,4.6C76.3,61.4,76.1,65.1,75.9,68.8"/>
	</g>
	<g>
		<defs>
			<rect id="SVGID_15_" y="-0.1" width="107.4" height="125.9"/>
		</defs>
		<clipPath id="SVGID_16_">
			<use xlink:href="#SVGID_15_"  style="overflow:visible;"/>
		</clipPath>
		<path class="st9" d="M71.6,57.8c-0.5-10,0.9-19.3,0.9-19.3s-9.5-4.9-16.9-4.6c-0.8,0-1.6,0.2-2.6,0.6c-0.9-0.4-1.8-0.6-2.6-0.6
			c-7.4-0.3-16.9,4.6-16.9,4.6s1.4,9.2,0.9,19.3s-1.8,18.8,1.5,21.6c3.4,2.8,9,9.2,16.6,9.6c0.1,0,0.3,0,0.4,0c0.1,0,0.3,0,0.4,0
			c7.5-0.3,13.2-6.7,16.6-9.6C73.4,76.6,72,67.8,71.6,57.8"/>
	</g>
	<g>
		<defs>
			<rect id="SVGID_17_" y="-0.1" width="107.4" height="125.9"/>
		</defs>
		<clipPath id="SVGID_18_">
			<use xlink:href="#SVGID_17_"  style="overflow:visible;"/>
		</clipPath>
		<path class="st10" d="M74.4,38.5c0,0-10.4-4.9-18.5-4.6c-0.6,0-1.3,0.2-2.1,0.4c-0.1,18.2-0.1,36.5-0.1,54.7
			c8.2-0.4,14.4-6.8,18.1-9.5c3.7-2.8,2.2-11.6,1.6-21.6C72.9,47.7,74.4,38.5,74.4,38.5"/>
	</g>
	<g>
		<defs>
			<rect id="SVGID_19_" y="-0.1" width="107.4" height="125.9"/>
		</defs>
		<clipPath id="SVGID_20_">
			<use xlink:href="#SVGID_19_"  style="overflow:visible;"/>
		</clipPath>
		<path class="st11" d="M31.5,57.2c0,0-1.9-21.2-3.4-23.4c-1.5-2.2,18.5-6.6,24.4-6.6c5.8-0.3,11.2,1.5,14.6,2.2
			c3.2,0.6-13,13.5-12.7,13.6c0.4-1.1,0.7-2.3,1.1-3.4c-1.2,0.9-2.5,1.9-3.7,2.9c-5-1.3-10.2-2.5-15.3-3.5c0,2.8,0.1,5.6,0.1,8.3
			c-1,1.4-2,2.8-3,4.2c-0.2,1.8-0.5,3.7-0.7,5.5C32.5,57.1,32,57.2,31.5,57.2"/>
	</g>
	<g>
		<defs>
			<rect id="SVGID_21_" y="-0.1" width="107.4" height="125.9"/>
		</defs>
		<clipPath id="SVGID_22_">
			<use xlink:href="#SVGID_21_"  style="overflow:visible;"/>
		</clipPath>
		<path class="st12" d="M74.6,57.2c0,0,2.5-21.2,3.4-23.4c1-2.5-18.5-6.6-24.3-6.6c-5.8-0.3-10.7,1.4-14.2,2.2
			c-2.1,0.3,17.3-0.6,22.8,2.8c1.9,1.1-5.6,10.2-5.6,10.3c4.3-1.3,8.6-2.5,13-3.5c0,2.8-0.1,5.6-0.1,8.3c1,1.4,2,2.8,3,4.2
			c0.2,1.8,0.4,3.7,0.7,5.5C73.7,57.2,74.1,57.2,74.6,57.2"/>
	</g>
	<g>
		<defs>
			<rect id="SVGID_23_" y="-0.1" width="107.4" height="125.9"/>
		</defs>
		<clipPath id="SVGID_24_">
			<use xlink:href="#SVGID_23_"  style="overflow:visible;"/>
		</clipPath>
		<path class="st13" d="M39.9,66.9L39.9,66.9c-2.4,0-4.6-1-6.2-2.6c-1.4-1.5-2.1-3.3-2-5.3l0.1-1.7c0-0.5,0.1-1,0.2-1.4l0.1-0.5
			l0.5-0.2c4.9-1.6,10.1-1.8,15.2-0.6l0,0c0.8,0.2,3.3,1.1,3.3,2.8l0.1,1.7c0.1,1.8-0.6,3.6-1.9,5c-1.5,1.7-3.8,2.7-6.2,2.8
			L39.9,66.9z M33.8,56.8c0,0.2,0,0.4,0,0.5L33.7,59c-0.1,1.4,0.5,2.8,1.5,3.9c1.2,1.3,2.9,2,4.8,2h3.1c1.9-0.1,3.7-0.9,4.9-2.2
			c1-1,1.4-2.3,1.4-3.6l-0.1-1.6c-0.2-0.3-1.2-0.8-1.8-1h-0.1C42.8,55.4,38.1,55.5,33.8,56.8"/>
	</g>
	<g>
		<defs>
			<rect id="SVGID_25_" y="-0.1" width="107.4" height="125.9"/>
		</defs>
		<clipPath id="SVGID_26_">
			<use xlink:href="#SVGID_25_"  style="overflow:visible;"/>
		</clipPath>
		<path class="st14" d="M64.9,66.9L64.9,66.9c-2.4,0-4.6-1-6.2-2.6c-1.4-1.5-2.1-3.3-2-5.3c0-0.5,0-1,0.1-1.5v-0.3
			c0-0.5,0.1-1,0.2-1.4l0.1-0.6l0.5-0.2c4.9-1.6,10.1-1.8,15.2-0.5l0,0c0.8,0.2,3.3,1.1,3.3,2.8l0.1,1.7c0.1,1.8-0.6,3.6-1.9,5
			c-1.5,1.7-3.8,2.7-6.2,2.8L64.9,66.9z M58.8,56.8c0,0.2,0,0.3-0.1,0.5v0.3c0,0.5,0,1-0.1,1.5c-0.1,1.4,0.5,2.8,1.5,3.9
			c1.2,1.3,2.9,2,4.8,2H68c1.9-0.1,3.7-0.9,4.9-2.2c1-1,1.4-2.3,1.4-3.6l-0.1-1.6c-0.2-0.3-1.2-0.8-1.8-1h-0.1
			C67.9,55.4,63.2,55.5,58.8,56.8"/>
	</g>
	<g>
		<defs>
			<rect id="SVGID_27_" y="-0.1" width="107.4" height="125.9"/>
		</defs>
		<clipPath id="SVGID_28_">
			<use xlink:href="#SVGID_27_"  style="overflow:visible;"/>
		</clipPath>
		<rect x="49.6" y="56.9" class="st15" width="8.4" height="3.7"/>
	</g>
	<g>
		<defs>
			<rect id="SVGID_29_" y="-0.1" width="107.4" height="125.9"/>
		</defs>
		<clipPath id="SVGID_30_">
			<use xlink:href="#SVGID_29_"  style="overflow:visible;"/>
		</clipPath>
		<path class="st16" d="M63.6,76.4c-1-1.5-4.2-2.7-8.2-2.7c0,0-1.4,0.9-1.5,0.9c-0.2-0.1-1.4-0.9-1.4-0.9c-4.1,0-7.3,1.3-8.3,2.7
			c-6,11.5-8.3,1.3-10.9-2c4.5,10.4,8.7,18.1,20.3,19.8c0.1,0,0.3,0,0.4,0c0.1,0,3.6-0.4,3.8-0.4c7.2,0,12.4-8.9,16.9-19.3
			C71.8,77.7,69.5,87.9,63.6,76.4"/>
	</g>
	<g>
		<defs>
			<rect id="SVGID_31_" y="-0.1" width="107.4" height="125.9"/>
		</defs>
		<clipPath id="SVGID_32_">
			<use xlink:href="#SVGID_31_"  style="overflow:visible;"/>
		</clipPath>
		<path class="st17" d="M49,78.6c-0.1,0.2-0.1,0.4-0.1,0.6c0,1.5,1.4,2.8,3.2,2.8h3.5c1.7,0,3.2-1.2,3.2-2.8c0-0.2,0-0.4-0.1-0.6H49
			z"/>
	</g>
</g>
<g class="st18">
	<path class="st19" d="M14.7,144h-0.9v-8.5h0.9V144z"/>
	<path class="st19" d="M17.6,138.4c0,0.2,0,0.3,0,0.5c0,0.2,0,0.3,0,0.5h0c0.2-0.3,0.4-0.6,0.8-0.8s0.7-0.3,1.1-0.3
		c0.7,0,1.2,0.2,1.6,0.6s0.5,1,0.5,1.7v3.4H21v-3.1c0-0.3,0-0.6-0.1-0.8c0-0.2-0.1-0.4-0.2-0.6c-0.1-0.2-0.3-0.3-0.5-0.4
		c-0.2-0.1-0.4-0.1-0.7-0.1c-0.2,0-0.4,0-0.6,0.1c-0.2,0.1-0.4,0.2-0.5,0.4s-0.3,0.4-0.4,0.7c-0.1,0.3-0.1,0.6-0.1,1v2.9h-0.8v-4.4
		c0-0.2,0-0.3,0-0.6s0-0.5,0-0.6H17.6z"/>
	<path class="st19" d="M24.2,145.2c0.2,0.3,0.5,0.5,0.9,0.7c0.4,0.2,0.8,0.3,1.2,0.3c0.4,0,0.7-0.1,1-0.2c0.3-0.1,0.5-0.3,0.7-0.5
		c0.2-0.2,0.3-0.4,0.4-0.7c0.1-0.3,0.1-0.6,0.1-0.9v-1.1h0c-0.2,0.4-0.5,0.6-0.9,0.8s-0.8,0.3-1.2,0.3c-0.4,0-0.8-0.1-1.2-0.2
		c-0.4-0.1-0.7-0.3-0.9-0.6c-0.3-0.3-0.4-0.6-0.6-0.9c-0.1-0.4-0.2-0.7-0.2-1.1c0-0.4,0.1-0.8,0.2-1.1c0.1-0.4,0.3-0.7,0.6-0.9
		c0.3-0.3,0.6-0.5,0.9-0.6c0.4-0.2,0.8-0.2,1.2-0.2c0.4,0,0.8,0.1,1.2,0.3c0.4,0.2,0.7,0.5,0.9,0.8h0v-1h0.8v5.6c0,0.3,0,0.6-0.1,1
		s-0.2,0.7-0.5,0.9s-0.5,0.5-0.9,0.7c-0.4,0.2-0.9,0.3-1.5,0.3c-0.5,0-1-0.1-1.5-0.3s-0.9-0.5-1.2-0.8L24.2,145.2z M24.3,141.1
		c0,0.3,0,0.6,0.1,0.8c0.1,0.3,0.2,0.5,0.4,0.7c0.2,0.2,0.4,0.4,0.7,0.5c0.3,0.1,0.6,0.2,0.9,0.2c0.3,0,0.6-0.1,0.9-0.2
		c0.3-0.1,0.5-0.3,0.7-0.4s0.3-0.4,0.5-0.7c0.1-0.3,0.2-0.6,0.2-0.9c0-0.3-0.1-0.6-0.2-0.8c-0.1-0.3-0.3-0.5-0.5-0.7
		s-0.4-0.4-0.7-0.5c-0.3-0.1-0.6-0.2-0.9-0.2c-0.3,0-0.6,0.1-0.9,0.2c-0.3,0.1-0.5,0.3-0.7,0.5c-0.2,0.2-0.3,0.4-0.4,0.7
		C24.4,140.6,24.3,140.9,24.3,141.1z"/>
	<path class="st19" d="M36.6,141.1c0,0.1,0,0.1,0,0.2s0,0.1,0,0.2h-4.7c0,0.3,0.1,0.5,0.2,0.8s0.2,0.5,0.4,0.6
		c0.2,0.2,0.4,0.3,0.6,0.4c0.2,0.1,0.5,0.2,0.8,0.2c0.4,0,0.8-0.1,1.1-0.3s0.5-0.4,0.7-0.7l0.6,0.5c-0.3,0.4-0.7,0.7-1.1,0.9
		c-0.4,0.2-0.8,0.3-1.3,0.3c-0.4,0-0.8-0.1-1.2-0.2c-0.4-0.1-0.7-0.4-0.9-0.6c-0.3-0.3-0.5-0.6-0.6-0.9c-0.1-0.4-0.2-0.8-0.2-1.2
		c0-0.4,0.1-0.8,0.2-1.2c0.1-0.4,0.3-0.7,0.6-0.9c0.3-0.3,0.6-0.5,0.9-0.6c0.3-0.1,0.7-0.2,1.1-0.2c0.4,0,0.8,0.1,1.2,0.2
		c0.3,0.1,0.6,0.3,0.8,0.6c0.2,0.3,0.4,0.5,0.5,0.9C36.5,140.3,36.6,140.7,36.6,141.1z M35.7,140.8c0-0.5-0.2-1-0.5-1.3
		c-0.3-0.3-0.8-0.5-1.4-0.5c-0.3,0-0.5,0-0.8,0.2c-0.2,0.1-0.4,0.2-0.6,0.4c-0.2,0.2-0.3,0.4-0.4,0.6c-0.1,0.2-0.2,0.4-0.2,0.7H35.7
		z"/>
	<path class="st19" d="M39.1,138.4c0,0.2,0,0.3,0,0.5c0,0.2,0,0.3,0,0.5h0c0.2-0.3,0.4-0.6,0.8-0.8s0.7-0.3,1.1-0.3
		c0.7,0,1.2,0.2,1.6,0.6s0.5,1,0.5,1.7v3.4h-0.8v-3.1c0-0.3,0-0.6-0.1-0.8c0-0.2-0.1-0.4-0.2-0.6c-0.1-0.2-0.3-0.3-0.5-0.4
		c-0.2-0.1-0.4-0.1-0.7-0.1c-0.2,0-0.4,0-0.6,0.1c-0.2,0.1-0.4,0.2-0.5,0.4s-0.3,0.4-0.4,0.7c-0.1,0.3-0.1,0.6-0.1,1v2.9h-0.8v-4.4
		c0-0.2,0-0.3,0-0.6s0-0.5,0-0.6H39.1z"/>
	<path class="st19" d="M46.3,136.3c0,0.2-0.1,0.3-0.2,0.4c-0.1,0.1-0.3,0.2-0.4,0.2s-0.3-0.1-0.4-0.2c-0.1-0.1-0.2-0.2-0.2-0.4
		s0.1-0.3,0.2-0.4c0.1-0.1,0.3-0.2,0.4-0.2s0.3,0.1,0.4,0.2C46.2,135.9,46.3,136.1,46.3,136.3z M46.1,144h-0.8v-5.6h0.8V144z"/>
	<path class="st19" d="M53.4,141.1c0,0.1,0,0.1,0,0.2s0,0.1,0,0.2h-4.7c0,0.3,0.1,0.5,0.2,0.8s0.2,0.5,0.4,0.6
		c0.2,0.2,0.4,0.3,0.6,0.4c0.2,0.1,0.5,0.2,0.8,0.2c0.4,0,0.8-0.1,1.1-0.3s0.5-0.4,0.7-0.7l0.6,0.5c-0.3,0.4-0.7,0.7-1.1,0.9
		c-0.4,0.2-0.8,0.3-1.3,0.3c-0.4,0-0.8-0.1-1.2-0.2c-0.4-0.1-0.7-0.4-0.9-0.6c-0.3-0.3-0.5-0.6-0.6-0.9c-0.1-0.4-0.2-0.8-0.2-1.2
		c0-0.4,0.1-0.8,0.2-1.2c0.1-0.4,0.3-0.7,0.6-0.9c0.3-0.3,0.6-0.5,0.9-0.6c0.3-0.1,0.7-0.2,1.1-0.2c0.4,0,0.8,0.1,1.2,0.2
		c0.3,0.1,0.6,0.3,0.8,0.6c0.2,0.3,0.4,0.5,0.5,0.9C53.4,140.3,53.4,140.7,53.4,141.1z M52.6,140.8c0-0.5-0.2-1-0.5-1.3
		c-0.3-0.3-0.8-0.5-1.4-0.5c-0.3,0-0.5,0-0.8,0.2c-0.2,0.1-0.4,0.2-0.6,0.4c-0.2,0.2-0.3,0.4-0.4,0.6c-0.1,0.2-0.2,0.4-0.2,0.7H52.6
		z"/>
	<path class="st19" d="M55.2,139.1c0-0.2,0-0.5,0-0.6h0.8c0,0.2,0,0.3,0,0.5c0,0.2,0,0.3,0,0.5h0c0.2-0.3,0.4-0.6,0.7-0.8
		c0.3-0.2,0.7-0.3,1.1-0.3c0.1,0,0.2,0,0.3,0s0.2,0,0.3,0l-0.1,0.8c0,0-0.1,0-0.2,0c-0.1,0-0.2,0-0.3,0c-0.2,0-0.4,0-0.6,0.1
		s-0.4,0.2-0.5,0.4c-0.1,0.2-0.3,0.4-0.4,0.7s-0.1,0.6-0.1,1v2.9h-0.8v-4.4C55.2,139.5,55.2,139.3,55.2,139.1z"/>
	<path class="st19" d="M60.2,137.3h-0.7l1.2-1.7h1.1L60.2,137.3z M60.3,144h-0.8v-5.6h0.8V144z"/>
	<path class="st19" d="M66,140.4c0-0.5-0.1-0.8-0.4-1.1S65,139,64.5,139c-0.3,0-0.6,0.1-0.9,0.2c-0.3,0.1-0.5,0.3-0.7,0.5l-0.5-0.5
		c0.2-0.2,0.5-0.4,0.9-0.6c0.4-0.2,0.8-0.2,1.3-0.2c0.3,0,0.6,0,0.9,0.1s0.5,0.2,0.7,0.4c0.2,0.2,0.4,0.4,0.5,0.6s0.2,0.6,0.2,0.9
		v2.5c0,0.2,0,0.4,0,0.7c0,0.2,0,0.4,0.1,0.6h-0.7c0-0.1,0-0.3-0.1-0.4c0-0.2,0-0.3,0-0.5h0c-0.3,0.4-0.5,0.6-0.9,0.8
		c-0.3,0.2-0.7,0.2-1.2,0.2c-0.2,0-0.4,0-0.7-0.1c-0.2-0.1-0.4-0.2-0.6-0.3c-0.2-0.1-0.3-0.3-0.5-0.5c-0.1-0.2-0.2-0.5-0.2-0.8
		c0-0.4,0.1-0.8,0.3-1c0.2-0.3,0.5-0.4,0.9-0.6c0.4-0.1,0.8-0.2,1.3-0.2s1-0.1,1.5-0.1V140.4z M65.8,141.2c-0.3,0-0.7,0-1,0
		c-0.3,0-0.6,0.1-0.9,0.2c-0.3,0.1-0.5,0.2-0.7,0.4c-0.2,0.2-0.3,0.4-0.3,0.6c0,0.2,0,0.4,0.1,0.5c0.1,0.1,0.2,0.2,0.3,0.3
		s0.3,0.1,0.4,0.2s0.3,0.1,0.5,0.1c0.3,0,0.5,0,0.8-0.1c0.2-0.1,0.4-0.2,0.6-0.4c0.2-0.2,0.3-0.4,0.3-0.6c0.1-0.2,0.1-0.5,0.1-0.7
		v-0.4H65.8z"/>
	<path class="st19" d="M79.1,142.6c-0.1,0.2-0.3,0.4-0.5,0.6c-0.2,0.2-0.4,0.4-0.7,0.5c-0.3,0.1-0.6,0.3-0.9,0.3s-0.7,0.1-1.1,0.1
		c-0.6,0-1.2-0.1-1.8-0.3s-1-0.5-1.4-0.9c-0.4-0.4-0.7-0.9-0.9-1.4c-0.2-0.5-0.3-1.1-0.3-1.8s0.1-1.2,0.3-1.8c0.2-0.5,0.5-1,0.9-1.4
		c0.4-0.4,0.9-0.7,1.4-0.9s1.1-0.3,1.8-0.3c0.3,0,0.6,0,0.9,0.1c0.3,0.1,0.6,0.2,0.8,0.3c0.3,0.1,0.5,0.3,0.7,0.4s0.4,0.4,0.5,0.6
		l-0.7,0.5c-0.1-0.1-0.2-0.3-0.4-0.4c-0.1-0.1-0.3-0.3-0.5-0.4c-0.2-0.1-0.4-0.2-0.7-0.3c-0.2-0.1-0.5-0.1-0.8-0.1
		c-0.6,0-1,0.1-1.5,0.3c-0.4,0.2-0.8,0.5-1.1,0.8c-0.3,0.3-0.5,0.7-0.7,1.2s-0.2,0.9-0.2,1.4s0.1,1,0.2,1.4c0.2,0.4,0.4,0.8,0.7,1.2
		s0.7,0.6,1.1,0.8c0.4,0.2,0.9,0.3,1.5,0.3c0.5,0,1-0.1,1.4-0.3c0.4-0.2,0.8-0.5,1.1-1L79.1,142.6z"/>
	<path class="st19" d="M81.5,136.3c0,0.2-0.1,0.3-0.2,0.4c-0.1,0.1-0.3,0.2-0.4,0.2c-0.1,0-0.3-0.1-0.4-0.2
		c-0.1-0.1-0.2-0.2-0.2-0.4s0.1-0.3,0.2-0.4c0.1-0.1,0.3-0.2,0.4-0.2c0.1,0,0.3,0.1,0.4,0.2C81.5,135.9,81.5,136.1,81.5,136.3z
		 M81.4,144h-0.8v-5.6h0.8V144z"/>
	<path class="st19" d="M85.8,144h-0.9l-2.3-5.6h0.9l1.8,4.8h0l1.8-4.8h0.9L85.8,144z"/>
	<path class="st19" d="M90.4,136.3c0,0.2-0.1,0.3-0.2,0.4c-0.1,0.1-0.3,0.2-0.4,0.2c-0.1,0-0.3-0.1-0.4-0.2
		c-0.1-0.1-0.2-0.2-0.2-0.4s0.1-0.3,0.2-0.4c0.1-0.1,0.3-0.2,0.4-0.2c0.1,0,0.3,0.1,0.4,0.2C90.3,135.9,90.4,136.1,90.4,136.3z
		 M90.2,144h-0.8v-5.6h0.8V144z"/>
	<path class="st19" d="M93.2,144h-0.8V135h0.8V144z"/>
</g>
<text transform="matrix(1 0 0 1 63.24 144.0274)" class="st19 st20 st21"> </text>
<text transform="matrix(1 0 0 1 84.44 144.0274)" class="st19 st20 st21"> </text>
</svg>
