<?xml version="1.0" encoding="utf-8"?>
<!-- Generator: Adobe Illustrator 22.1.0, SVG Export Plug-In . SVG Version: 6.00 Build 0)  -->
<svg version="1.1" id="Layer_1" xmlns="http://www.w3.org/2000/svg" xmlns:xlink="http://www.w3.org/1999/xlink" x="0px" y="0px"
	 viewBox="0 0 107 155" style="enable-background:new 0 0 107 155;" xml:space="preserve">
<style type="text/css">
	.st0{fill:#DCDAC8;}
	.st1{fill:#FFFFFF;}
	.st2{clip-path:url(#SVGID_2_);fill:#4C697B;}
	.st3{clip-path:url(#SVGID_2_);fill:#415364;}
	.st4{clip-path:url(#SVGID_2_);fill:#DCDAC8;}
	.st5{clip-path:url(#SVGID_2_);fill:#BFBDAD;}
	.st6{clip-path:url(#SVGID_2_);fill:#0E303F;}
	.st7{clip-path:url(#SVGID_2_);fill:#F2EFDC;}
	.st8{fill:#3A5767;}
	.st9{font-family:'AvenirNext-Regular';}
	.st10{font-size:12px;}
</style>
<rect x="0" y="-0.1" class="st0" width="107.4" height="125.9"/>
<rect x="0" y="125.8" class="st1" width="107.4" height="29.3"/>
<g>
	<defs>
		<rect id="SVGID_1_" x="0" y="-0.1" width="107.4" height="125.9"/>
	</defs>
	<clipPath id="SVGID_2_">
		<use xlink:href="#SVGID_1_"  style="overflow:visible;"/>
	</clipPath>
	<path class="st2" d="M54.3,137.4c21.2,0,41.3-3.1,59-8.5L109,95.5c-0.5-4.1-8-6.9-17.2-7.9c-25.1-2.8-50-2.8-75.1,0
		c-9.2,1-16.7,3.8-17.2,7.9l-4.3,33.4C13,134.3,33,137.4,54.3,137.4"/>
	<path class="st3" d="M113.3,128.9L109,95.5c-0.5-4.1-8-6.9-17.2-7.9c-13-1.4-26-2.1-38.9-2l-11.7,16.9l46.5,32.3
		C96.6,133.3,105.2,131.3,113.3,128.9"/>
	<path class="st4" d="M70.6,93.4c-0.6,7.6-8.3,12.9-17.3,12.9c-9,0-16.8-5.4-17.3-13c-0.2-3.9-0.5-7.7-0.7-11.6
		c-0.5-7.6,7.5-14.6,18-14.6c10.5,0,18.6,7.1,18,14.6C71,85.7,70.8,89.6,70.6,93.4"/>
	<path class="st5" d="M59.2,68c-4.4,2.1-7.5,9.5-7.4,18.3c0,5.4,0,10.8,0.1,16.2c0,1.3,0.1,2.6,0.2,3.8c0.4,0,0.8,0,1.2,0
		c9,0,16.8-5.3,17.3-12.9c0.1-2.1,0.3-4.2,0.4-6.3c0.3-4.4-0.2-8.6-1.4-11.9C67.5,72,63.8,69.3,59.2,68"/>
	<path class="st6" d="M53.4,27.5L53.4,27.5C53.3,27.5,53.3,27.5,53.4,27.5c-0.1,0-0.1,0-0.1,0v0c-19.3-0.2-24,12.4-22.9,34.5
		c0.4,8.6,2.5,15.1,4.4,19.9c0.6,1.6,10.2,13,13.1,13c1.3,0,3.6,0.5,5.5,0.4c1.9,0.1,4-0.4,5.4-0.4c2.9,0,12.5-11.4,13.1-13
		c1.9-4.9,4-11.4,4.4-19.9C77.2,40.5,70.9,27,53.4,27.5"/>
	<path class="st4" d="M36,68c0.1,2.3-1.1,4.3-2.7,4.6c-1.6,0.2-3-1.4-3.1-3.8c-0.2-3.7-0.4-7.4-0.6-11.2c-0.1-2.3,1.1-4.4,2.8-4.6
		c1.7-0.2,3.1,1.5,3.2,3.8C35.7,60.6,35.8,64.3,36,68"/>
	<path class="st4" d="M75.9,68.8c-0.1,2.3-1.5,4-3.1,3.8c-1.6-0.2-2.8-2.3-2.7-4.6c0.1-3.7,0.3-7.5,0.4-11.2c0.1-2.3,1.5-4,3.2-3.8
		c1.7,0.2,2.9,2.3,2.8,4.6C76.3,61.4,76.1,65.1,75.9,68.8"/>
	<path class="st7" d="M71.6,57.8c-0.5-10,0.9-19.3,0.9-19.3c0,0-9.5-4.9-16.9-4.6c-0.8,0-1.6,0.2-2.6,0.6c-0.9-0.4-1.8-0.6-2.6-0.6
		c-7.4-0.3-16.9,4.6-16.9,4.6c0,0,1.4,9.2,0.9,19.3c-0.5,10.1-1.8,18.8,1.5,21.6c3.4,2.8,9,9.2,16.6,9.6c0.1,0,0.3,0,0.4,0
		c0.1,0,0.3,0,0.4,0c7.5-0.3,13.2-6.7,16.6-9.6C73.4,76.6,72,67.8,71.6,57.8"/>
	<path class="st4" d="M74.4,38.5c0,0-10.4-4.9-18.5-4.6c-0.6,0-1.3,0.2-2.1,0.4c-0.1,18.2-0.1,36.5-0.1,54.7
		c8.2-0.4,14.4-6.8,18.1-9.5c3.7-2.8,2.2-11.6,1.6-21.6C72.9,47.7,74.4,38.5,74.4,38.5"/>
	<path class="st6" d="M31.5,57.2c0,0-1.9-21.2-3.4-23.4c-1.5-2.2,18.5-6.6,24.4-6.6c5.8-0.3,11.2,1.5,14.6,2.2
		c3.2,0.6-13,13.5-12.7,13.6c0.4-1.1,0.7-2.3,1.1-3.4c-1.2,0.9-2.5,1.9-3.7,2.9c-5-1.3-10.2-2.5-15.3-3.5c0,2.8,0.1,5.6,0.1,8.3
		c-1,1.4-2,2.8-3,4.2c-0.2,1.8-0.5,3.7-0.7,5.5C32.5,57.1,32,57.2,31.5,57.2"/>
	<path class="st6" d="M74.6,57.2c0,0,2.5-21.2,3.4-23.4c1-2.5-18.5-6.6-24.3-6.6c-5.8-0.3-10.7,1.4-14.2,2.2
		c-2.1,0.3,17.3-0.6,22.8,2.8c1.9,1.1-5.6,10.2-5.6,10.3c4.3-1.3,8.6-2.5,13-3.5c0,2.8-0.1,5.6-0.1,8.3c1,1.4,2,2.8,3,4.2
		c0.2,1.8,0.4,3.7,0.7,5.5C73.7,57.2,74.1,57.2,74.6,57.2"/>
	<path class="st6" d="M39.9,66.9L39.9,66.9c-2.4,0-4.6-1-6.2-2.6c-1.4-1.5-2.1-3.3-2-5.3l0.1-1.7c0-0.5,0.1-1,0.2-1.4l0.1-0.5
		l0.5-0.2c4.9-1.6,10.1-1.8,15.2-0.6l0,0c0.8,0.2,3.3,1.1,3.3,2.8l0.1,1.7c0.1,1.8-0.6,3.6-1.9,5c-1.5,1.7-3.8,2.7-6.2,2.8
		L39.9,66.9z M33.8,56.8c0,0.2,0,0.4,0,0.5l-0.1,1.7c-0.1,1.4,0.5,2.8,1.5,3.9c1.2,1.3,2.9,2,4.8,2l3.1,0c1.9-0.1,3.7-0.9,4.9-2.2
		c1-1,1.4-2.3,1.4-3.6l-0.1-1.6c-0.2-0.3-1.2-0.8-1.8-1l-0.1,0C42.8,55.4,38.1,55.5,33.8,56.8"/>
	<path class="st6" d="M64.9,66.9L64.9,66.9c-2.4,0-4.6-1-6.2-2.6c-1.4-1.5-2.1-3.3-2-5.3c0-0.5,0-1,0.1-1.5l0-0.3
		c0-0.5,0.1-1,0.2-1.4l0.1-0.6l0.5-0.2c4.9-1.6,10.1-1.8,15.2-0.5l0,0c0.8,0.2,3.3,1.1,3.3,2.8l0.1,1.7c0.1,1.8-0.6,3.6-1.9,5
		c-1.5,1.7-3.8,2.7-6.2,2.8L64.9,66.9z M58.8,56.8c0,0.2,0,0.3-0.1,0.5l0,0.3c0,0.5,0,1-0.1,1.5c-0.1,1.4,0.5,2.8,1.5,3.9
		c1.2,1.3,2.9,2,4.8,2l3.1,0c1.9-0.1,3.7-0.9,4.9-2.2c1-1,1.4-2.3,1.4-3.6l-0.1-1.6c-0.2-0.3-1.2-0.8-1.8-1l-0.1,0
		C67.9,55.4,63.2,55.5,58.8,56.8"/>
	<rect x="49.6" y="56.9" class="st6" width="8.4" height="3.7"/>
	<path class="st6" d="M63.6,76.4c-1-1.5-4.2-2.7-8.2-2.7c0,0-1.4,0.9-1.5,0.9c-0.2-0.1-1.4-0.9-1.4-0.9c-4.1,0-7.3,1.3-8.3,2.7
		c-6,11.5-8.3,1.3-10.9-2c4.5,10.4,8.7,18.1,20.3,19.8c0.1,0,0.3,0,0.4,0c0.1,0,3.6-0.4,3.8-0.4c7.2,0,12.4-8.9,16.9-19.3
		C71.8,77.7,69.5,87.9,63.6,76.4"/>
	<path class="st7" d="M49,78.6c-0.1,0.2-0.1,0.4-0.1,0.6c0,1.5,1.4,2.8,3.2,2.8h3.5c1.7,0,3.2-1.2,3.2-2.8c0-0.2,0-0.4-0.1-0.6H49z"
		/>
</g>
<text transform="matrix(1 0 0 1 17.04 144.0274)"><tspan x="0" y="0" class="st8 st9 st10">Inegnier</tspan><tspan x="38.6" y="0" class="st8 st9 st10">ía</tspan><tspan x="46.2" y="0" class="st8 st9 st10"> Cívi</tspan><tspan x="65.3" y="0" class="st8 st9 st10">l</tspan><tspan x="67.4" y="0" class="st8 st9 st10"> </tspan></text>
</svg>
