<?xml version="1.0" encoding="utf-8"?>
<!-- Generator: Adobe Illustrator 22.1.0, SVG Export Plug-In . SVG Version: 6.00 Build 0)  -->
<svg version="1.1" id="Layer_1" xmlns="http://www.w3.org/2000/svg" xmlns:xlink="http://www.w3.org/1999/xlink" x="0px" y="0px"
	 viewBox="0 0 107 155" style="enable-background:new 0 0 107 155;" xml:space="preserve">
<style type="text/css">
	.st0{fill:#D0EAF9;}
	.st1{fill:#FFFFFF;}
	.st2{clip-path:url(#SVGID_2_);fill:#DCDAC8;}
	.st3{clip-path:url(#SVGID_4_);fill:#AAA9AD;}
	.st4{clip-path:url(#SVGID_6_);fill:#DCDAC8;}
	.st5{clip-path:url(#SVGID_8_);fill:#D0CFBE;}
	.st6{clip-path:url(#SVGID_10_);fill:#BFBDAD;}
	.st7{clip-path:url(#SVGID_12_);fill:#F2EFDC;}
	.st8{clip-path:url(#SVGID_14_);fill:#585857;}
	.st9{clip-path:url(#SVGID_16_);fill:#585857;}
	.st10{clip-path:url(#SVGID_18_);fill:#585857;}
	.st11{clip-path:url(#SVGID_20_);fill:#F2EFDC;}
	.st12{clip-path:url(#SVGID_22_);fill:#DCDAC8;}
	.st13{fill:#3A5767;}
</style>
<rect x="0.2" y="-0.1" class="st0" width="107.4" height="125.9"/>
<rect x="0.2" y="125.8" class="st1" width="107.4" height="29.3"/>
<g>
	<g>
		<g>
			<defs>
				<rect id="SVGID_1_" x="0.2" y="-0.1" width="107.4" height="125.9"/>
			</defs>
			<clipPath id="SVGID_2_">
				<use xlink:href="#SVGID_1_"  style="overflow:visible;"/>
			</clipPath>
			<path class="st2" d="M78,71.7c0,3.7-1.9,6.7-4.3,6.7s-4.3-3-4.3-6.7V65c0-3.7,1.9-6.7,4.3-6.7s4.3,3,4.3,6.7V71.7z"/>
		</g>
	</g>
	<g>
		<g>
			<defs>
				<rect id="SVGID_3_" x="0.2" y="-0.1" width="107.4" height="125.9"/>
			</defs>
			<clipPath id="SVGID_4_">
				<use xlink:href="#SVGID_3_"  style="overflow:visible;"/>
			</clipPath>
			<path class="st3" d="M50.2,147.2c19.7,0,52.6,2.8,54.3-32.5c-8.2-9-27.7-15.4-50.6-15.4c-22.6,0-42.1,6.3-50.4,15.2
				C0.3,149.1,30.3,147.2,50.2,147.2"/>
		</g>
	</g>
	<g>
		<g>
			<defs>
				<rect id="SVGID_5_" x="0.2" y="-0.1" width="107.4" height="125.9"/>
			</defs>
			<clipPath id="SVGID_6_">
				<use xlink:href="#SVGID_5_"  style="overflow:visible;"/>
			</clipPath>
			<path class="st4" d="M69.7,103.3c0.6,8.5-6.3,16.1-15.6,16.1c-9.2,0-16.2-7.5-15.6-16.1c0.3-5.6,0.7-11.1,1-16.7
				c0.6-8.6,7.1-15,14.6-15c7.4,0,13.9,6.5,14.6,15C69,92.2,69.4,97.8,69.7,103.3"/>
		</g>
	</g>
	<g>
		<g>
			<defs>
				<rect id="SVGID_7_" x="0.2" y="-0.1" width="107.4" height="125.9"/>
			</defs>
			<clipPath id="SVGID_8_">
				<use xlink:href="#SVGID_7_"  style="overflow:visible;"/>
			</clipPath>
			<path class="st5" d="M69.7,93.1c0.6,8.5-6.3,16.1-15.6,16.1c-9.2,0-16.2-7.5-15.6-16.1c0.3-5.6,0.7-11.1,1-16.7
				c0.6-8.6,7.1-15,14.6-15c7.4,0,13.9,6.5,14.6,15C69,82,69.4,87.5,69.7,93.1"/>
		</g>
	</g>
	<g>
		<g>
			<defs>
				<rect id="SVGID_9_" x="0.2" y="-0.1" width="107.4" height="125.9"/>
			</defs>
			<clipPath id="SVGID_10_">
				<use xlink:href="#SVGID_9_"  style="overflow:visible;"/>
			</clipPath>
			<path class="st6" d="M68.7,86.6c-0.6-8.5-7.1-14.9-14.4-15c0,0.3,0,0.6,0,1v43.8c0,1,0.1,2.1,0.2,3.1c9.1-0.2,15.9-7.6,15.3-16.1
				C69.4,97.8,69,92.2,68.7,86.6"/>
		</g>
	</g>
	<g>
		<g>
			<defs>
				<rect id="SVGID_11_" x="0.2" y="-0.1" width="107.4" height="125.9"/>
			</defs>
			<clipPath id="SVGID_12_">
				<use xlink:href="#SVGID_11_"  style="overflow:visible;"/>
			</clipPath>
			<path class="st7" d="M37.6,71.7c0,3.7-1.9,6.7-4.3,6.7s-4.3-3-4.3-6.7V65c0-3.7,1.9-6.7,4.3-6.7s4.3,3,4.3,6.7V71.7z"/>
		</g>
	</g>
	<g>
		<g>
			<defs>
				<rect id="SVGID_13_" x="0.2" y="-0.1" width="107.4" height="125.9"/>
			</defs>
			<clipPath id="SVGID_14_">
				<use xlink:href="#SVGID_13_"  style="overflow:visible;"/>
			</clipPath>
			<path class="st8" d="M31.1,69.3c0,2.4,1.7,4.3,3.8,4.3c2.1,0,3.8-1.9,3.8-4.3V57.8c0-2.4-1.7-4.3-3.8-4.3s-3.8,1.9-3.8,4.3
				C31.1,57.8,31.1,69.3,31.1,69.3z"/>
		</g>
	</g>
	<g>
		<g>
			<defs>
				<rect id="SVGID_15_" x="0.2" y="-0.1" width="107.4" height="125.9"/>
			</defs>
			<clipPath id="SVGID_16_">
				<use xlink:href="#SVGID_15_"  style="overflow:visible;"/>
			</clipPath>
			<path class="st9" d="M69.4,69.3c0,2.4,1.7,4.3,3.8,4.3s3.8-1.9,3.8-4.3V57.8c0-2.4-1.7-4.3-3.8-4.3s-3.8,1.9-3.8,4.3V69.3z"/>
		</g>
	</g>
	<g>
		<g>
			<defs>
				<rect id="SVGID_17_" x="0.2" y="-0.1" width="107.4" height="125.9"/>
			</defs>
			<clipPath id="SVGID_18_">
				<use xlink:href="#SVGID_17_"  style="overflow:visible;"/>
			</clipPath>
			<path class="st10" d="M80.6,49c0,15.7-11.8,28.4-26.5,28.4c-14.6,0-26.5-12.7-26.5-28.4s11.8-28.4,26.5-28.4
				C68.7,20.6,80.6,33.3,80.6,49"/>
		</g>
	</g>
	<g>
		<g>
			<defs>
				<rect id="SVGID_19_" x="0.2" y="-0.1" width="107.4" height="125.9"/>
			</defs>
			<clipPath id="SVGID_20_">
				<use xlink:href="#SVGID_19_"  style="overflow:visible;"/>
			</clipPath>
			<path class="st11" d="M76,81.8c0.9,12-8.9,22.6-21.9,22.6S31.3,93.8,32.2,81.8c0.5-7.8,1-15.7,1.5-23.5c0.9-12,10-21.1,20.5-21.1
				c10.4,0,19.6,9.1,20.5,21.1C75.1,66.2,75.5,74,76,81.8"/>
		</g>
	</g>
	<g>
		<g>
			<defs>
				<rect id="SVGID_21_" x="0.2" y="-0.1" width="107.4" height="125.9"/>
			</defs>
			<clipPath id="SVGID_22_">
				<use xlink:href="#SVGID_21_"  style="overflow:visible;"/>
			</clipPath>
			<path class="st12" d="M74.6,58.3c-0.9-11.9-9.9-21-20.3-21.1c0,0.5-0.1,0.9-0.1,1.4v61.5c0,1.5,0.1,2.9,0.3,4.3
				c12.8-0.2,22.4-10.7,21.5-22.6C75.5,74,75.1,66.2,74.6,58.3"/>
		</g>
	</g>
</g>
<g>
	<path class="st13" d="M20.7,141.9l2.9-6.9h1.3v8.5H24v-7.3h0l-3.1,7.3h-0.5l-3.1-7.3h0v7.3h-0.9V135h1.3L20.7,141.9z"/>
	<path class="st13" d="M30.5,140.1v-0.1c0-1-0.5-1.5-1.4-1.5c-0.7,0-1.2,0.2-1.7,0.7l-0.5-0.6c0.5-0.5,1.3-0.8,2.4-0.8
		c0.3,0,0.5,0,0.8,0.1c0.3,0.1,0.5,0.2,0.7,0.4c0.2,0.2,0.3,0.4,0.4,0.6s0.2,0.5,0.2,0.9v2.5c0,0.2,0,0.4,0,0.7c0,0.2,0,0.4,0.1,0.6
		h-0.8c0-0.1,0-0.3-0.1-0.4c0-0.2,0-0.3,0-0.5h0c-0.2,0.4-0.5,0.6-0.8,0.8c-0.3,0.2-0.7,0.2-1.2,0.2c-0.2,0-0.5,0-0.7-0.1
		c-0.2-0.1-0.4-0.2-0.6-0.3c-0.2-0.1-0.3-0.3-0.4-0.5c-0.1-0.2-0.2-0.4-0.2-0.7c0-0.5,0.1-0.8,0.4-1.1c0.2-0.3,0.5-0.5,0.9-0.6
		s0.7-0.2,1.1-0.2c0.4,0,0.8,0,1.1,0H30.5z M30.1,140.7c-0.2,0-0.5,0-0.8,0c-0.3,0-0.6,0.1-0.9,0.1s-0.5,0.2-0.7,0.4
		c-0.2,0.2-0.3,0.4-0.3,0.7c0,0.2,0,0.3,0.1,0.5c0.1,0.1,0.2,0.2,0.3,0.3s0.3,0.1,0.4,0.2c0.2,0,0.3,0.1,0.5,0.1
		c0.3,0,0.5,0,0.8-0.1c0.2-0.1,0.4-0.2,0.5-0.4c0.1-0.2,0.2-0.4,0.3-0.6c0.1-0.2,0.1-0.5,0.1-0.7v-0.4H30.1z"/>
	<path class="st13" d="M33.9,137.9c0,0.2,0,0.3,0,0.5c0,0.1,0,0.3,0,0.5h0c0.1-0.2,0.2-0.3,0.3-0.4s0.3-0.2,0.5-0.3s0.3-0.2,0.5-0.2
		c0.2-0.1,0.4-0.1,0.6-0.1c0.7,0,1.3,0.2,1.6,0.6c0.3,0.4,0.5,0.9,0.5,1.6v3.6h-0.8v-3.1c0-0.6-0.1-1.1-0.3-1.4
		c-0.2-0.3-0.6-0.5-1.2-0.5c0,0-0.2,0-0.3,0c-0.2,0-0.4,0.1-0.6,0.3c-0.2,0.1-0.4,0.4-0.5,0.6s-0.2,0.7-0.2,1.2v2.9h-0.8v-4.4
		c0-0.2,0-0.3,0-0.6c0-0.2,0-0.5,0-0.7H33.9z"/>
	<path class="st13" d="M42.7,138.6h-1.6v3.3c0,0.2,0,0.4,0.1,0.5s0.1,0.2,0.2,0.3c0.1,0.1,0.2,0.1,0.3,0.1c0.1,0,0.2,0,0.3,0
		c0.1,0,0.3,0,0.4-0.1c0.1,0,0.3-0.1,0.4-0.2l0,0.7c-0.3,0.1-0.7,0.2-1.1,0.2c-0.2,0-0.3,0-0.5-0.1c-0.2,0-0.3-0.1-0.5-0.2
		c-0.1-0.1-0.2-0.3-0.3-0.5c-0.1-0.2-0.1-0.4-0.1-0.8v-3.5h-1.2v-0.7h1.2v-1.6h0.8v1.6h1.6V138.6z"/>
	<path class="st13" d="M44.3,140.9c0,0.3,0.1,0.5,0.2,0.8s0.3,0.5,0.4,0.6c0.2,0.2,0.4,0.3,0.6,0.4c0.2,0.1,0.5,0.2,0.8,0.2
		c0.4,0,0.8-0.1,1.1-0.3c0.3-0.2,0.5-0.4,0.7-0.7l0.6,0.5c-0.3,0.4-0.7,0.7-1.1,0.9c-0.4,0.2-0.8,0.3-1.3,0.3
		c-0.4,0-0.8-0.1-1.2-0.2c-0.4-0.1-0.7-0.4-0.9-0.6c-0.3-0.3-0.5-0.6-0.6-0.9c-0.1-0.4-0.2-0.8-0.2-1.2c0-0.4,0.1-0.8,0.2-1.2
		c0.1-0.4,0.3-0.7,0.6-0.9s0.6-0.5,0.9-0.6c0.3-0.1,0.7-0.2,1.1-0.2c0.4,0,0.8,0.1,1.1,0.2c0.3,0.2,0.6,0.4,0.8,0.6
		c0.2,0.3,0.4,0.5,0.5,0.9s0.2,0.7,0.2,1.1v0.4H44.3z M48.1,140.3c0-0.5-0.2-1-0.5-1.3s-0.8-0.5-1.3-0.5c-0.3,0-0.5,0-0.7,0.2
		c-0.2,0.1-0.5,0.2-0.6,0.4c-0.2,0.2-0.3,0.4-0.4,0.6c-0.1,0.2-0.2,0.4-0.2,0.7H48.1z"/>
	<path class="st13" d="M51.2,137.9c0,0.2,0,0.3,0,0.5c0,0.1,0,0.3,0,0.5h0c0.1-0.2,0.2-0.3,0.3-0.4c0.1-0.1,0.3-0.2,0.5-0.3
		s0.3-0.2,0.5-0.2c0.2-0.1,0.4-0.1,0.6-0.1c0.7,0,1.3,0.2,1.6,0.6c0.3,0.4,0.5,0.9,0.5,1.6v3.6h-0.8v-3.1c0-0.6-0.1-1.1-0.3-1.4
		c-0.2-0.3-0.6-0.5-1.2-0.5c0,0-0.2,0-0.3,0c-0.2,0-0.4,0.1-0.6,0.3c-0.2,0.1-0.4,0.4-0.5,0.6c-0.2,0.3-0.2,0.7-0.2,1.2v2.9h-0.8
		v-4.4c0-0.2,0-0.3,0-0.6c0-0.2,0-0.5,0-0.7H51.2z"/>
	<path class="st13" d="M58.3,135.7c0,0.2-0.1,0.3-0.2,0.4c-0.1,0.1-0.3,0.2-0.4,0.2c-0.1,0-0.3-0.1-0.4-0.2
		c-0.1-0.1-0.2-0.2-0.2-0.4s0.1-0.3,0.2-0.4c0.1-0.1,0.3-0.2,0.4-0.2c0.1,0,0.3,0.1,0.4,0.2C58.2,135.4,58.3,135.6,58.3,135.7z
		 M58.1,143.5h-0.8v-5.6h0.8V143.5z"/>
	<path class="st13" d="M60,139.1c0-0.2,0-0.4,0-0.6c0-0.2,0-0.4,0-0.6h0.9v0.9h0c0.2-0.3,0.5-0.6,0.8-0.7c0.3-0.2,0.7-0.3,1-0.3
		c0.2,0,0.3,0,0.5,0c0.2,0,0.3,0.1,0.5,0.2s0.3,0.2,0.5,0.4c0.1,0.2,0.3,0.3,0.4,0.6c0.2-0.4,0.4-0.6,0.8-0.9s0.7-0.3,1.1-0.3
		c0.7,0,1.3,0.2,1.6,0.6c0.3,0.4,0.5,0.9,0.5,1.6v3.6h-0.8v-3.3c0-0.6-0.1-1-0.3-1.3c-0.2-0.3-0.6-0.5-1.1-0.5
		c-0.3,0-0.5,0.1-0.7,0.2c-0.2,0.1-0.4,0.3-0.5,0.5c-0.1,0.2-0.2,0.4-0.3,0.7c-0.1,0.2-0.1,0.5-0.1,0.8v3h-0.8v-3.3
		c0-0.6-0.1-1-0.3-1.3c-0.2-0.3-0.6-0.5-1.1-0.5c0,0-0.2,0-0.3,0c-0.2,0-0.4,0.1-0.5,0.3c-0.2,0.1-0.3,0.4-0.5,0.6s-0.2,0.7-0.2,1.2
		v2.9H60V139.1z"/>
	<path class="st13" d="M71.4,135.7c0,0.2-0.1,0.3-0.2,0.4c-0.1,0.1-0.3,0.2-0.4,0.2c-0.1,0-0.3-0.1-0.4-0.2
		c-0.1-0.1-0.2-0.2-0.2-0.4s0.1-0.3,0.2-0.4c0.1-0.1,0.3-0.2,0.4-0.2c0.1,0,0.3,0.1,0.4,0.2C71.3,135.4,71.4,135.6,71.4,135.7z
		 M71.2,143.5h-0.8v-5.6h0.8V143.5z"/>
	<path class="st13" d="M73.6,140.9c0,0.3,0.1,0.5,0.2,0.8s0.3,0.5,0.4,0.6c0.2,0.2,0.4,0.3,0.6,0.4c0.2,0.1,0.5,0.2,0.8,0.2
		c0.4,0,0.8-0.1,1.1-0.3c0.3-0.2,0.5-0.4,0.7-0.7l0.6,0.5c-0.3,0.4-0.7,0.7-1.1,0.9c-0.4,0.2-0.8,0.3-1.3,0.3
		c-0.4,0-0.8-0.1-1.2-0.2c-0.4-0.1-0.7-0.4-0.9-0.6c-0.3-0.3-0.5-0.6-0.6-0.9c-0.1-0.4-0.2-0.8-0.2-1.2c0-0.4,0.1-0.8,0.2-1.2
		c0.1-0.4,0.3-0.7,0.6-0.9s0.6-0.5,0.9-0.6c0.3-0.1,0.7-0.2,1.1-0.2c0.4,0,0.8,0.1,1.1,0.2c0.3,0.2,0.6,0.4,0.8,0.6
		c0.2,0.3,0.4,0.5,0.5,0.9s0.2,0.7,0.2,1.1v0.4H73.6z M77.5,140.3c0-0.5-0.2-1-0.5-1.3s-0.8-0.5-1.3-0.5c-0.3,0-0.5,0-0.7,0.2
		c-0.2,0.1-0.5,0.2-0.6,0.4c-0.2,0.2-0.3,0.4-0.4,0.6c-0.1,0.2-0.2,0.4-0.2,0.7H77.5z"/>
	<path class="st13" d="M80.5,137.9c0,0.2,0,0.3,0,0.5c0,0.1,0,0.3,0,0.5h0c0.1-0.2,0.2-0.3,0.3-0.4c0.1-0.1,0.3-0.2,0.5-0.3
		s0.3-0.2,0.5-0.2c0.2-0.1,0.4-0.1,0.6-0.1c0.7,0,1.3,0.2,1.6,0.6c0.3,0.4,0.5,0.9,0.5,1.6v3.6h-0.8v-3.1c0-0.6-0.1-1.1-0.3-1.4
		c-0.2-0.3-0.6-0.5-1.2-0.5c0,0-0.2,0-0.3,0c-0.2,0-0.4,0.1-0.6,0.3c-0.2,0.1-0.4,0.4-0.5,0.6c-0.2,0.3-0.2,0.7-0.2,1.2v2.9h-0.8
		v-4.4c0-0.2,0-0.3,0-0.6c0-0.2,0-0.5,0-0.7H80.5z"/>
	<path class="st13" d="M89.3,138.6h-1.6v3.3c0,0.2,0,0.4,0.1,0.5s0.1,0.2,0.2,0.3c0.1,0.1,0.2,0.1,0.3,0.1c0.1,0,0.2,0,0.3,0
		c0.1,0,0.3,0,0.4-0.1c0.1,0,0.3-0.1,0.4-0.2l0,0.7c-0.3,0.1-0.7,0.2-1.1,0.2c-0.2,0-0.3,0-0.5-0.1c-0.2,0-0.3-0.1-0.5-0.2
		c-0.1-0.1-0.2-0.3-0.3-0.5c-0.1-0.2-0.1-0.4-0.1-0.8v-3.5h-1.2v-0.7h1.2v-1.6h0.8v1.6h1.6V138.6z"/>
	<path class="st13" d="M96.1,140.7c0,0.4-0.1,0.8-0.2,1.2c-0.1,0.4-0.4,0.7-0.6,0.9c-0.3,0.3-0.6,0.5-0.9,0.6
		c-0.4,0.1-0.8,0.2-1.2,0.2c-0.4,0-0.8-0.1-1.2-0.2c-0.4-0.1-0.7-0.4-0.9-0.6c-0.3-0.3-0.5-0.6-0.6-0.9c-0.1-0.4-0.2-0.8-0.2-1.2
		c0-0.4,0.1-0.8,0.2-1.2c0.1-0.4,0.4-0.7,0.6-0.9s0.6-0.5,0.9-0.6c0.4-0.1,0.8-0.2,1.2-0.2c0.4,0,0.8,0.1,1.2,0.2
		c0.4,0.1,0.7,0.4,0.9,0.6c0.3,0.3,0.5,0.6,0.6,0.9C96,139.9,96.1,140.3,96.1,140.7z M95.2,140.7c0-0.3,0-0.6-0.1-0.9
		c-0.1-0.3-0.2-0.5-0.4-0.7c-0.2-0.2-0.4-0.4-0.7-0.5c-0.3-0.1-0.6-0.2-0.9-0.2s-0.6,0.1-0.9,0.2c-0.3,0.1-0.5,0.3-0.7,0.5
		c-0.2,0.2-0.3,0.4-0.4,0.7c-0.1,0.3-0.1,0.6-0.1,0.9c0,0.3,0,0.6,0.1,0.9c0.1,0.3,0.2,0.5,0.4,0.7c0.2,0.2,0.4,0.4,0.7,0.5
		s0.6,0.2,0.9,0.2s0.6-0.1,0.9-0.2c0.3-0.1,0.5-0.3,0.7-0.5c0.2-0.2,0.3-0.4,0.4-0.7C95.2,141.3,95.2,141,95.2,140.7z"/>
</g>
</svg>
