<?xml version="1.0" encoding="utf-8"?>
<!-- Generator: Adobe Illustrator 22.1.0, SVG Export Plug-In . SVG Version: 6.00 Build 0)  -->
<svg version="1.1" id="Layer_1" xmlns="http://www.w3.org/2000/svg" xmlns:xlink="http://www.w3.org/1999/xlink" x="0px" y="0px"
	 viewBox="0 0 107 155" style="enable-background:new 0 0 107 155;" xml:space="preserve">
<style type="text/css">
	.st0{fill:#D0EAF9;}
	.st1{fill:#FFFFFF;}
	.st2{clip-path:url(#SVGID_2_);fill:#DCDAC8;}
	.st3{clip-path:url(#SVGID_2_);fill:#AAA9AD;}
	.st4{clip-path:url(#SVGID_2_);fill:#D0CFBE;}
	.st5{clip-path:url(#SVGID_2_);fill:#BFBDAD;}
	.st6{clip-path:url(#SVGID_2_);fill:#F2EFDC;}
	.st7{clip-path:url(#SVGID_2_);fill:#585857;}
	.st8{fill:#3A5767;}
	.st9{font-family:'AvenirNext-Regular';}
	.st10{font-size:12px;}
</style>
<rect x="0.2" y="-0.1" class="st0" width="107.4" height="125.9"/>
<rect x="0.2" y="125.8" class="st1" width="107.4" height="29.3"/>
<g>
	<defs>
		<rect id="SVGID_1_" x="0.2" y="-0.1" width="107.4" height="125.9"/>
	</defs>
	<clipPath id="SVGID_2_">
		<use xlink:href="#SVGID_1_"  style="overflow:visible;"/>
	</clipPath>
	<path class="st2" d="M78,71.7c0,3.7-1.9,6.7-4.3,6.7s-4.3-3-4.3-6.7V65c0-3.7,1.9-6.7,4.3-6.7s4.3,3,4.3,6.7V71.7z"/>
	<path class="st3" d="M50.2,147.2c19.7,0,52.6,2.8,54.3-32.5c-8.2-9-27.7-15.4-50.6-15.4c-22.6,0-42.1,6.3-50.4,15.2
		C0.3,149.1,30.3,147.2,50.2,147.2"/>
	<path class="st2" d="M69.7,103.3c0.6,8.5-6.3,16.1-15.6,16.1c-9.2,0-16.2-7.5-15.6-16.1c0.3-5.6,0.7-11.1,1-16.7
		c0.6-8.6,7.1-15,14.6-15c7.4,0,13.9,6.5,14.6,15C69,92.2,69.4,97.8,69.7,103.3"/>
	<path class="st4" d="M69.7,93.1c0.6,8.5-6.3,16.1-15.6,16.1c-9.2,0-16.2-7.5-15.6-16.1c0.3-5.6,0.7-11.1,1-16.7
		c0.6-8.6,7.1-15,14.6-15c7.4,0,13.9,6.5,14.6,15C69,82,69.4,87.5,69.7,93.1"/>
	<path class="st5" d="M68.7,86.6c-0.6-8.5-7.1-14.9-14.4-15c0,0.3,0,0.6,0,1v43.8c0,1,0.1,2.1,0.2,3.1c9.1-0.2,15.9-7.6,15.3-16.1
		C69.4,97.8,69,92.2,68.7,86.6"/>
	<path class="st6" d="M37.6,71.7c0,3.7-1.9,6.7-4.3,6.7c-2.4,0-4.3-3-4.3-6.7V65c0-3.7,1.9-6.7,4.3-6.7c2.4,0,4.3,3,4.3,6.7V71.7z"
		/>
	<path class="st7" d="M31.1,69.3c0,2.4,1.7,4.3,3.8,4.3c2.1,0,3.8-1.9,3.8-4.3V57.8c0-2.4-1.7-4.3-3.8-4.3c-2.1,0-3.8,1.9-3.8,4.3
		V69.3z"/>
	<path class="st7" d="M69.4,69.3c0,2.4,1.7,4.3,3.8,4.3s3.8-1.9,3.8-4.3V57.8c0-2.4-1.7-4.3-3.8-4.3s-3.8,1.9-3.8,4.3V69.3z"/>
	<path class="st7" d="M80.6,49c0,15.7-11.8,28.4-26.5,28.4c-14.6,0-26.5-12.7-26.5-28.4c0-15.7,11.8-28.4,26.5-28.4
		C68.7,20.6,80.6,33.3,80.6,49"/>
	<path class="st6" d="M76,81.8c0.9,12-8.9,22.6-21.9,22.6c-13,0-22.8-10.6-21.9-22.6c0.5-7.8,1-15.7,1.5-23.5
		c0.9-12,10-21.1,20.5-21.1c10.4,0,19.6,9.1,20.5,21.1C75.1,66.2,75.5,74,76,81.8"/>
	<path class="st2" d="M74.6,58.3c-0.9-11.9-9.9-21-20.3-21.1c0,0.5-0.1,0.9-0.1,1.4v61.5c0,1.5,0.1,2.9,0.3,4.3
		c12.8-0.2,22.4-10.7,21.5-22.6C75.5,74,75.1,66.2,74.6,58.3"/>
</g>
<text transform="matrix(1 0 0 1 16.4521 144.0274)"><tspan x="0" y="0" class="st8 st9 st10">Ma</tspan><tspan x="15.3" y="0" class="st8 st9 st10">n</tspan><tspan x="21.3" y="0" class="st8 st9 st10">te</tspan><tspan x="30.2" y="0" class="st8 st9 st10">n</tspan><tspan x="36.3" y="0" class="st8 st9 st10">i</tspan><tspan x="38.4" y="0" class="st8 st9 st10">m</tspan><tspan x="48.1" y="0" class="st8 st9 st10">ient</tspan><tspan x="65.2" y="0" class="st8 st9 st10">o</tspan><tspan x="71.6" y="0" class="st8 st9 st10"> </tspan></text>
</svg>
