<?xml version="1.0" encoding="utf-8"?>
<!-- Generator: Adobe Illustrator 22.0.1, SVG Export Plug-In . SVG Version: 6.00 Build 0)  -->
<svg version="1.1" id="Layer_1" xmlns="http://www.w3.org/2000/svg" xmlns:xlink="http://www.w3.org/1999/xlink" x="0px" y="0px"
	 viewBox="0 0 589 71" style="enable-background:new 0 0 589 71;" xml:space="preserve">
<style type="text/css">
	.st0{fill:#4C697B;}
	.st1{fill:#5B7E96;}
	.st2{fill:#415364;}
	.st3{enable-background:new    ;}
	.st4{fill:#FFFFFF;}
</style>
<rect x="0.2" y="-0.1" class="st0" width="597.9" height="72.1"/>
<path class="st1" d="M526.5,56c3.6,2.6,8.2,5,14,7.2V39.6l10.9-6v33l0,0v-33l9.9,4.3V19.8l10.9-6v56.4V13.8l10.9,6v21.6l5.8-3.2l0,0
	l9,11V0.6c-1.1,0-2.2,0-3.3,0c-44.3,0-80.3,16-80.3,35.7c0,7.1,3.8,13.7,11.3,19.3l0,0C526,55.7,526.2,55.9,526.5,56"/>
<path class="st2" d="M561.3,47v-9l-9.9-4.3v33c1.8,0.4,3.6,0.9,5.6,1.3V49.3L561.3,47z"/>
<path class="st2" d="M588.9,71.4c2.9,0.1,5.9,0.2,9,0.2V43.1l-9-4.9V71.4z"/>
<path class="st2" d="M583.1,41.3V19.7l-10.9-6v56.4c1.9,0.2,3.8,0.4,5.8,0.6V44.1L583.1,41.3z"/>
<g class="st3">
	<path class="st4" d="M95.2,38L80.7,18.5h-0.1V38H80V17.7h0.9l14.5,19.4h0.1V17.7h0.6V38H95.2z"/>
	<path class="st4" d="M110.9,36.1c-0.4,0.5-0.8,0.9-1.2,1.2c-0.5,0.3-1,0.6-1.5,0.7c-0.5,0.2-1.1,0.3-1.7,0.3
		c-0.9,0-1.7-0.2-2.3-0.5c-0.6-0.3-1.1-0.8-1.5-1.3c-0.4-0.5-0.6-1.1-0.8-1.8c-0.2-0.7-0.2-1.3-0.2-2v-7.9h0.6v7.9
		c0,0.6,0.1,1.1,0.2,1.7s0.3,1.1,0.6,1.6c0.3,0.5,0.7,0.9,1.3,1.2c0.5,0.3,1.2,0.5,2,0.5c0.7,0,1.4-0.1,2-0.4
		c0.6-0.3,1.2-0.7,1.7-1.3c0.5-0.6,0.8-1.2,1.1-2s0.4-1.7,0.4-2.7v-6.6h0.6v9.8c0,0.2,0,0.5,0,0.8c0,0.3,0,0.6,0,0.9
		c0,0.3,0,0.6,0,0.9c0,0.3,0,0.5,0.1,0.7H112c0-0.2,0-0.4,0-0.7c0-0.3,0-0.6,0-0.9c0-0.3,0-0.7,0-1c0-0.3,0-0.6,0-0.8h-0.1
		C111.6,35.1,111.3,35.7,110.9,36.1z"/>
	<path class="st4" d="M117.9,31.2c0,0.8,0.1,1.6,0.4,2.4c0.2,0.8,0.6,1.5,1.1,2.1c0.5,0.6,1.1,1.1,1.8,1.5c0.7,0.4,1.6,0.6,2.6,0.6
		c1,0,1.9-0.2,2.7-0.6c0.8-0.4,1.5-1,2.1-1.8l0.5,0.4c-0.6,0.8-1.4,1.5-2.3,1.9s-1.9,0.7-3,0.7c-1,0-1.9-0.2-2.7-0.5
		c-0.8-0.4-1.5-0.8-2.1-1.5c-0.6-0.6-1-1.4-1.3-2.3c-0.3-0.9-0.5-1.8-0.5-2.9c0-1,0.2-1.9,0.5-2.7c0.3-0.8,0.8-1.6,1.3-2.2
		s1.2-1.1,2-1.4s1.6-0.5,2.5-0.5c1,0,1.9,0.2,2.7,0.5c0.8,0.4,1.4,0.8,1.9,1.4c0.5,0.6,0.9,1.3,1.1,2s0.4,1.5,0.4,2.3v0.5H117.9z
		 M129,30.7c0-0.9-0.2-1.6-0.4-2.3s-0.7-1.3-1.1-1.8c-0.5-0.5-1-0.9-1.7-1.2c-0.7-0.3-1.4-0.4-2.2-0.4c-1,0-1.8,0.2-2.5,0.6
		c-0.7,0.4-1.3,0.9-1.7,1.5c-0.4,0.6-0.8,1.2-1,1.9c-0.2,0.7-0.3,1.2-0.3,1.7H129z"/>
	<path class="st4" d="M141.7,34.5c0,0.6-0.1,1.1-0.3,1.6c-0.2,0.5-0.5,0.9-0.9,1.2c-0.4,0.3-0.8,0.6-1.4,0.7
		c-0.5,0.2-1.1,0.3-1.7,0.3c-1,0-1.9-0.2-2.6-0.6c-0.8-0.4-1.4-0.9-2-1.6l0.5-0.3c1,1.3,2.3,2,4.1,2c0.4,0,0.8-0.1,1.3-0.2
		c0.4-0.1,0.8-0.3,1.2-0.6c0.4-0.3,0.6-0.6,0.9-1c0.2-0.4,0.3-0.9,0.3-1.4c0-0.6-0.1-1.1-0.4-1.5s-0.6-0.7-1-0.9
		c-0.4-0.2-0.9-0.4-1.4-0.6s-1-0.3-1.4-0.4c-0.5-0.1-0.9-0.3-1.3-0.4c-0.4-0.2-0.8-0.4-1.1-0.6c-0.3-0.3-0.6-0.6-0.7-1
		c-0.2-0.4-0.3-0.9-0.3-1.4s0.1-1.1,0.3-1.5s0.5-0.8,0.9-1c0.4-0.3,0.8-0.5,1.3-0.6c0.5-0.1,1-0.2,1.5-0.2c1.8,0,3.1,0.6,4,1.9
		l-0.5,0.3c-0.4-0.6-0.9-1-1.5-1.3c-0.6-0.3-1.2-0.4-2-0.4c-0.4,0-0.7,0-1.1,0.1c-0.4,0.1-0.8,0.3-1.1,0.5s-0.6,0.5-0.8,0.9
		s-0.3,0.8-0.3,1.3c0,0.6,0.1,1,0.3,1.4c0.2,0.3,0.4,0.6,0.8,0.8c0.3,0.2,0.7,0.4,1.2,0.5c0.5,0.1,1,0.3,1.5,0.4
		c0.5,0.1,1,0.3,1.5,0.5s0.9,0.4,1.3,0.7c0.4,0.3,0.7,0.6,0.9,1C141.6,33.4,141.7,33.9,141.7,34.5z"/>
	<path class="st4" d="M150.4,38.2c-0.3,0.1-0.6,0.1-0.9,0.1c-1,0-1.8-0.3-2.2-0.9c-0.4-0.6-0.7-1.3-0.7-2.2v-9.9h-2.9v-0.5h2.8V21
		h0.6v3.9h3.9v0.5h-3.9v9.9c0,0.9,0.2,1.5,0.7,1.9c0.4,0.4,1,0.6,1.7,0.6c0.5,0,1-0.1,1.5-0.3l0.1,0.5
		C151,38.1,150.7,38.2,150.4,38.2z"/>
</g>
<g class="st3">
	<path class="st4" d="M157.4,25.3c0.8-0.6,1.7-0.9,2.7-0.9c0.1,0,0.2,0,0.3,0c0.1,0,0.2,0,0.3,0V25c-0.1,0-0.1,0-0.2,0s-0.1,0-0.2,0
		c-0.8,0-1.6,0.2-2.1,0.6c-0.6,0.4-1.1,0.9-1.5,1.5c-0.4,0.6-0.7,1.3-0.8,2c-0.2,0.7-0.3,1.5-0.3,2.2V38h-0.6v-9.8
		c0-0.2,0-0.5,0-0.8s0-0.6,0-0.9c0-0.3,0-0.6,0-0.9c0-0.3,0-0.5-0.1-0.7h0.6c0,0.2,0,0.4,0,0.7c0,0.3,0,0.6,0,0.9c0,0.3,0,0.7,0,1
		c0,0.3,0,0.6,0,0.8h0.1C155.9,26.9,156.5,25.9,157.4,25.3z"/>
</g>
<g class="st3">
	<path class="st4" d="M176,31.4c0,1-0.2,2-0.5,2.8s-0.8,1.6-1.4,2.2c-0.6,0.6-1.3,1.1-2.2,1.4c-0.8,0.3-1.8,0.5-2.8,0.5
		c-1,0-1.9-0.2-2.8-0.5c-0.8-0.3-1.6-0.8-2.2-1.4c-0.6-0.6-1.1-1.4-1.4-2.2s-0.5-1.8-0.5-2.8c0-1,0.2-2,0.5-2.8
		c0.3-0.8,0.8-1.6,1.4-2.2c0.6-0.6,1.3-1.1,2.2-1.4c0.8-0.3,1.8-0.5,2.8-0.5c1,0,1.9,0.2,2.8,0.5c0.8,0.3,1.6,0.8,2.2,1.4
		c0.6,0.6,1.1,1.3,1.4,2.2C175.8,29.4,176,30.3,176,31.4z M175.4,31.4c0-0.9-0.1-1.7-0.4-2.5c-0.3-0.8-0.7-1.5-1.2-2s-1.2-1-2-1.4
		s-1.6-0.5-2.6-0.5c-1,0-1.8,0.2-2.6,0.5c-0.8,0.3-1.4,0.8-2,1.4s-1,1.3-1.2,2c-0.3,0.8-0.4,1.6-0.4,2.5c0,0.9,0.1,1.7,0.4,2.5
		c0.3,0.8,0.7,1.5,1.2,2c0.5,0.6,1.2,1,2,1.4c0.8,0.3,1.6,0.5,2.6,0.5c1,0,1.8-0.2,2.6-0.5c0.8-0.3,1.4-0.8,2-1.4
		c0.5-0.6,1-1.3,1.2-2C175.2,33.1,175.4,32.3,175.4,31.4z"/>
</g>
<g class="st3">
	<path class="st4" d="M80,60.2V40h11.8v0.6H80.6v8.9h10.5V50H80.6v9.6h11.6v0.6H80z"/>
	<path class="st4" d="M100.2,53.7l-4.8,6.5h-0.8l5.2-6.9L95.3,47h0.8l4.2,5.8l4.1-5.8h0.8l-4.6,6.2l5.3,6.9h-0.8L100.2,53.7z"/>
	<path class="st4" d="M110.4,50.6c0.6-1.3,1.4-2.3,2.4-3c1.1-0.7,2.2-1,3.5-1c1,0,1.9,0.2,2.7,0.5c0.8,0.4,1.5,0.8,2.1,1.5
		c0.6,0.6,1,1.4,1.3,2.2c0.3,0.9,0.5,1.8,0.5,2.8c0,1-0.2,1.9-0.5,2.8c-0.3,0.8-0.8,1.6-1.4,2.2c-0.6,0.6-1.3,1.1-2.1,1.5
		c-0.8,0.4-1.7,0.5-2.6,0.5c-0.6,0-1.2-0.1-1.8-0.3c-0.6-0.2-1.2-0.4-1.7-0.8c-0.5-0.3-1-0.7-1.4-1.2c-0.4-0.5-0.8-1.1-1-1.7h-0.1
		V67h-0.7V47h0.7L110.4,50.6L110.4,50.6z M122.2,53.6c0-0.9-0.1-1.7-0.4-2.5c-0.3-0.8-0.7-1.5-1.2-2.1c-0.5-0.6-1.1-1.1-1.9-1.4
		c-0.7-0.4-1.6-0.5-2.5-0.5c-0.9,0-1.7,0.2-2.4,0.5s-1.4,0.8-1.9,1.4c-0.5,0.6-0.9,1.3-1.3,2c-0.3,0.8-0.5,1.6-0.5,2.5
		c0,0.9,0.2,1.7,0.5,2.5c0.3,0.8,0.7,1.5,1.3,2c0.5,0.6,1.2,1,1.9,1.4c0.7,0.3,1.5,0.5,2.4,0.5c0.9,0,1.7-0.2,2.5-0.5
		c0.7-0.3,1.4-0.8,1.9-1.4c0.5-0.6,0.9-1.3,1.2-2C122.1,55.3,122.2,54.5,122.2,53.6z"/>
	<path class="st4" d="M127,53.5c0,0.8,0.1,1.6,0.4,2.4c0.2,0.8,0.6,1.5,1.1,2.1c0.5,0.6,1.1,1.1,1.8,1.5c0.7,0.4,1.6,0.6,2.6,0.6
		c1,0,1.9-0.2,2.7-0.6c0.8-0.4,1.5-1,2.1-1.8l0.5,0.4c-0.6,0.8-1.4,1.5-2.3,1.9s-1.9,0.7-3,0.7c-1,0-1.9-0.2-2.7-0.5
		c-0.8-0.4-1.5-0.8-2.1-1.5c-0.6-0.6-1-1.4-1.3-2.3c-0.3-0.9-0.5-1.8-0.5-2.9c0-1,0.2-1.9,0.5-2.7c0.3-0.8,0.8-1.6,1.3-2.2
		s1.2-1.1,2-1.4s1.6-0.5,2.5-0.5c1,0,1.9,0.2,2.7,0.5c0.8,0.4,1.4,0.8,1.9,1.4c0.5,0.6,0.9,1.3,1.1,2s0.4,1.5,0.4,2.3v0.5H127z
		 M138.1,52.9c0-0.9-0.2-1.6-0.4-2.3s-0.7-1.3-1.1-1.8c-0.5-0.5-1-0.9-1.7-1.2c-0.7-0.3-1.4-0.4-2.2-0.4c-1,0-1.8,0.2-2.5,0.6
		c-0.7,0.4-1.3,0.9-1.7,1.5c-0.4,0.6-0.8,1.2-1,1.9c-0.2,0.7-0.3,1.2-0.3,1.7H138.1z"/>
</g>
<g class="st3">
	<path class="st4" d="M146,47.5c0.8-0.6,1.7-0.9,2.7-0.9c0.1,0,0.2,0,0.3,0c0.1,0,0.2,0,0.3,0v0.5c-0.1,0-0.1,0-0.2,0s-0.1,0-0.2,0
		c-0.8,0-1.6,0.2-2.1,0.6c-0.6,0.4-1.1,0.9-1.5,1.5c-0.4,0.6-0.7,1.3-0.8,2c-0.2,0.7-0.3,1.5-0.3,2.2v6.8h-0.6v-9.8
		c0-0.2,0-0.5,0-0.8s0-0.6,0-0.9c0-0.3,0-0.6,0-0.9c0-0.3,0-0.5-0.1-0.7h0.6c0,0.2,0,0.4,0,0.7c0,0.3,0,0.6,0,0.9c0,0.3,0,0.7,0,1
		c0,0.3,0,0.6,0,0.8h0.1C144.5,49.1,145.1,48.1,146,47.5z"/>
</g>
<g class="st3">
	<path class="st4" d="M156.3,60.4c-0.3,0.1-0.6,0.1-0.9,0.1c-1,0-1.8-0.3-2.2-0.9c-0.4-0.6-0.7-1.3-0.7-2.2v-9.9h-2.9V47h2.8v-3.9
		h0.6V47h3.9v0.5h-3.9v9.9c0,0.9,0.2,1.5,0.7,1.9c0.4,0.4,1,0.6,1.7,0.6c0.5,0,1-0.1,1.5-0.3l0.1,0.5
		C156.9,60.3,156.7,60.4,156.3,60.4z"/>
	<path class="st4" d="M161.1,42.1c-0.2,0-0.3-0.1-0.5-0.2c-0.1-0.1-0.2-0.3-0.2-0.5c0-0.2,0.1-0.4,0.2-0.5c0.1-0.1,0.3-0.2,0.5-0.2
		c0.2,0,0.3,0.1,0.5,0.2c0.1,0.1,0.2,0.3,0.2,0.5c0,0.2-0.1,0.4-0.2,0.5S161.2,42.1,161.1,42.1z M160.8,60.2V47h0.6v13.1H160.8z"/>
	<path class="st4" d="M174.6,56.7c0,0.6-0.1,1.1-0.3,1.6c-0.2,0.5-0.5,0.9-0.9,1.2c-0.4,0.3-0.8,0.6-1.4,0.7
		c-0.5,0.2-1.1,0.3-1.7,0.3c-1,0-1.9-0.2-2.6-0.6c-0.8-0.4-1.4-0.9-2-1.6l0.5-0.3c1,1.3,2.3,2,4.1,2c0.4,0,0.8-0.1,1.3-0.2
		c0.4-0.1,0.8-0.3,1.2-0.6c0.4-0.3,0.6-0.6,0.9-1c0.2-0.4,0.3-0.9,0.3-1.4c0-0.6-0.1-1.1-0.4-1.5s-0.6-0.7-1-0.9
		c-0.4-0.2-0.9-0.4-1.4-0.6s-1-0.3-1.4-0.4c-0.5-0.1-0.9-0.3-1.3-0.4c-0.4-0.2-0.8-0.4-1.1-0.6c-0.3-0.3-0.6-0.6-0.7-1
		c-0.2-0.4-0.3-0.9-0.3-1.4s0.1-1.1,0.3-1.5s0.5-0.8,0.9-1c0.4-0.3,0.8-0.5,1.3-0.6c0.5-0.1,1-0.2,1.5-0.2c1.8,0,3.1,0.6,4,1.9
		l-0.5,0.3c-0.4-0.6-0.9-1-1.5-1.3c-0.6-0.3-1.2-0.4-2-0.4c-0.4,0-0.7,0-1.1,0.1c-0.4,0.1-0.8,0.3-1.1,0.5s-0.6,0.5-0.8,0.9
		s-0.3,0.8-0.3,1.3c0,0.6,0.1,1,0.3,1.4c0.2,0.3,0.4,0.6,0.8,0.8c0.3,0.2,0.7,0.4,1.2,0.5c0.5,0.1,1,0.3,1.5,0.4
		c0.5,0.1,1,0.3,1.5,0.5s0.9,0.4,1.3,0.7c0.4,0.3,0.7,0.6,0.9,1C174.5,55.7,174.6,56.2,174.6,56.7z"/>
</g>
</svg>
