<?xml version="1.0" encoding="utf-8"?>
<!-- Generator: Adobe Illustrator 22.1.0, SVG Export Plug-In . SVG Version: 6.00 Build 0)  -->
<svg version="1.1" id="Layer_1" xmlns="http://www.w3.org/2000/svg" xmlns:xlink="http://www.w3.org/1999/xlink" x="0px" y="0px"
	 viewBox="0 0 815 98" style="enable-background:new 0 0 815 98;" xml:space="preserve">
<style type="text/css">
	.st0{fill:#4C697B;}
	.st1{fill:#5B7E96;}
	.st2{fill:#415364;}
	.st3{fill:#FFFFFF;}
</style>
<rect x="-0.1" y="0.3" class="st0" width="815.1" height="98.3"/>
<path class="st1" d="M717.4,76.9c4.9,3.5,11.2,6.8,19.1,9.8V54.5l14.9-8.2v45v0v-45l13.5,5.9V27.5l14.9-8.2v76.9V19.3l14.8,8.1v29.4
	l8-4.4v0l12.3,14.9V1.3c-1.5,0-3,0-4.5,0c-60.4,0-109.4,21.8-109.4,48.6c0,9.7,5.2,18.7,15.4,26.3c0,0,0,0,0.1,0
	C716.7,76.4,717,76.6,717.4,76.9"/>
<path class="st2" d="M764.8,64.5V52.2l-13.5-5.9v45c2.4,0.6,5,1.2,7.6,1.7V67.8L764.8,64.5z"/>
<path class="st2" d="M802.5,97.9c3.9,0.2,8.1,0.3,12.3,0.3v-39l-12.3-6.7V97.9z"/>
<path class="st2" d="M794.5,56.8V27.4l-14.8-8.1v76.9c2.5,0.3,5.2,0.5,7.9,0.8V60.6L794.5,56.8z"/>
<g>
	<path class="st3" d="M129.9,50.7l-19.8-26.5H110v26.5h-0.9V23.2h1.2l19.8,26.4h0.1V23.2h0.9v27.6H129.9z"/>
	<path class="st3" d="M151.3,48.2c-0.5,0.7-1,1.2-1.7,1.7c-0.6,0.4-1.3,0.8-2,1c-0.7,0.2-1.5,0.4-2.3,0.4c-1.2,0-2.3-0.2-3.1-0.7
		c-0.8-0.4-1.5-1-2-1.8c-0.5-0.7-0.8-1.5-1.1-2.5c-0.2-0.9-0.3-1.8-0.3-2.8V32.8h0.9v10.7c0,0.8,0.1,1.5,0.2,2.4
		c0.2,0.8,0.4,1.6,0.9,2.2c0.4,0.7,1,1.2,1.7,1.7c0.7,0.5,1.6,0.7,2.8,0.7c1,0,1.9-0.2,2.8-0.6c0.9-0.4,1.6-1,2.3-1.7
		c0.6-0.8,1.1-1.7,1.5-2.7c0.4-1.1,0.6-2.3,0.6-3.7v-9h0.9v13.4c0,0.3,0,0.6,0,1.1c0,0.4,0,0.8,0,1.3c0,0.4,0,0.8,0.1,1.2
		c0,0.4,0.1,0.7,0.1,1h-0.9c0-0.3,0-0.6-0.1-1c0-0.4,0-0.8,0-1.3c0-0.5,0-0.9,0-1.3c0-0.4,0-0.8,0-1.1h-0.1
		C152.2,46.8,151.8,47.6,151.3,48.2z"/>
	<path class="st3" d="M160.8,41.6c0,1.1,0.2,2.2,0.5,3.2c0.3,1.1,0.8,2,1.5,2.9c0.7,0.8,1.5,1.5,2.5,2c1,0.5,2.2,0.8,3.6,0.8
		c1.4,0,2.6-0.3,3.7-0.8c1.1-0.6,2-1.4,2.8-2.4l0.6,0.5c-0.9,1.1-1.9,2-3.1,2.6c-1.2,0.6-2.5,0.9-4.1,0.9c-1.3,0-2.5-0.2-3.6-0.7
		c-1.1-0.5-2-1.1-2.8-2c-0.8-0.9-1.4-1.9-1.8-3.1c-0.4-1.2-0.6-2.5-0.6-3.9c0-1.3,0.2-2.6,0.7-3.7c0.4-1.1,1-2.1,1.8-3
		s1.7-1.5,2.7-1.9c1-0.5,2.2-0.7,3.4-0.7c1.4,0,2.6,0.2,3.7,0.7c1,0.5,1.9,1.1,2.6,1.9c0.7,0.8,1.2,1.7,1.5,2.7
		c0.3,1,0.5,2.1,0.5,3.1v0.7H160.8z M175.9,40.8c0-1.2-0.2-2.2-0.6-3.2c-0.4-1-0.9-1.8-1.5-2.5c-0.6-0.7-1.4-1.2-2.3-1.6
		c-0.9-0.4-1.9-0.6-3-0.6c-1.4,0-2.5,0.3-3.5,0.8c-1,0.6-1.7,1.2-2.4,2.1c-0.6,0.8-1.1,1.7-1.3,2.6c-0.3,0.9-0.4,1.7-0.4,2.4H175.9z
		"/>
	<path class="st3" d="M193.2,46c0,0.8-0.2,1.5-0.5,2.2c-0.3,0.6-0.7,1.2-1.3,1.6c-0.5,0.4-1.1,0.8-1.8,1c-0.7,0.2-1.5,0.4-2.3,0.4
		c-1.3,0-2.5-0.3-3.6-0.8c-1.1-0.5-2-1.3-2.7-2.2l0.7-0.5c1.3,1.8,3.2,2.7,5.6,2.7c0.6,0,1.1-0.1,1.7-0.3c0.6-0.2,1.1-0.5,1.6-0.8
		c0.5-0.4,0.9-0.8,1.2-1.4c0.3-0.5,0.4-1.2,0.4-1.9c0-0.8-0.2-1.5-0.6-2c-0.4-0.5-0.9-0.9-1.4-1.2c-0.6-0.3-1.2-0.6-1.9-0.8
		c-0.7-0.2-1.3-0.4-1.9-0.5c-0.6-0.2-1.3-0.4-1.8-0.6c-0.6-0.2-1.1-0.5-1.5-0.9c-0.4-0.4-0.8-0.8-1-1.3c-0.2-0.5-0.4-1.2-0.4-1.9
		c0-0.8,0.2-1.5,0.5-2c0.3-0.6,0.7-1,1.2-1.4c0.5-0.4,1.1-0.7,1.8-0.9c0.7-0.2,1.3-0.3,2-0.3c2.4,0,4.3,0.9,5.5,2.6l-0.7,0.4
		c-0.6-0.8-1.3-1.4-2-1.7c-0.8-0.4-1.7-0.6-2.7-0.6c-0.5,0-1,0.1-1.6,0.2c-0.5,0.1-1,0.3-1.5,0.6c-0.5,0.3-0.8,0.7-1.1,1.2
		c-0.3,0.5-0.4,1.1-0.4,1.8c0,0.8,0.1,1.4,0.4,1.9c0.2,0.5,0.6,0.8,1,1.1c0.4,0.3,1,0.5,1.6,0.7c0.6,0.2,1.3,0.4,2.1,0.6
		c0.7,0.2,1.4,0.4,2,0.6c0.7,0.2,1.2,0.6,1.8,0.9c0.5,0.4,0.9,0.8,1.2,1.4C193.1,44.6,193.2,45.2,193.2,46z"/>
	<path class="st3" d="M205.1,51.1c-0.4,0.1-0.8,0.1-1.2,0.1c-1.4,0-2.4-0.4-3-1.2c-0.6-0.8-0.9-1.8-0.9-3V33.5h-3.9v-0.7h3.9v-5.3
		h0.9v5.3h5.3v0.7h-5.3V47c0,1.2,0.3,2.1,0.9,2.6c0.6,0.5,1.4,0.8,2.4,0.8c0.7,0,1.4-0.1,2-0.4l0.1,0.7
		C205.9,50.9,205.5,51,205.1,51.1z"/>
	<path class="st3" d="M214.6,33.5c1.1-0.8,2.4-1.2,3.7-1.2c0.1,0,0.2,0,0.4,0c0.1,0,0.2,0,0.4,0V33c-0.1,0-0.2,0-0.3,0
		c-0.1,0-0.2,0-0.2,0c-1.1,0-2.1,0.3-2.9,0.8c-0.8,0.5-1.5,1.2-2,2c-0.5,0.8-0.9,1.7-1.1,2.7c-0.2,1-0.4,2-0.4,3v9.3h-0.9V37.3
		c0-0.3,0-0.6,0-1.1c0-0.4,0-0.8,0-1.3c0-0.4,0-0.8-0.1-1.2c0-0.4-0.1-0.7-0.1-1h0.9c0,0.3,0,0.6,0.1,1c0,0.4,0,0.8,0,1.3
		c0,0.5,0,0.9,0,1.3c0,0.4,0,0.8,0,1.1h0.1C212.6,35.6,213.5,34.3,214.6,33.5z"/>
	<path class="st3" d="M240,41.7c0,1.4-0.2,2.7-0.7,3.9c-0.5,1.2-1.1,2.2-1.9,3c-0.8,0.8-1.8,1.5-3,2s-2.4,0.7-3.8,0.7
		c-1.4,0-2.6-0.2-3.8-0.7c-1.1-0.5-2.1-1.1-3-2c-0.8-0.8-1.5-1.8-1.9-3s-0.7-2.5-0.7-3.9s0.2-2.7,0.7-3.8s1.1-2.1,1.9-3
		c0.8-0.8,1.8-1.5,3-1.9c1.1-0.5,2.4-0.7,3.8-0.7c1.4,0,2.6,0.2,3.8,0.7s2.1,1.1,3,1.9c0.8,0.8,1.5,1.8,1.9,3
		C239.7,39,240,40.3,240,41.7z M239.1,41.7c0-1.2-0.2-2.3-0.6-3.4c-0.4-1.1-1-2-1.7-2.8c-0.7-0.8-1.6-1.4-2.7-1.9
		c-1.1-0.5-2.2-0.7-3.6-0.7s-2.5,0.2-3.5,0.7c-1,0.5-1.9,1.1-2.7,1.9c-0.7,0.8-1.3,1.7-1.7,2.8c-0.4,1.1-0.6,2.2-0.6,3.4
		c0,1.2,0.2,2.4,0.6,3.4c0.4,1.1,1,2,1.7,2.8c0.7,0.8,1.6,1.4,2.7,1.9c1,0.5,2.2,0.7,3.5,0.7s2.5-0.2,3.6-0.7
		c1.1-0.5,1.9-1.1,2.7-1.9c0.7-0.8,1.3-1.7,1.7-2.8C238.9,44.1,239.1,42.9,239.1,41.7z"/>
	<path class="st3" d="M256.4,46c0,0.8-0.2,1.5-0.5,2.2c-0.3,0.6-0.7,1.2-1.3,1.6c-0.5,0.4-1.1,0.8-1.8,1c-0.7,0.2-1.5,0.4-2.3,0.4
		c-1.3,0-2.5-0.3-3.6-0.8c-1.1-0.5-2-1.3-2.7-2.2l0.7-0.5c1.3,1.8,3.2,2.7,5.6,2.7c0.6,0,1.1-0.1,1.7-0.3c0.6-0.2,1.1-0.5,1.6-0.8
		c0.5-0.4,0.9-0.8,1.2-1.4c0.3-0.5,0.4-1.2,0.4-1.9c0-0.8-0.2-1.5-0.6-2c-0.4-0.5-0.9-0.9-1.4-1.2c-0.6-0.3-1.2-0.6-1.9-0.8
		c-0.7-0.2-1.3-0.4-1.9-0.5c-0.6-0.2-1.3-0.4-1.8-0.6c-0.6-0.2-1.1-0.5-1.5-0.9c-0.4-0.4-0.8-0.8-1-1.3c-0.2-0.5-0.4-1.2-0.4-1.9
		c0-0.8,0.2-1.5,0.5-2c0.3-0.6,0.7-1,1.2-1.4c0.5-0.4,1.1-0.7,1.8-0.9c0.7-0.2,1.3-0.3,2-0.3c2.4,0,4.3,0.9,5.5,2.6l-0.7,0.4
		c-0.6-0.8-1.3-1.4-2-1.7c-0.8-0.4-1.7-0.6-2.7-0.6c-0.5,0-1,0.1-1.6,0.2c-0.5,0.1-1,0.3-1.5,0.6c-0.5,0.3-0.8,0.7-1.1,1.2
		c-0.3,0.5-0.4,1.1-0.4,1.8c0,0.8,0.1,1.4,0.4,1.9c0.2,0.5,0.6,0.8,1,1.1c0.4,0.3,1,0.5,1.6,0.7c0.6,0.2,1.3,0.4,2.1,0.6
		c0.7,0.2,1.4,0.4,2,0.6c0.7,0.2,1.2,0.6,1.8,0.9c0.5,0.4,0.9,0.8,1.2,1.4C256.3,44.6,256.4,45.2,256.4,46z"/>
</g>
<g>
	<path class="st3" d="M117.4,81H116l-10.4-27.6h0.9l10,26.8h0.1l10.2-26.8h0.9L117.4,81z"/>
	<path class="st3" d="M143.3,77c0,0.7,0,1.4,0.1,2.2c0.1,0.8,0.1,1.4,0.2,1.9h-0.8c-0.1-0.3-0.1-0.6-0.1-1c0-0.4-0.1-0.8-0.1-1.2
		c0-0.4-0.1-0.8-0.1-1.2c0-0.4,0-0.7,0-1h-0.1c-0.5,1.6-1.4,2.8-2.7,3.6c-1.3,0.8-2.6,1.2-4.1,1.2c-0.7,0-1.4-0.1-2.2-0.3
		c-0.7-0.2-1.4-0.5-1.9-0.9c-0.6-0.4-1-0.9-1.4-1.6c-0.4-0.6-0.5-1.4-0.5-2.3c0-1.3,0.3-2.3,1-3.1c0.7-0.8,1.5-1.4,2.5-1.8
		c1-0.4,2-0.7,3.2-0.8c1.1-0.1,2.2-0.2,3.1-0.2h3.1v-1.4c0-2-0.5-3.5-1.6-4.4c-1.1-0.9-2.5-1.4-4.2-1.4c-1.1,0-2.1,0.2-3,0.6
		c-0.9,0.4-1.7,0.9-2.5,1.6l-0.5-0.7c0.8-0.7,1.8-1.3,2.8-1.7c1.1-0.4,2.1-0.6,3.1-0.6c2,0,3.7,0.5,4.8,1.6c1.2,1.1,1.8,2.7,1.8,5
		V77z M142.4,71.2h-2.8c-1,0-2,0.1-3.1,0.2c-1.1,0.1-2.1,0.4-3,0.7c-0.9,0.4-1.7,0.9-2.2,1.6c-0.6,0.7-0.9,1.6-0.9,2.7
		c0,0.8,0.2,1.5,0.5,2.1c0.3,0.6,0.7,1,1.2,1.3c0.5,0.3,1.1,0.6,1.7,0.7c0.6,0.2,1.2,0.2,1.7,0.2c1.3,0,2.4-0.2,3.3-0.7
		c0.9-0.5,1.6-1.1,2.1-1.9c0.5-0.8,0.9-1.6,1.1-2.5c0.2-0.9,0.3-1.8,0.3-2.7V71.2z"/>
	<path class="st3" d="M150.9,81V51.6h0.9V81H150.9z"/>
	<path class="st3" d="M176.9,72c0,1.4-0.2,2.7-0.7,3.9c-0.5,1.2-1.1,2.2-1.9,3c-0.8,0.8-1.8,1.5-3,2s-2.4,0.7-3.8,0.7
		c-1.4,0-2.6-0.2-3.8-0.7c-1.1-0.5-2.1-1.1-3-2c-0.8-0.8-1.5-1.8-1.9-3s-0.7-2.5-0.7-3.9s0.2-2.7,0.7-3.8s1.1-2.1,1.9-3
		c0.8-0.8,1.8-1.5,3-1.9c1.1-0.5,2.4-0.7,3.8-0.7c1.4,0,2.6,0.2,3.8,0.7s2.1,1.1,3,1.9c0.8,0.8,1.5,1.8,1.9,3
		C176.6,69.3,176.9,70.6,176.9,72z M176,72c0-1.2-0.2-2.3-0.6-3.4c-0.4-1.1-1-2-1.7-2.8c-0.7-0.8-1.6-1.4-2.7-1.9
		c-1.1-0.5-2.2-0.7-3.6-0.7s-2.5,0.2-3.5,0.7c-1,0.5-1.9,1.1-2.7,1.9c-0.7,0.8-1.3,1.7-1.7,2.8c-0.4,1.1-0.6,2.2-0.6,3.4
		c0,1.2,0.2,2.4,0.6,3.4c0.4,1.1,1,2,1.7,2.8c0.7,0.8,1.6,1.4,2.7,1.9c1,0.5,2.2,0.7,3.5,0.7s2.5-0.2,3.6-0.7
		c1.1-0.5,1.9-1.1,2.7-1.9c0.7-0.8,1.3-1.7,1.7-2.8C175.8,74.4,176,73.2,176,72z"/>
	<path class="st3" d="M186.7,63.8c1.1-0.8,2.4-1.2,3.7-1.2c0.1,0,0.2,0,0.4,0c0.1,0,0.2,0,0.4,0v0.7c-0.1,0-0.2,0-0.3,0
		c-0.1,0-0.2,0-0.2,0c-1.1,0-2.1,0.3-2.9,0.8c-0.8,0.5-1.5,1.2-2,2c-0.5,0.8-0.9,1.7-1.1,2.7c-0.2,1-0.4,2-0.4,3V81h-0.9V67.6
		c0-0.3,0-0.6,0-1.1c0-0.4,0-0.8,0-1.3c0-0.4,0-0.8-0.1-1.2c0-0.4-0.1-0.7-0.1-1h0.9c0,0.3,0,0.6,0.1,1c0,0.4,0,0.8,0,1.3
		c0,0.5,0,0.9,0,1.3c0,0.4,0,0.8,0,1.1h0.1C184.8,65.9,185.6,64.6,186.7,63.8z"/>
	<path class="st3" d="M194.2,71.9c0,1.1,0.2,2.2,0.5,3.2c0.3,1.1,0.8,2,1.5,2.9c0.7,0.8,1.5,1.5,2.5,2c1,0.5,2.2,0.8,3.6,0.8
		c1.4,0,2.6-0.3,3.7-0.8c1.1-0.6,2-1.4,2.8-2.4l0.6,0.5c-0.9,1.1-1.9,2-3.1,2.6c-1.2,0.6-2.5,0.9-4.1,0.9c-1.3,0-2.5-0.2-3.6-0.7
		c-1.1-0.5-2-1.1-2.8-2c-0.8-0.9-1.4-1.9-1.8-3.1c-0.4-1.2-0.6-2.5-0.6-3.9c0-1.3,0.2-2.6,0.7-3.7c0.4-1.1,1-2.1,1.8-3
		s1.7-1.5,2.7-1.9c1-0.5,2.2-0.7,3.4-0.7c1.4,0,2.6,0.2,3.7,0.7c1,0.5,1.9,1.1,2.6,1.9c0.7,0.8,1.2,1.7,1.5,2.7
		c0.3,1,0.5,2.1,0.5,3.1v0.7H194.2z M209.4,71.1c0-1.2-0.2-2.2-0.6-3.2c-0.4-1-0.9-1.8-1.5-2.5c-0.6-0.7-1.4-1.2-2.3-1.6
		c-0.9-0.4-1.9-0.6-3-0.6c-1.4,0-2.5,0.3-3.5,0.8c-1,0.6-1.7,1.2-2.4,2.1c-0.6,0.8-1.1,1.7-1.3,2.6c-0.3,0.9-0.4,1.7-0.4,2.4H209.4z
		"/>
	<path class="st3" d="M226.6,76.3c0,0.8-0.2,1.5-0.5,2.2c-0.3,0.6-0.7,1.2-1.3,1.6c-0.5,0.4-1.1,0.8-1.8,1c-0.7,0.2-1.5,0.4-2.3,0.4
		c-1.3,0-2.5-0.3-3.6-0.8c-1.1-0.5-2-1.3-2.7-2.2l0.7-0.5c1.3,1.8,3.2,2.7,5.6,2.7c0.6,0,1.1-0.1,1.7-0.3c0.6-0.2,1.1-0.5,1.6-0.8
		c0.5-0.4,0.9-0.8,1.2-1.4c0.3-0.5,0.4-1.2,0.4-1.9c0-0.8-0.2-1.5-0.6-2c-0.4-0.5-0.9-0.9-1.4-1.2c-0.6-0.3-1.2-0.6-1.9-0.8
		c-0.7-0.2-1.3-0.4-1.9-0.5c-0.6-0.2-1.3-0.4-1.8-0.6c-0.6-0.2-1.1-0.5-1.5-0.9c-0.4-0.4-0.8-0.8-1-1.3c-0.2-0.5-0.4-1.2-0.4-1.9
		c0-0.8,0.2-1.5,0.5-2c0.3-0.6,0.7-1,1.2-1.4c0.5-0.4,1.1-0.7,1.8-0.9c0.7-0.2,1.3-0.3,2-0.3c2.4,0,4.3,0.9,5.5,2.6l-0.7,0.4
		c-0.6-0.8-1.3-1.4-2-1.7c-0.8-0.4-1.7-0.6-2.7-0.6c-0.5,0-1,0.1-1.6,0.2c-0.5,0.1-1,0.3-1.5,0.6c-0.5,0.3-0.8,0.7-1.1,1.2
		c-0.3,0.5-0.4,1.1-0.4,1.8c0,0.8,0.1,1.4,0.4,1.9c0.2,0.5,0.6,0.8,1,1.1c0.4,0.3,1,0.5,1.6,0.7c0.6,0.2,1.3,0.4,2.1,0.6
		c0.7,0.2,1.4,0.4,2,0.6c0.7,0.2,1.2,0.6,1.8,0.9c0.5,0.4,0.9,0.8,1.2,1.4C226.5,74.9,226.6,75.5,226.6,76.3z"/>
</g>
</svg>
