<?xml version="1.0" encoding="utf-8"?>
<!-- Generator: Adobe Illustrator 22.1.0, SVG Export Plug-In . SVG Version: 6.00 Build 0)  -->
<svg version="1.1" id="Layer_1" xmlns="http://www.w3.org/2000/svg" xmlns:xlink="http://www.w3.org/1999/xlink" x="0px" y="0px"
	 viewBox="0 0 589 71" style="enable-background:new 0 0 589 71;" xml:space="preserve">
<style type="text/css">
	.st0{fill:#4C697B;}
	.st1{fill:#5B7E96;}
	.st2{fill:#415364;}
	.st3{fill:#FFFFFF;}
	.st4{font-family:'AvenirNext-UltraLight';}
	.st5{font-size:28.5556px;}
</style>
<rect x="0.2" y="-0.1" class="st0" width="597.9" height="72.1"/>
<path class="st1" d="M526.5,56c3.6,2.6,8.2,5,14,7.2V39.6l10.9-6v33v0v-33l9.9,4.3V19.8l10.9-6v56.4V13.8l10.9,6v21.6l5.8-3.2v0
	l9,11V0.6c-1.1,0-2.2,0-3.3,0c-44.3,0-80.3,16-80.3,35.7c0,7.1,3.8,13.7,11.3,19.3c0,0,0,0,0,0C526,55.7,526.2,55.9,526.5,56"/>
<path class="st2" d="M561.3,47v-9l-9.9-4.3v33c1.8,0.4,3.6,0.9,5.6,1.3V49.3L561.3,47z"/>
<path class="st2" d="M588.9,71.4c2.9,0.1,5.9,0.2,9,0.2V43.1l-9-4.9V71.4z"/>
<path class="st2" d="M583.1,41.3V19.7l-10.9-6v56.4c1.9,0.2,3.8,0.4,5.8,0.6V44.1L583.1,41.3z"/>
<text transform="matrix(1 0 0 1 76.9795 37.9543)"><tspan x="0" y="0" class="st3 st4 st5">Nuest</tspan><tspan x="74.9" y="0" class="st3 st4 st5">r</tspan><tspan x="83.5" y="0" class="st3 st4 st5">o</tspan></text>
<text transform="matrix(1 0 0 1 76.9795 60.1707)"><tspan x="0" y="0" class="st3 st4 st5">Expe</tspan><tspan x="63.5" y="0" class="st3 st4 st5">r</tspan><tspan x="72.2" y="0" class="st3 st4 st5">tis</tspan></text>
</svg>
