<?xml version="1.0" encoding="utf-8"?>
<!-- Generator: Adobe Illustrator 22.1.0, SVG Export Plug-In . SVG Version: 6.00 Build 0)  -->
<svg version="1.1" id="Layer_1" xmlns="http://www.w3.org/2000/svg" xmlns:xlink="http://www.w3.org/1999/xlink" x="0px" y="0px"
	 viewBox="0 0 846 102" style="enable-background:new 0 0 846 102;" xml:space="preserve">
<style type="text/css">
	.st0{fill:#4C697B;}
	.st1{fill:#5B7E96;}
	.st2{fill:#415364;}
	.st3{fill:#FFFFFF;}
</style>
<rect x="-6.8" y="-0.1" class="st0" width="853.8" height="102.9"/>
<path class="st1" d="M744.3,80.1c5.2,3.6,11.7,7.2,20,10.3V56.6l15.6-8.6v47.1v0V48.1l14.1,6.2V28.3l15.6-8.6v80.6V19.7l15.5,8.5
	v30.8l8.3-4.6v0l12.9,15.6V0.9c-1.6,0-3.1,0-4.7,0C778.3,0.8,727,23.6,727,51.7c0,10.2,5.5,19.6,16.2,27.6c0,0,0,0,0.1,0
	C743.6,79.6,743.9,79.8,744.3,80.1"/>
<path class="st2" d="M794,67.1V54.3l-14.1-6.2v47.1c2.5,0.6,5.2,1.2,8,1.8V70.5L794,67.1z"/>
<path class="st2" d="M833.4,102.1c4.1,0.2,8.4,0.3,12.9,0.3V61.6l-12.9-7.1V102.1z"/>
<path class="st2" d="M825.1,59.1V28.3l-15.5-8.5v80.6c2.7,0.3,5.4,0.6,8.3,0.8V63.1L825.1,59.1z"/>
<g>
	<path class="st3" d="M135.5,38c0,1.6-0.3,3.2-0.8,4.7c-0.5,1.5-1.2,2.9-2.2,4.2c-0.9,1.3-2,2.3-3.2,3.2c-1.2,0.9-2.6,1.5-4,1.8v0.1
		H137v0.8h-16.5c-2,0-3.9-0.3-5.7-1c-1.8-0.7-3.4-1.7-4.7-3c-1.3-1.3-2.4-2.8-3.2-4.6c-0.8-1.8-1.2-3.8-1.2-6.1c0-2.2,0.4-4.2,1.1-6
		c0.7-1.8,1.8-3.4,3.1-4.7c1.3-1.3,2.9-2.4,4.7-3.1c1.8-0.7,3.8-1.1,5.9-1.1c2.1,0,4.1,0.4,5.9,1.1c1.8,0.8,3.4,1.8,4.7,3.1
		c1.3,1.3,2.4,2.9,3.1,4.7C135.1,33.8,135.5,35.8,135.5,38z M134.6,38c0-1.9-0.3-3.8-1-5.5c-0.7-1.7-1.6-3.2-2.9-4.5
		c-1.2-1.3-2.7-2.3-4.4-3.1c-1.7-0.7-3.6-1.1-5.6-1.1c-2,0-3.9,0.4-5.6,1.1c-1.7,0.7-3.2,1.7-4.4,3c-1.2,1.3-2.2,2.8-2.9,4.5
		c-0.7,1.7-1,3.6-1,5.5c0,1.9,0.3,3.7,1,5.4c0.7,1.7,1.7,3.2,2.9,4.4c1.2,1.3,2.7,2.3,4.4,3c1.7,0.7,3.6,1.1,5.6,1.1
		c2.1,0,4-0.4,5.7-1.2c1.7-0.8,3.2-1.8,4.4-3.1c1.2-1.3,2.1-2.8,2.8-4.4C134.2,41.5,134.6,39.7,134.6,38z"/>
	<path class="st3" d="M155.7,50.1c-0.5,0.7-1.1,1.3-1.7,1.7c-0.7,0.5-1.4,0.8-2.1,1.1c-0.8,0.2-1.5,0.4-2.4,0.4
		c-1.3,0-2.4-0.2-3.3-0.7c-0.9-0.5-1.6-1.1-2.1-1.8c-0.5-0.8-0.9-1.6-1.1-2.6c-0.2-1-0.3-1.9-0.3-2.9V33.9h0.9v11.3
		c0,0.8,0.1,1.6,0.2,2.5c0.2,0.9,0.5,1.6,0.9,2.3c0.4,0.7,1,1.3,1.8,1.8c0.7,0.5,1.7,0.7,2.9,0.7c1,0,2-0.2,2.9-0.6
		c0.9-0.4,1.7-1,2.4-1.8c0.7-0.8,1.2-1.7,1.6-2.9c0.4-1.1,0.6-2.4,0.6-3.9v-9.4h0.9v14c0,0.3,0,0.7,0,1.1c0,0.4,0,0.9,0,1.3
		c0,0.4,0,0.9,0.1,1.3c0,0.4,0.1,0.7,0.1,1h-0.9c0-0.3,0-0.6-0.1-1s0-0.8,0-1.3c0-0.5,0-0.9,0-1.4c0-0.4,0-0.8,0-1.2h-0.1
		C156.6,48.6,156.2,49.4,155.7,50.1z"/>
	<path class="st3" d="M166.8,26.9c-0.2,0-0.5-0.1-0.7-0.3c-0.2-0.2-0.3-0.4-0.3-0.8c0-0.3,0.1-0.5,0.3-0.7c0.2-0.2,0.4-0.3,0.7-0.3
		s0.5,0.1,0.7,0.3c0.2,0.2,0.3,0.4,0.3,0.7c0,0.3-0.1,0.6-0.3,0.8C167.2,26.8,167,26.9,166.8,26.9z M166.3,52.7V33.9h0.9v18.8H166.3
		z"/>
	<path class="st3" d="M174.8,43.1c0,1.1,0.2,2.3,0.5,3.4c0.3,1.1,0.9,2.1,1.5,3c0.7,0.9,1.6,1.6,2.6,2.1c1.1,0.5,2.3,0.8,3.8,0.8
		c1.5,0,2.8-0.3,3.9-0.9c1.1-0.6,2.1-1.4,3-2.5l0.7,0.6c-0.9,1.2-2,2.1-3.2,2.7c-1.2,0.6-2.7,0.9-4.3,0.9c-1.4,0-2.7-0.3-3.8-0.8
		c-1.1-0.5-2.1-1.2-3-2.1c-0.8-0.9-1.5-2-1.9-3.2c-0.4-1.2-0.7-2.6-0.7-4.1c0-1.4,0.2-2.7,0.7-3.9c0.5-1.2,1.1-2.2,1.9-3.1
		c0.8-0.9,1.8-1.5,2.8-2c1.1-0.5,2.3-0.7,3.5-0.7c1.5,0,2.8,0.3,3.8,0.8c1.1,0.5,2,1.2,2.7,2c0.7,0.8,1.3,1.8,1.6,2.9
		c0.4,1.1,0.5,2.2,0.5,3.3v0.8H174.8z M190.7,42.3c0-1.2-0.2-2.3-0.6-3.3c-0.4-1-0.9-1.9-1.6-2.6c-0.7-0.7-1.5-1.3-2.4-1.7
		c-1-0.4-2-0.6-3.2-0.6c-1.4,0-2.6,0.3-3.6,0.9c-1,0.6-1.8,1.3-2.5,2.2c-0.6,0.9-1.1,1.8-1.4,2.7c-0.3,0.9-0.4,1.8-0.4,2.5H190.7z"
		/>
	<path class="st3" d="M200.5,36.5c0.5-0.7,1.1-1.3,1.8-1.7c0.7-0.5,1.4-0.8,2.1-1.1c0.8-0.2,1.5-0.4,2.4-0.4c1.3,0,2.4,0.2,3.3,0.7
		c0.9,0.5,1.6,1.1,2.1,1.8c0.5,0.8,0.9,1.6,1.1,2.6c0.2,1,0.3,1.9,0.3,2.9v11.3h-0.9V41.4c0-0.8-0.1-1.6-0.2-2.4
		c-0.2-0.9-0.5-1.7-0.9-2.4c-0.4-0.7-1.1-1.3-1.8-1.8c-0.8-0.5-1.7-0.7-2.9-0.7c-1,0-2,0.2-2.9,0.6c-0.9,0.4-1.7,1-2.4,1.8
		c-0.7,0.8-1.2,1.7-1.6,2.9c-0.4,1.1-0.6,2.4-0.6,3.9v9.4h-0.9v-14c0-0.3,0-0.7,0-1.1c0-0.4,0-0.9,0-1.3c0-0.4,0-0.9-0.1-1.3
		c0-0.4-0.1-0.7-0.1-1h0.9c0,0.3,0,0.6,0.1,1c0,0.4,0,0.9,0,1.3c0,0.5,0,0.9,0,1.4c0,0.4,0,0.8,0,1.2h0.1
		C199.6,38,200,37.2,200.5,36.5z"/>
	<path class="st3" d="M220.8,43.1c0,1.1,0.2,2.3,0.5,3.4c0.3,1.1,0.9,2.1,1.5,3c0.7,0.9,1.6,1.6,2.6,2.1c1.1,0.5,2.3,0.8,3.8,0.8
		c1.5,0,2.8-0.3,3.9-0.9c1.1-0.6,2.1-1.4,3-2.5l0.7,0.6c-0.9,1.2-2,2.1-3.2,2.7c-1.2,0.6-2.7,0.9-4.3,0.9c-1.4,0-2.7-0.3-3.8-0.8
		c-1.1-0.5-2.1-1.2-3-2.1c-0.8-0.9-1.5-2-1.9-3.2c-0.4-1.2-0.7-2.6-0.7-4.1c0-1.4,0.2-2.7,0.7-3.9c0.5-1.2,1.1-2.2,1.9-3.1
		c0.8-0.9,1.8-1.5,2.8-2c1.1-0.5,2.3-0.7,3.5-0.7c1.5,0,2.8,0.3,3.8,0.8c1.1,0.5,2,1.2,2.7,2c0.7,0.8,1.3,1.8,1.6,2.9
		c0.4,1.1,0.5,2.2,0.5,3.3v0.8H220.8z M236.7,42.3c0-1.2-0.2-2.3-0.6-3.3c-0.4-1-0.9-1.9-1.6-2.6c-0.7-0.7-1.5-1.3-2.4-1.7
		c-1-0.4-2-0.6-3.2-0.6c-1.4,0-2.6,0.3-3.6,0.9c-1,0.6-1.8,1.3-2.5,2.2c-0.6,0.9-1.1,1.8-1.4,2.7c-0.3,0.9-0.4,1.8-0.4,2.5H236.7z"
		/>
	<path class="st3" d="M254.8,47.8c0,0.8-0.2,1.6-0.5,2.3c-0.3,0.7-0.8,1.2-1.3,1.7c-0.6,0.5-1.2,0.8-1.9,1.1
		c-0.7,0.2-1.5,0.4-2.4,0.4c-1.4,0-2.6-0.3-3.8-0.8c-1.1-0.5-2.1-1.3-2.8-2.3l0.7-0.5c1.4,1.9,3.3,2.9,5.9,2.9
		c0.6,0,1.2-0.1,1.8-0.3c0.6-0.2,1.2-0.5,1.7-0.9c0.5-0.4,0.9-0.9,1.2-1.4s0.5-1.2,0.5-2c0-0.9-0.2-1.6-0.6-2.1
		c-0.4-0.5-0.9-1-1.5-1.3c-0.6-0.3-1.3-0.6-2-0.8c-0.7-0.2-1.4-0.4-2-0.6c-0.7-0.2-1.3-0.4-1.9-0.6c-0.6-0.2-1.1-0.5-1.6-0.9
		c-0.4-0.4-0.8-0.8-1.1-1.4c-0.3-0.5-0.4-1.2-0.4-2c0-0.8,0.2-1.5,0.5-2.1c0.3-0.6,0.8-1.1,1.3-1.5c0.5-0.4,1.2-0.7,1.9-0.9
		c0.7-0.2,1.4-0.3,2.1-0.3c2.6,0,4.5,0.9,5.7,2.7l-0.8,0.4c-0.6-0.8-1.3-1.4-2.1-1.8c-0.8-0.4-1.7-0.6-2.9-0.6
		c-0.5,0-1.1,0.1-1.6,0.2c-0.6,0.1-1.1,0.4-1.6,0.7c-0.5,0.3-0.9,0.7-1.2,1.2c-0.3,0.5-0.5,1.1-0.5,1.9c0,0.8,0.1,1.5,0.4,2
		c0.3,0.5,0.6,0.9,1.1,1.2c0.5,0.3,1,0.6,1.7,0.8c0.7,0.2,1.4,0.4,2.2,0.6c0.7,0.2,1.4,0.4,2.1,0.7c0.7,0.3,1.3,0.6,1.8,1
		c0.5,0.4,1,0.9,1.3,1.4C254.6,46.2,254.8,46.9,254.8,47.8z"/>
</g>
<g>
	<path class="st3" d="M123.2,77.5c0,1.2-0.2,2.3-0.7,3.3c-0.5,1-1.1,1.8-1.9,2.4c-0.8,0.7-1.7,1.2-2.8,1.5c-1.1,0.3-2.2,0.5-3.4,0.5
		c-1.8,0-3.4-0.3-4.9-1c-1.5-0.6-2.7-1.5-3.7-2.6l0.7-0.6c1,1.1,2.2,2,3.6,2.5c1.4,0.6,2.8,0.8,4.3,0.8c1.1,0,2.1-0.2,3-0.5
		s1.8-0.8,2.5-1.3c0.7-0.6,1.3-1.3,1.7-2.2c0.4-0.9,0.6-1.8,0.6-3c0-1.1-0.2-2.1-0.7-2.8c-0.5-0.8-1.1-1.4-1.8-2
		c-0.7-0.5-1.6-1-2.5-1.4c-0.9-0.4-1.9-0.7-2.8-1c-1.2-0.4-2.3-0.8-3.3-1.2c-1-0.4-1.8-0.9-2.6-1.5c-0.7-0.6-1.3-1.3-1.7-2.2
		c-0.4-0.9-0.6-1.9-0.6-3.1c0-1.2,0.2-2.3,0.7-3.2c0.5-0.9,1.1-1.7,1.9-2.4c0.8-0.6,1.8-1.1,2.8-1.5c1.1-0.3,2.2-0.5,3.4-0.5
		c1.5,0,2.9,0.3,4.2,0.8c1.3,0.6,2.4,1.4,3.2,2.4l-0.7,0.6c-0.8-1-1.7-1.7-2.9-2.2c-1.2-0.5-2.5-0.8-3.9-0.8c-1,0-1.9,0.1-2.9,0.4
		c-0.9,0.3-1.8,0.7-2.5,1.2c-0.8,0.6-1.4,1.3-1.8,2.1c-0.5,0.8-0.7,1.8-0.7,3c0,1.1,0.2,2.1,0.6,2.8c0.4,0.8,1,1.4,1.6,2
		c0.7,0.5,1.4,1,2.3,1.3c0.9,0.4,1.7,0.7,2.6,1c1.2,0.4,2.4,0.8,3.4,1.2c1.1,0.4,2,0.9,2.8,1.5c0.8,0.6,1.4,1.3,1.9,2.2
		C122.9,75.2,123.2,76.2,123.2,77.5z"/>
	<path class="st3" d="M148.2,75c0,1.5-0.2,2.8-0.7,4c-0.5,1.2-1.1,2.3-2,3.2c-0.9,0.9-1.9,1.6-3.1,2.1c-1.2,0.5-2.5,0.7-4,0.7
		c-1.4,0-2.8-0.2-4-0.7c-1.2-0.5-2.2-1.2-3.1-2.1c-0.9-0.9-1.5-1.9-2-3.2c-0.5-1.2-0.7-2.6-0.7-4c0-1.5,0.2-2.8,0.7-4
		c0.5-1.2,1.1-2.2,2-3.1c0.9-0.9,1.9-1.5,3.1-2c1.2-0.5,2.5-0.7,4-0.7c1.4,0,2.8,0.2,4,0.7c1.2,0.5,2.2,1.2,3.1,2
		c0.9,0.9,1.5,1.9,2,3.1C148,72.2,148.2,73.5,148.2,75z M147.3,75c0-1.3-0.2-2.4-0.6-3.5c-0.4-1.1-1-2.1-1.8-2.9
		c-0.8-0.8-1.7-1.5-2.8-2c-1.1-0.5-2.3-0.7-3.7-0.7c-1.4,0-2.6,0.2-3.7,0.7c-1.1,0.5-2,1.1-2.8,2c-0.8,0.8-1.4,1.8-1.8,2.9
		c-0.4,1.1-0.6,2.3-0.6,3.5c0,1.3,0.2,2.5,0.6,3.6s1,2.1,1.8,2.9c0.8,0.8,1.7,1.5,2.8,2c1.1,0.5,2.3,0.7,3.7,0.7
		c1.4,0,2.6-0.2,3.7-0.7s2-1.1,2.8-2c0.8-0.8,1.4-1.8,1.8-2.9C147.1,77.5,147.3,76.3,147.3,75z"/>
	<path class="st3" d="M169.3,70.8c0.5-1.8,1.5-3.3,2.8-4.3c1.3-1,2.8-1.5,4.4-1.5c1.3,0,2.3,0.2,3.2,0.7c0.9,0.5,1.5,1.1,2,1.8
		c0.5,0.8,0.9,1.6,1.1,2.6c0.2,1,0.3,1.9,0.3,2.9v11.3h-0.9V73.1c0-0.8-0.1-1.6-0.3-2.4c-0.2-0.9-0.5-1.7-0.9-2.4
		c-0.4-0.7-1-1.3-1.8-1.8c-0.7-0.5-1.7-0.7-2.8-0.7c-1,0-1.9,0.2-2.8,0.6c-0.9,0.4-1.6,1-2.2,1.8c-0.6,0.8-1.1,1.7-1.5,2.9
		c-0.4,1.1-0.6,2.4-0.6,3.9v9.4h-0.9V73.1c0-0.8-0.1-1.6-0.2-2.4c-0.1-0.9-0.4-1.7-0.8-2.4c-0.4-0.7-1-1.3-1.7-1.8
		c-0.7-0.5-1.6-0.7-2.8-0.7c-1,0-1.9,0.2-2.8,0.6c-0.9,0.4-1.6,1-2.2,1.8s-1.1,1.7-1.5,2.9c-0.4,1.1-0.6,2.4-0.6,3.9v9.4H155v-14
		c0-0.3,0-0.7,0-1.1c0-0.4,0-0.9,0-1.3c0-0.4,0-0.9-0.1-1.3c0-0.4-0.1-0.7-0.1-1h0.9c0,0.3,0,0.6,0.1,1c0,0.4,0,0.9,0,1.3
		c0,0.5,0,0.9,0,1.4c0,0.4,0,0.8,0,1.2h0.1c0.3-0.9,0.7-1.6,1.1-2.3c0.5-0.7,1-1.3,1.7-1.7c0.6-0.5,1.3-0.8,2-1.1s1.5-0.4,2.2-0.4
		c1,0,1.8,0.1,2.5,0.4c0.7,0.3,1.3,0.7,1.8,1.2c0.5,0.5,0.9,1.1,1.2,1.8C168.8,69.2,169.1,70,169.3,70.8L169.3,70.8z"/>
	<path class="st3" d="M209.2,75c0,1.5-0.2,2.8-0.7,4c-0.5,1.2-1.1,2.3-2,3.2c-0.9,0.9-1.9,1.6-3.1,2.1c-1.2,0.5-2.5,0.7-4,0.7
		c-1.4,0-2.8-0.2-4-0.7c-1.2-0.5-2.2-1.2-3.1-2.1c-0.9-0.9-1.5-1.9-2-3.2c-0.5-1.2-0.7-2.6-0.7-4c0-1.5,0.2-2.8,0.7-4
		c0.5-1.2,1.1-2.2,2-3.1c0.9-0.9,1.9-1.5,3.1-2c1.2-0.5,2.5-0.7,4-0.7c1.4,0,2.8,0.2,4,0.7c1.2,0.5,2.2,1.2,3.1,2
		c0.9,0.9,1.5,1.9,2,3.1C208.9,72.2,209.2,73.5,209.2,75z M208.3,75c0-1.3-0.2-2.4-0.6-3.5c-0.4-1.1-1-2.1-1.8-2.9
		c-0.8-0.8-1.7-1.5-2.8-2c-1.1-0.5-2.3-0.7-3.7-0.7c-1.4,0-2.6,0.2-3.7,0.7c-1.1,0.5-2,1.1-2.8,2c-0.8,0.8-1.4,1.8-1.8,2.9
		c-0.4,1.1-0.6,2.3-0.6,3.5c0,1.3,0.2,2.5,0.6,3.6s1,2.1,1.8,2.9c0.8,0.8,1.7,1.5,2.8,2c1.1,0.5,2.3,0.7,3.7,0.7
		c1.4,0,2.6-0.2,3.7-0.7s2-1.1,2.8-2c0.8-0.8,1.4-1.8,1.8-2.9C208.1,77.5,208.3,76.3,208.3,75z"/>
	<path class="st3" d="M226.4,79.5c0,0.8-0.2,1.6-0.5,2.3c-0.3,0.7-0.8,1.2-1.3,1.7c-0.6,0.5-1.2,0.8-1.9,1.1
		c-0.7,0.2-1.5,0.4-2.4,0.4c-1.4,0-2.6-0.3-3.8-0.8c-1.1-0.5-2.1-1.3-2.8-2.3l0.7-0.5c1.4,1.9,3.3,2.9,5.9,2.9
		c0.6,0,1.2-0.1,1.8-0.3c0.6-0.2,1.2-0.5,1.7-0.9c0.5-0.4,0.9-0.9,1.2-1.4s0.5-1.2,0.5-2c0-0.9-0.2-1.6-0.6-2.1
		c-0.4-0.5-0.9-1-1.5-1.3c-0.6-0.3-1.3-0.6-2-0.8c-0.7-0.2-1.4-0.4-2-0.6c-0.7-0.2-1.3-0.4-1.9-0.6c-0.6-0.2-1.1-0.5-1.6-0.9
		c-0.4-0.4-0.8-0.8-1.1-1.4c-0.3-0.5-0.4-1.2-0.4-2c0-0.8,0.2-1.5,0.5-2.1c0.3-0.6,0.8-1.1,1.3-1.5c0.5-0.4,1.2-0.7,1.9-0.9
		c0.7-0.2,1.4-0.3,2.1-0.3c2.6,0,4.5,0.9,5.7,2.7l-0.8,0.4c-0.6-0.8-1.3-1.4-2.1-1.8c-0.8-0.4-1.7-0.6-2.9-0.6
		c-0.5,0-1.1,0.1-1.6,0.2c-0.6,0.1-1.1,0.4-1.6,0.7c-0.5,0.3-0.9,0.7-1.2,1.2c-0.3,0.5-0.5,1.1-0.5,1.9c0,0.8,0.1,1.5,0.4,2
		c0.3,0.5,0.6,0.9,1.1,1.2c0.5,0.3,1,0.6,1.7,0.8c0.7,0.2,1.4,0.4,2.2,0.6c0.7,0.2,1.4,0.4,2.1,0.7c0.7,0.3,1.3,0.6,1.8,1
		c0.5,0.4,1,0.9,1.3,1.4C226.2,78,226.4,78.7,226.4,79.5z"/>
</g>
</svg>
